<?xml version="1.0" encoding="UTF-8" ?>
<!DOCTYPE svg PUBLIC "-//W3C//DTD SVG 1.1//EN" "http://www.w3.org/Graphics/SVG/1.1/DTD/svg11.dtd">
<svg width="612pt" height="434pt" viewBox="0 0 612 434" version="1.1" xmlns="http://www.w3.org/2000/svg">
<g id="#ffffffff">
<path fill="#ffffff" opacity="1.00" d=" M 0.00 0.00 L 612.00 0.00 L 612.00 434.00 L 578.41 434.00 C 575.89 415.84 573.83 397.59 570.51 379.55 C 570.06 376.30 568.36 372.59 570.62 369.64 C 575.55 362.10 580.31 354.44 584.52 346.47 C 586.52 342.61 588.11 338.44 588.28 334.05 C 588.70 323.68 587.85 313.31 586.97 302.98 C 586.25 297.59 586.41 291.94 584.14 286.88 C 583.99 286.55 583.69 285.87 583.54 285.53 C 583.98 283.11 584.42 280.63 583.84 278.19 C 581.97 268.10 580.12 257.96 576.95 248.19 C 575.73 244.39 574.11 240.72 573.30 236.80 C 572.66 233.43 572.37 229.72 569.90 227.09 C 565.72 222.40 559.33 220.70 553.59 218.73 C 549.60 211.75 548.48 203.60 546.12 196.01 C 542.89 186.28 539.91 176.41 535.08 167.32 C 531.54 158.82 526.10 151.07 518.92 145.27 C 514.40 141.75 508.62 140.41 503.01 139.96 C 496.60 140.54 489.86 141.19 484.32 144.78 C 480.73 146.71 478.17 149.92 475.39 152.80 C 476.46 153.13 477.53 153.49 478.60 153.88 C 476.55 154.62 473.79 154.63 472.72 156.87 C 469.34 162.30 469.65 168.90 469.68 175.04 C 469.76 179.36 468.40 183.57 468.57 187.89 C 470.47 190.11 473.35 191.66 474.12 194.69 C 475.66 198.56 476.83 203.58 481.06 205.35 C 487.10 206.26 492.76 203.31 498.54 202.07 C 498.58 209.04 498.26 216.01 498.74 222.97 C 497.77 222.11 496.84 221.21 495.90 220.33 C 490.97 223.30 486.58 227.06 482.35 230.93 C 479.44 229.22 476.38 227.81 473.21 226.67 C 463.57 223.13 453.84 219.80 443.92 217.16 C 442.81 212.59 442.13 207.93 441.39 203.29 C 446.57 199.04 449.68 192.98 453.98 187.94 C 456.42 185.17 457.40 180.81 454.93 177.74 C 457.23 170.28 459.71 161.98 456.76 154.34 C 455.50 150.63 452.09 148.41 449.49 145.72 C 451.27 143.12 453.91 141.06 454.95 137.98 C 457.20 131.75 456.93 123.85 452.14 118.85 C 447.58 113.92 439.00 113.21 434.16 118.13 C 428.33 124.22 427.80 133.47 429.76 141.28 C 423.60 142.55 417.72 146.07 414.70 151.74 C 411.61 157.26 411.24 163.69 409.79 169.71 C 409.03 172.10 407.54 174.41 407.72 176.98 C 409.58 185.34 411.21 193.91 415.77 201.32 C 400.28 195.82 384.91 187.50 368.00 188.52 C 359.13 188.62 350.25 188.44 341.38 188.62 C 339.73 183.91 337.88 179.25 336.63 174.41 C 343.24 172.00 350.54 171.24 356.47 167.14 C 363.56 162.30 369.81 155.74 373.14 147.73 C 378.74 132.52 376.37 113.99 365.02 101.98 C 360.75 97.12 354.99 94.00 349.16 91.40 C 343.49 88.80 337.07 88.84 330.96 88.97 C 317.42 89.10 305.13 97.54 297.76 108.52 C 293.70 114.40 292.25 121.55 291.51 128.54 C 291.25 132.97 292.29 137.40 291.62 141.82 C 291.81 141.50 292.17 140.84 292.36 140.52 C 292.96 148.04 289.70 154.89 287.43 161.84 C 290.06 163.94 292.14 166.72 292.71 170.11 C 293.29 174.73 294.42 179.27 295.77 183.72 C 301.46 183.60 307.07 182.42 312.50 180.77 C 312.56 184.82 312.66 188.87 312.80 192.93 C 304.02 196.54 294.70 198.87 286.21 203.14 C 284.56 197.87 283.02 192.51 282.81 186.97 C 282.72 183.24 282.17 179.53 280.89 176.03 C 280.46 170.53 281.08 164.93 279.70 159.53 C 276.31 142.44 263.62 127.48 247.23 121.49 C 236.04 117.15 223.31 117.04 211.95 120.85 C 206.69 122.55 201.99 125.55 197.29 128.40 C 195.60 123.09 194.63 117.57 194.50 112.00 C 194.52 108.92 193.52 105.99 192.11 103.29 C 196.23 100.83 200.12 97.86 203.31 94.25 C 204.66 92.47 206.94 89.91 204.92 87.75 C 201.05 88.00 197.41 89.50 193.57 89.93 C 194.40 86.52 198.39 85.68 200.53 83.25 C 195.88 81.51 190.97 80.45 186.00 80.35 C 175.71 79.99 165.18 80.10 155.26 83.17 C 151.45 84.27 148.75 87.32 145.66 89.61 C 143.03 91.64 140.40 93.90 139.00 96.98 C 135.05 105.69 135.31 115.61 137.32 124.78 C 138.41 130.40 140.11 135.96 143.08 140.89 C 139.50 145.18 137.02 150.24 133.71 154.71 C 132.19 156.95 129.24 157.03 126.83 157.46 C 112.17 158.31 97.53 160.02 83.13 162.96 C 76.24 164.70 68.51 165.98 63.50 171.50 C 57.43 178.17 53.08 186.18 49.11 194.22 C 37.26 218.38 28.44 243.91 20.52 269.58 C 19.22 274.36 17.40 279.05 16.92 284.01 C 17.51 290.79 20.98 296.88 24.13 302.78 C 33.94 319.83 45.99 335.44 58.13 350.88 C 60.29 353.66 63.03 356.08 64.56 359.31 C 65.00 363.35 62.16 367.69 64.57 371.42 C 64.13 382.97 62.23 394.42 61.21 405.93 C 60.42 415.30 58.96 424.61 58.39 434.00 L 0.00 434.00 L 0.00 0.00 Z" />
<path fill="#ffffff" opacity="1.00" d=" M 178.69 316.98 C 183.61 313.32 186.30 307.50 191.29 303.90 C 192.78 316.60 195.69 329.22 195.58 342.06 C 195.83 347.94 192.41 353.04 191.32 358.68 C 187.88 369.43 186.40 380.66 183.63 391.59 C 180.68 405.10 178.34 418.73 175.35 432.23 C 175.32 412.18 175.53 392.14 175.24 372.10 C 176.51 371.42 178.49 370.84 178.35 369.03 C 178.75 351.68 178.27 334.32 178.69 316.98 Z" />
</g>
<g id="#2b3858ff">
<path fill="#2b3858" opacity="1.00" d=" M 155.26 83.17 C 165.18 80.10 175.71 79.99 186.00 80.35 C 190.97 80.45 195.88 81.51 200.53 83.25 C 198.39 85.68 194.40 86.52 193.57 89.93 C 197.41 89.50 201.05 88.00 204.92 87.75 C 206.94 89.91 204.66 92.47 203.31 94.25 C 200.12 97.86 196.23 100.83 192.11 103.29 C 185.79 104.10 178.58 105.01 174.24 110.25 C 169.14 116.95 168.90 125.96 169.91 133.99 C 170.19 136.95 171.51 139.64 172.99 142.16 C 176.66 140.16 179.67 137.05 183.56 135.46 C 188.05 134.75 192.52 136.54 197.05 136.25 C 195.90 136.58 194.77 136.95 193.64 137.33 C 193.33 143.90 193.47 150.54 192.03 156.99 C 187.68 157.25 183.24 157.20 179.07 155.77 C 178.74 156.91 178.42 158.05 178.12 159.20 C 178.15 158.48 178.20 157.03 178.23 156.30 C 175.46 155.85 172.70 155.34 170.00 154.60 C 166.82 153.31 162.07 152.17 161.91 147.99 C 161.75 140.19 164.41 132.69 165.25 124.99 C 165.77 121.09 164.63 116.90 162.01 113.94 C 157.14 110.45 150.54 116.71 151.86 121.95 C 152.03 125.49 155.49 129.52 152.65 132.68 C 150.10 136.09 146.49 138.43 143.08 140.89 C 140.11 135.96 138.41 130.40 137.32 124.78 C 135.31 115.61 135.05 105.69 139.00 96.98 C 140.40 93.90 143.03 91.64 145.66 89.61 C 148.75 87.32 151.45 84.27 155.26 83.17 Z" />
</g>
<g id="#2a3958ff">
<path fill="#2a3958" opacity="1.00" d=" M 297.76 108.52 C 305.13 97.54 317.42 89.10 330.96 88.97 C 337.07 88.84 343.49 88.80 349.16 91.40 C 354.99 94.00 360.75 97.12 365.02 101.98 C 376.37 113.99 378.74 132.52 373.14 147.73 C 369.81 155.74 363.56 162.30 356.47 167.14 C 350.54 171.24 343.24 172.00 336.63 174.41 C 335.85 170.48 333.08 167.45 330.47 164.59 C 326.23 159.86 321.21 155.89 317.32 150.85 C 310.90 142.98 303.61 135.89 295.75 129.48 C 293.63 132.76 292.16 136.55 292.36 140.52 C 292.17 140.84 291.81 141.50 291.62 141.82 C 292.29 137.40 291.25 132.97 291.51 128.54 C 292.25 121.55 293.70 114.40 297.76 108.52 Z" />
<path fill="#2a3958" opacity="1.00" d=" M 434.16 118.13 C 439.00 113.21 447.58 113.92 452.14 118.85 C 456.93 123.85 457.20 131.75 454.95 137.98 C 453.91 141.06 451.27 143.12 449.49 145.72 C 452.09 148.41 455.50 150.63 456.76 154.34 C 459.71 161.98 457.23 170.28 454.93 177.74 C 451.24 174.85 453.72 169.69 452.17 165.82 C 447.80 153.26 429.46 148.86 419.61 157.62 C 415.91 160.53 414.38 165.16 413.46 169.60 C 412.23 169.64 411.01 169.68 409.79 169.71 C 411.24 163.69 411.61 157.26 414.70 151.74 C 417.72 146.07 423.60 142.55 429.76 141.28 C 427.80 133.47 428.33 124.22 434.16 118.13 Z" />
<path fill="#2a3958" opacity="1.00" d=" M 484.32 144.78 C 489.86 141.19 496.60 140.54 503.01 139.96 C 508.62 140.41 514.40 141.75 518.92 145.27 C 526.10 151.07 531.54 158.82 535.08 167.32 C 539.91 176.41 542.89 186.28 546.12 196.01 C 548.48 203.60 549.60 211.75 553.59 218.73 C 551.95 218.29 550.28 218.00 548.63 217.72 C 546.81 221.44 544.28 224.89 543.21 228.93 C 542.40 231.08 544.77 233.94 547.04 232.75 C 548.59 231.47 549.79 229.84 551.04 228.28 C 548.71 231.53 545.25 234.92 545.93 239.27 C 546.86 241.31 549.32 241.10 551.18 241.03 C 552.58 238.27 553.90 235.38 555.90 233.00 C 555.47 235.85 553.11 237.82 552.05 240.42 C 550.49 242.04 551.02 244.58 552.72 245.88 C 556.35 247.10 557.43 242.69 558.63 240.21 C 558.44 241.60 558.29 242.99 558.16 244.39 C 558.69 244.47 559.76 244.64 560.29 244.72 C 562.95 253.25 566.17 261.62 569.93 269.73 C 573.06 275.98 576.99 282.41 583.54 285.53 C 583.69 285.87 583.99 286.55 584.14 286.88 C 577.78 287.30 571.30 287.68 564.98 286.56 C 554.34 284.01 545.47 276.79 538.48 268.63 C 534.37 262.75 529.58 257.26 526.66 250.63 C 521.98 242.11 518.52 233.01 515.60 223.76 C 513.15 214.93 510.19 206.22 508.63 197.18 C 507.99 193.03 506.45 189.06 506.04 184.89 C 506.23 180.57 507.59 176.24 506.72 171.92 C 505.34 168.98 502.13 167.18 498.90 167.94 C 496.52 167.89 496.23 170.64 495.55 172.31 C 494.47 168.57 491.14 166.28 488.79 163.40 C 485.83 159.78 482.06 156.97 478.60 153.88 C 477.53 153.49 476.46 153.13 475.39 152.80 C 478.17 149.92 480.73 146.71 484.32 144.78 Z" />
<path fill="#2a3958" opacity="1.00" d=" M 119.52 220.48 C 121.50 220.56 123.49 220.56 125.48 220.48 C 125.13 235.84 125.23 251.22 125.41 266.58 C 134.43 266.85 143.47 266.82 152.48 266.56 C 152.46 267.85 152.46 269.14 152.47 270.44 C 141.49 270.18 130.48 270.12 119.50 270.48 C 119.81 253.82 119.80 237.14 119.52 220.48 Z" />
<path fill="#2a3958" opacity="1.00" d=" M 314.05 243.81 C 321.36 243.61 328.67 243.74 335.97 243.72 C 340.09 243.89 344.78 243.99 347.84 247.19 C 353.98 252.65 352.47 263.97 344.86 267.37 C 349.27 269.30 353.46 272.88 353.67 278.05 C 354.99 286.15 348.17 294.09 340.03 294.26 C 331.38 294.40 322.72 294.39 314.07 294.28 C 313.80 277.46 313.78 260.62 314.05 243.81 M 320.96 249.31 C 320.45 254.63 320.75 259.98 320.76 265.31 C 327.37 265.25 334.19 266.27 340.65 264.50 C 344.84 263.23 345.44 258.01 344.53 254.35 C 343.86 251.34 340.63 249.81 337.81 249.56 C 332.20 249.14 326.57 249.61 320.96 249.31 M 320.83 271.16 C 320.70 277.01 320.46 282.89 320.97 288.72 C 327.44 288.39 333.96 289.09 340.41 288.35 C 346.73 287.37 349.11 278.51 345.01 274.01 C 343.30 271.95 340.45 271.55 337.95 271.30 C 332.25 271.00 326.54 271.30 320.83 271.16 Z" />
<path fill="#2a3958" opacity="1.00" d=" M 412.48 263.52 C 425.48 263.75 438.50 263.73 451.51 263.53 C 451.48 264.84 451.48 266.16 451.51 267.48 C 445.83 267.29 440.14 267.19 434.46 267.48 C 434.24 282.48 434.23 297.49 434.50 312.49 C 432.48 312.41 430.46 312.41 428.44 312.51 C 428.66 297.51 428.63 282.50 428.48 267.50 C 423.15 267.20 417.81 267.28 412.48 267.49 C 412.49 266.17 412.49 264.84 412.48 263.52 Z" />
<path fill="#2a3958" opacity="1.00" d=" M 498.66 273.90 C 502.55 272.17 506.90 272.72 511.03 272.66 C 515.90 272.41 520.27 275.17 523.80 278.25 C 529.97 283.94 531.93 292.85 531.32 300.95 C 530.90 307.25 527.97 313.00 524.32 318.01 C 525.28 320.58 528.53 321.60 530.48 323.51 C 529.41 324.40 528.75 326.33 527.23 326.37 C 524.77 324.80 522.82 322.43 520.05 321.41 C 517.25 321.41 514.82 323.43 511.98 323.29 C 508.20 323.25 504.36 323.66 500.63 323.03 C 494.85 320.98 490.02 316.55 487.05 311.24 C 483.70 305.14 484.74 297.98 484.83 291.32 C 486.49 283.87 491.49 276.89 498.66 273.90 M 490.43 291.99 C 490.25 295.33 490.38 298.68 490.33 302.02 C 490.04 311.06 498.07 319.22 506.97 319.78 C 509.54 319.91 512.41 319.85 514.46 318.05 C 514.55 315.56 511.96 314.06 510.56 312.26 C 511.28 311.31 512.00 310.34 512.71 309.38 C 514.68 311.27 516.44 313.61 519.00 314.73 C 521.53 314.21 522.54 311.39 523.65 309.36 C 526.35 304.34 525.79 298.48 525.63 293.00 C 524.76 286.89 521.23 280.87 515.40 278.35 C 505.39 271.94 491.33 280.78 490.43 291.99 Z" />
<path fill="#2a3958" opacity="1.00" d=" M 64.57 371.42 C 69.37 372.40 74.05 373.87 78.80 375.07 C 104.36 381.32 131.36 382.95 157.21 377.36 C 163.36 376.11 169.17 373.67 175.24 372.10 C 175.53 392.14 175.32 412.18 175.35 432.23 C 175.26 432.67 175.08 433.56 174.99 434.00 L 121.31 434.00 C 120.81 428.24 120.61 422.45 119.75 416.72 C 118.03 422.38 117.38 428.27 115.97 434.00 L 58.39 434.00 C 58.96 424.61 60.42 415.30 61.21 405.93 C 62.23 394.42 64.13 382.97 64.57 371.42 Z" />
<path fill="#2a3958" opacity="1.00" d=" M 318.01 393.39 C 342.51 394.05 366.66 388.00 389.53 379.66 C 390.15 384.19 390.72 388.72 391.43 393.24 C 393.34 406.83 395.06 420.44 397.12 434.00 L 346.13 434.00 C 344.32 428.63 343.20 423.06 341.43 417.68 C 339.53 422.94 339.42 428.60 338.08 434.00 L 292.04 434.00 C 291.12 424.06 289.47 414.21 288.65 404.26 C 289.29 399.88 289.75 395.47 290.39 391.09 C 290.85 391.01 291.77 390.85 292.23 390.77 C 300.70 392.54 309.36 393.27 318.01 393.39 Z" />
</g>
<g id="#e4857fff">
<path fill="#e4857f" opacity="1.00" d=" M 174.24 110.25 C 178.58 105.01 185.79 104.10 192.11 103.29 C 193.52 105.99 194.52 108.92 194.50 112.00 C 194.63 117.57 195.60 123.09 197.29 128.40 C 197.32 130.97 197.58 133.52 197.90 136.07 L 197.05 136.25 C 192.52 136.54 188.05 134.75 183.56 135.46 C 179.67 137.05 176.66 140.16 172.99 142.16 C 171.51 139.64 170.19 136.95 169.91 133.99 C 168.90 125.96 169.14 116.95 174.24 110.25 Z" />
<path fill="#e4857f" opacity="1.00" d=" M 151.86 121.95 C 150.54 116.71 157.14 110.45 162.01 113.94 C 164.63 116.90 165.77 121.09 165.25 124.99 C 164.41 132.69 161.75 140.19 161.91 147.99 C 162.07 152.17 166.82 153.31 170.00 154.60 C 168.83 158.23 168.23 161.99 167.58 165.74 C 164.28 171.70 160.35 178.09 153.86 180.95 C 148.54 183.06 142.79 179.57 139.79 175.21 C 135.99 170.62 134.64 164.76 132.70 159.28 C 132.03 156.70 128.79 157.85 126.83 157.46 C 129.24 157.03 132.19 156.95 133.71 154.71 C 137.02 150.24 139.50 145.18 143.08 140.89 C 146.49 138.43 150.10 136.09 152.65 132.68 C 155.49 129.52 152.03 125.49 151.86 121.95 Z" />
<path fill="#e4857f" opacity="1.00" d=" M 472.72 156.87 C 473.79 154.63 476.55 154.62 478.60 153.88 C 482.06 156.97 485.83 159.78 488.79 163.40 C 491.14 166.28 494.47 168.57 495.55 172.31 C 496.23 170.64 496.52 167.89 498.90 167.94 C 502.13 167.18 505.34 168.98 506.72 171.92 C 507.59 176.24 506.23 180.57 506.04 184.89 C 506.45 189.06 507.99 193.03 508.63 197.18 C 510.19 206.22 513.15 214.93 515.60 223.76 C 510.08 224.88 503.60 227.09 498.74 222.97 C 498.26 216.01 498.58 209.04 498.54 202.07 C 492.76 203.31 487.10 206.26 481.06 205.35 C 476.83 203.58 475.66 198.56 474.12 194.69 C 473.35 191.66 470.47 190.11 468.57 187.89 C 468.40 183.57 469.76 179.36 469.68 175.04 C 469.65 168.90 469.34 162.30 472.72 156.87 Z" />
</g>
<g id="#151b29ff">
<path fill="#151b29" opacity="1.00" d=" M 211.95 120.85 C 223.31 117.04 236.04 117.15 247.23 121.49 C 263.62 127.48 276.31 142.44 279.70 159.53 C 281.08 164.93 280.46 170.53 280.89 176.03 C 279.01 172.73 276.83 168.90 272.94 167.77 C 268.26 166.78 264.30 170.21 261.55 173.56 C 257.97 177.66 258.00 183.41 257.08 188.49 C 254.01 187.48 249.79 186.38 247.76 189.81 C 244.60 193.70 248.69 198.12 248.33 202.28 C 246.40 206.46 241.87 208.65 239.67 212.67 C 237.97 215.73 236.62 218.96 235.15 222.12 C 227.79 222.07 220.23 222.25 213.20 219.72 C 199.78 215.47 188.18 205.69 182.13 192.94 C 178.40 185.65 176.87 177.42 176.87 169.27 C 176.99 165.88 177.49 162.53 178.12 159.20 C 178.42 158.05 178.74 156.91 179.07 155.77 C 183.24 157.20 187.68 157.25 192.03 156.99 C 193.47 150.54 193.33 143.90 193.64 137.33 C 194.77 136.95 195.90 136.58 197.05 136.25 L 197.90 136.07 C 197.58 133.52 197.32 130.97 197.29 128.40 C 201.99 125.55 206.69 122.55 211.95 120.85 Z" />
</g>
<g id="#e3857fff">
<path fill="#e3857f" opacity="1.00" d=" M 295.75 129.48 C 303.61 135.89 310.90 142.98 317.32 150.85 C 321.21 155.89 326.23 159.86 330.47 164.59 C 333.08 167.45 335.85 170.48 336.63 174.41 C 337.88 179.25 339.73 183.91 341.38 188.62 C 339.63 193.53 337.05 199.21 331.44 200.51 C 324.23 202.44 317.75 197.57 312.80 192.93 C 312.66 188.87 312.56 184.82 312.50 180.77 C 316.05 179.33 320.62 178.26 322.52 174.61 C 323.35 169.45 322.15 164.16 320.90 159.15 C 320.35 156.54 317.92 155.10 315.98 153.58 C 315.58 158.49 314.98 163.39 313.64 168.15 C 309.62 167.94 306.61 165.05 302.95 163.81 C 299.38 163.16 295.93 164.72 292.68 165.97 C 292.66 167.35 292.67 168.73 292.71 170.11 C 292.14 166.72 290.06 163.94 287.43 161.84 C 289.70 154.89 292.96 148.04 292.36 140.52 C 292.16 136.55 293.63 132.76 295.75 129.48 Z" />
</g>
<g id="#e2837dff">
<path fill="#e2837d" opacity="1.00" d=" M 419.61 157.62 C 429.46 148.86 447.80 153.26 452.17 165.82 C 453.72 169.69 451.24 174.85 454.93 177.74 C 457.40 180.81 456.42 185.17 453.98 187.94 C 449.68 192.98 446.57 199.04 441.39 203.29 C 436.63 207.13 429.96 210.75 423.85 207.98 C 422.63 207.53 421.38 207.17 420.12 206.86 C 420.10 205.69 420.07 204.53 420.07 203.37 C 419.76 203.50 419.15 203.78 418.84 203.91 C 417.79 203.08 416.77 202.20 415.77 201.32 C 411.21 193.91 409.58 185.34 407.72 176.98 C 407.54 174.41 409.03 172.10 409.79 169.71 C 411.01 169.68 412.23 169.64 413.46 169.60 C 414.38 165.16 415.91 160.53 419.61 157.62 Z" />
</g>
<g id="#2a3758ff">
<path fill="#2a3758" opacity="1.00" d=" M 315.98 153.58 C 317.92 155.10 320.35 156.54 320.90 159.15 C 322.15 164.16 323.35 169.45 322.52 174.61 C 320.62 178.26 316.05 179.33 312.50 180.77 C 307.07 182.42 301.46 183.60 295.77 183.72 C 294.42 179.27 293.29 174.73 292.71 170.11 C 292.67 168.73 292.66 167.35 292.68 165.97 C 295.93 164.72 299.38 163.16 302.95 163.81 C 306.61 165.05 309.62 167.94 313.64 168.15 C 314.98 163.39 315.58 158.49 315.98 153.58 Z" />
</g>
<g id="#dfd5ccff">
<path fill="#dfd5cc" opacity="1.00" d=" M 167.58 165.74 C 168.23 161.99 168.83 158.23 170.00 154.60 C 172.70 155.34 175.46 155.85 178.23 156.30 C 178.20 157.03 178.15 158.48 178.12 159.20 C 177.49 162.53 176.99 165.88 176.87 169.27 C 173.71 168.26 170.63 167.04 167.58 165.74 Z" />
</g>
<g id="#b83873ff">
<path fill="#b83873" opacity="1.00" d=" M 83.13 162.96 C 97.53 160.02 112.17 158.31 126.83 157.46 C 128.79 157.85 132.03 156.70 132.70 159.28 C 134.64 164.76 135.99 170.62 139.79 175.21 C 142.79 179.57 148.54 183.06 153.86 180.95 C 160.35 178.09 164.28 171.70 167.58 165.74 C 170.63 167.04 173.71 168.26 176.87 169.27 C 176.87 177.42 178.40 185.65 182.13 192.94 C 188.18 205.69 199.78 215.47 213.20 219.72 C 220.23 222.25 227.79 222.07 235.15 222.12 C 233.18 226.61 231.67 231.30 229.54 235.72 C 227.61 236.24 225.70 236.80 223.80 237.41 C 221.38 234.94 220.19 231.51 217.67 229.17 C 210.26 228.32 203.80 232.82 197.28 235.59 C 195.60 234.34 193.92 233.10 192.22 231.90 C 190.51 237.85 189.10 243.89 187.59 249.90 C 184.81 259.18 182.69 268.65 180.07 277.98 C 178.97 281.89 178.55 285.95 178.60 290.01 C 178.67 299.00 178.61 307.99 178.69 316.98 C 178.27 334.32 178.75 351.68 178.35 369.03 C 178.49 370.84 176.51 371.42 175.24 372.10 C 169.17 373.67 163.36 376.11 157.21 377.36 C 131.36 382.95 104.36 381.32 78.80 375.07 C 74.05 373.87 69.37 372.40 64.57 371.42 C 62.16 367.69 65.00 363.35 64.56 359.31 C 63.03 356.08 60.29 353.66 58.13 350.88 C 45.99 335.44 33.94 319.83 24.13 302.78 C 20.98 296.88 17.51 290.79 16.92 284.01 C 17.40 279.05 19.22 274.36 20.52 269.58 C 28.44 243.91 37.26 218.38 49.11 194.22 C 53.08 186.18 57.43 178.17 63.50 171.50 C 68.51 165.98 76.24 164.70 83.13 162.96 M 119.52 220.48 C 119.80 237.14 119.81 253.82 119.50 270.48 C 130.48 270.12 141.49 270.18 152.47 270.44 C 152.46 269.14 152.46 267.85 152.48 266.56 C 143.47 266.82 134.43 266.85 125.41 266.58 C 125.23 251.22 125.13 235.84 125.48 220.48 C 123.49 220.56 121.50 220.56 119.52 220.48 M 60.84 268.83 C 59.57 271.86 57.74 274.72 57.15 277.99 C 57.26 279.83 58.14 281.50 58.80 283.19 C 62.38 291.53 65.89 299.90 69.49 308.24 C 70.20 306.93 70.61 305.50 70.66 304.02 C 72.23 284.42 74.15 264.86 75.60 245.25 C 76.06 241.15 76.72 237.06 76.65 232.92 C 71.38 244.89 66.01 256.82 60.84 268.83 Z" />
</g>
<g id="#2f3e5dff">
<path fill="#2f3e5d" opacity="1.00" d=" M 261.55 173.56 C 264.30 170.21 268.26 166.78 272.94 167.77 C 276.83 168.90 279.01 172.73 280.89 176.03 C 282.17 179.53 282.72 183.24 282.81 186.97 C 283.02 192.51 284.56 197.87 286.21 203.14 C 284.53 204.50 282.18 205.59 281.78 207.93 C 280.43 212.92 280.08 219.17 275.27 222.24 C 270.15 223.74 265.01 220.92 260.03 219.89 C 259.98 226.26 260.33 232.62 260.63 238.98 C 260.74 244.26 260.12 249.81 257.27 254.38 C 253.64 260.08 244.92 261.88 239.66 257.40 C 233.27 252.10 231.05 243.53 229.54 235.72 C 231.67 231.30 233.18 226.61 235.15 222.12 C 236.62 218.96 237.97 215.73 239.67 212.67 C 241.87 208.65 246.40 206.46 248.33 202.28 C 248.69 198.12 244.60 193.70 247.76 189.81 C 249.79 186.38 254.01 187.48 257.08 188.49 C 258.00 183.41 257.97 177.66 261.55 173.56 Z" />
</g>
<g id="#fbf84bff">
<path fill="#fbf84b" opacity="1.00" d=" M 341.38 188.62 C 350.25 188.44 359.13 188.62 368.00 188.52 C 384.91 187.50 400.28 195.82 415.77 201.32 C 416.77 202.20 417.79 203.08 418.84 203.91 C 418.96 208.91 419.32 213.91 418.93 218.90 C 411.80 221.87 404.94 225.45 398.15 229.11 C 393.32 231.68 388.32 234.48 385.20 239.14 C 383.94 240.66 384.27 242.76 384.27 244.59 C 385.77 265.47 387.57 286.33 389.09 307.21 C 391.12 327.50 391.93 347.89 393.79 368.20 C 394.11 371.57 394.35 375.02 393.46 378.34 C 392.14 378.76 390.83 379.20 389.53 379.66 C 366.66 388.00 342.51 394.05 318.01 393.39 C 309.36 393.27 300.70 392.54 292.23 390.77 C 290.41 390.45 288.58 390.16 286.76 389.90 C 285.29 378.47 283.98 367.01 282.44 355.58 C 281.48 349.00 283.10 342.48 284.01 336.00 C 286.55 316.37 289.40 296.76 290.90 277.01 C 291.31 270.82 292.23 264.24 289.60 258.40 C 287.47 253.75 284.62 249.47 281.62 245.36 C 280.02 243.38 278.33 241.02 275.66 240.54 C 270.70 239.61 265.63 239.52 260.63 238.98 C 260.33 232.62 259.98 226.26 260.03 219.89 C 265.01 220.92 270.15 223.74 275.27 222.24 C 280.08 219.17 280.43 212.92 281.78 207.93 C 282.18 205.59 284.53 204.50 286.21 203.14 C 294.70 198.87 304.02 196.54 312.80 192.93 C 317.75 197.57 324.23 202.44 331.44 200.51 C 337.05 199.21 339.63 193.53 341.38 188.62 M 314.05 243.81 C 313.78 260.62 313.80 277.46 314.07 294.28 C 322.72 294.39 331.38 294.40 340.03 294.26 C 348.17 294.09 354.99 286.15 353.67 278.05 C 353.46 272.88 349.27 269.30 344.86 267.37 C 352.47 263.97 353.98 252.65 347.84 247.19 C 344.78 243.99 340.09 243.89 335.97 243.72 C 328.67 243.74 321.36 243.61 314.05 243.81 Z" />
</g>
<g id="#d57d7bff">
<path fill="#d57d7b" opacity="1.00" d=" M 418.84 203.91 C 419.15 203.78 419.76 203.50 420.07 203.37 C 420.07 204.53 420.10 205.69 420.12 206.86 C 421.38 207.17 422.63 207.53 423.85 207.98 C 429.96 210.75 436.63 207.13 441.39 203.29 C 442.13 207.93 442.81 212.59 443.92 217.16 C 441.85 221.50 438.36 225.98 433.05 225.87 C 427.28 226.93 422.31 223.14 418.93 218.90 C 419.32 213.91 418.96 208.91 418.84 203.91 Z" />
</g>
<g id="#299690ff">
<path fill="#299690" opacity="1.00" d=" M 443.92 217.16 C 453.84 219.80 463.57 223.13 473.21 226.67 C 476.38 227.81 479.44 229.22 482.35 230.93 C 477.52 236.05 473.47 242.16 472.26 249.22 C 468.52 264.62 472.82 280.26 474.65 295.61 C 476.24 304.05 476.23 312.66 476.64 321.21 C 477.32 333.19 475.19 345.06 474.21 356.95 C 473.56 365.26 473.95 373.62 472.91 381.89 C 471.88 390.22 472.52 398.62 472.23 406.98 C 471.94 415.99 472.38 424.99 472.26 434.00 L 397.12 434.00 C 395.06 420.44 393.34 406.83 391.43 393.24 C 392.41 388.31 392.37 383.25 393.46 378.34 C 394.35 375.02 394.11 371.57 393.79 368.20 C 395.45 342.45 398.23 316.67 396.70 290.84 C 394.42 296.41 392.37 302.12 389.09 307.21 C 387.57 286.33 385.77 265.47 384.27 244.59 C 384.27 242.76 383.94 240.66 385.20 239.14 C 388.32 234.48 393.32 231.68 398.15 229.11 C 404.94 225.45 411.80 221.87 418.93 218.90 C 422.31 223.14 427.28 226.93 433.05 225.87 C 438.36 225.98 441.85 221.50 443.92 217.16 M 412.48 263.52 C 412.49 264.84 412.49 266.17 412.48 267.49 C 417.81 267.28 423.15 267.20 428.48 267.50 C 428.63 282.50 428.66 297.51 428.44 312.51 C 430.46 312.41 432.48 312.41 434.50 312.49 C 434.23 297.49 434.24 282.48 434.46 267.48 C 440.14 267.19 445.83 267.29 451.51 267.48 C 451.48 266.16 451.48 264.84 451.51 263.53 C 438.50 263.73 425.48 263.75 412.48 263.52 Z" />
</g>
<g id="#e4857dff">
<path fill="#e4857d" opacity="1.00" d=" M 548.63 217.72 C 550.28 218.00 551.95 218.29 553.59 218.73 C 559.33 220.70 565.72 222.40 569.90 227.09 C 572.37 229.72 572.66 233.43 573.30 236.80 C 568.05 237.71 563.89 241.01 560.29 244.72 C 559.76 244.64 558.69 244.47 558.16 244.39 C 558.29 242.99 558.44 241.60 558.63 240.21 C 557.43 242.69 556.35 247.10 552.72 245.88 C 551.02 244.58 550.49 242.04 552.05 240.42 C 553.11 237.82 555.47 235.85 555.90 233.00 C 553.90 235.38 552.58 238.27 551.18 241.03 C 549.32 241.10 546.86 241.31 545.93 239.27 C 545.25 234.92 548.71 231.53 551.04 228.28 C 549.79 229.84 548.59 231.47 547.04 232.75 C 544.77 233.94 542.40 231.08 543.21 228.93 C 544.28 224.89 546.81 221.44 548.63 217.72 Z" />
</g>
<g id="#505fbcff">
<path fill="#505fbc" opacity="1.00" d=" M 482.35 230.93 C 486.58 227.06 490.97 223.30 495.90 220.33 C 496.84 221.21 497.77 222.11 498.74 222.97 C 503.60 227.09 510.08 224.88 515.60 223.76 C 518.52 233.01 521.98 242.11 526.66 250.63 C 529.58 257.26 534.37 262.75 538.48 268.63 C 545.47 276.79 554.34 284.01 564.98 286.56 C 571.30 287.68 577.78 287.30 584.14 286.88 C 586.41 291.94 586.25 297.59 586.97 302.98 C 587.85 313.31 588.70 323.68 588.28 334.05 C 588.11 338.44 586.52 342.61 584.52 346.47 C 580.31 354.44 575.55 362.10 570.62 369.64 C 568.36 372.59 570.06 376.30 570.51 379.55 C 573.83 397.59 575.89 415.84 578.41 434.00 L 472.26 434.00 C 472.38 424.99 471.94 415.99 472.23 406.98 C 472.52 398.62 471.88 390.22 472.91 381.89 C 473.95 373.62 473.56 365.26 474.21 356.95 C 475.19 345.06 477.32 333.19 476.64 321.21 C 476.23 312.66 476.24 304.05 474.65 295.61 C 472.82 280.26 468.52 264.62 472.26 249.22 C 473.47 242.16 477.52 236.05 482.35 230.93 M 498.66 273.90 C 491.49 276.89 486.49 283.87 484.83 291.32 C 484.74 297.98 483.70 305.14 487.05 311.24 C 490.02 316.55 494.85 320.98 500.63 323.03 C 504.36 323.66 508.20 323.25 511.98 323.29 C 514.82 323.43 517.25 321.41 520.05 321.41 C 522.82 322.43 524.77 324.80 527.23 326.37 C 528.75 326.33 529.41 324.40 530.48 323.51 C 528.53 321.60 525.28 320.58 524.32 318.01 C 527.97 313.00 530.90 307.25 531.32 300.95 C 531.93 292.85 529.97 283.94 523.80 278.25 C 520.27 275.17 515.90 272.41 511.03 272.66 C 506.90 272.72 502.55 272.17 498.66 273.90 Z" />
<path fill="#505fbc" opacity="1.00" d=" M 560.29 244.72 C 563.89 241.01 568.05 237.71 573.30 236.80 C 574.11 240.72 575.73 244.39 576.95 248.19 C 580.12 257.96 581.97 268.10 583.84 278.19 C 584.42 280.63 583.98 283.11 583.54 285.53 C 576.99 282.41 573.06 275.98 569.93 269.73 C 566.17 261.62 562.95 253.25 560.29 244.72 Z" />
<path fill="#505fbc" opacity="1.00" d=" M 490.43 291.99 C 491.33 280.78 505.39 271.94 515.40 278.35 C 521.23 280.87 524.76 286.89 525.63 293.00 C 525.79 298.48 526.35 304.34 523.65 309.36 C 522.54 311.39 521.53 314.21 519.00 314.73 C 516.44 313.61 514.68 311.27 512.71 309.38 C 512.00 310.34 511.28 311.31 510.56 312.26 C 511.96 314.06 514.55 315.56 514.46 318.05 C 512.41 319.85 509.54 319.91 506.97 319.78 C 498.07 319.22 490.04 311.06 490.33 302.02 C 490.38 298.68 490.25 295.33 490.43 291.99 Z" />
</g>
<g id="#e3857cff">
<path fill="#e3857c" opacity="1.00" d=" M 197.28 235.59 C 203.80 232.82 210.26 228.32 217.67 229.17 C 220.19 231.51 221.38 234.94 223.80 237.41 C 223.40 238.79 223.02 240.19 222.44 241.51 C 220.99 242.22 219.27 241.68 217.72 241.74 C 218.54 244.59 221.56 247.81 219.62 250.74 C 217.04 251.58 214.99 249.24 212.96 248.06 C 213.67 250.74 214.32 253.45 214.87 256.17 C 212.52 256.09 210.23 255.48 208.50 253.81 C 207.62 254.50 206.74 255.18 205.87 255.88 C 201.47 252.12 196.62 248.82 190.91 247.44 C 193.23 243.60 194.92 239.41 197.28 235.59 Z" />
</g>
<g id="#e1d6ccff">
<path fill="#e1d6cc" opacity="1.00" d=" M 192.22 231.90 C 193.92 233.10 195.60 234.34 197.28 235.59 C 194.92 239.41 193.23 243.60 190.91 247.44 C 189.83 248.29 188.71 249.10 187.59 249.90 C 189.10 243.89 190.51 237.85 192.22 231.90 Z" />
</g>
<g id="#e0d6cdff">
<path fill="#e0d6cd" opacity="1.00" d=" M 60.84 268.83 C 66.01 256.82 71.38 244.89 76.65 232.92 C 76.72 237.06 76.06 241.15 75.60 245.25 C 74.15 264.86 72.23 284.42 70.66 304.02 C 70.61 305.50 70.20 306.93 69.49 308.24 C 65.89 299.90 62.38 291.53 58.80 283.19 C 58.14 281.50 57.26 279.83 57.15 277.99 C 57.74 274.72 59.57 271.86 60.84 268.83 Z" />
</g>
<g id="#e9a23aff">
<path fill="#e9a23a" opacity="1.00" d=" M 223.80 237.41 C 225.70 236.80 227.61 236.24 229.54 235.72 C 231.05 243.53 233.27 252.10 239.66 257.40 C 244.92 261.88 253.64 260.08 257.27 254.38 C 260.12 249.81 260.74 244.26 260.63 238.98 C 265.63 239.52 270.70 239.61 275.66 240.54 C 278.33 241.02 280.02 243.38 281.62 245.36 C 284.62 249.47 287.47 253.75 289.60 258.40 C 292.23 264.24 291.31 270.82 290.90 277.01 C 289.40 296.76 286.55 316.37 284.01 336.00 C 283.10 342.48 281.48 349.00 282.44 355.58 C 283.98 367.01 285.29 378.47 286.76 389.90 C 287.20 394.71 287.85 399.49 288.65 404.26 C 289.47 414.21 291.12 424.06 292.04 434.00 L 174.99 434.00 C 175.08 433.56 175.26 432.67 175.35 432.23 C 178.34 418.73 180.68 405.10 183.63 391.59 C 186.40 380.66 187.88 369.43 191.32 358.68 C 192.41 353.04 195.83 347.94 195.58 342.06 C 195.69 329.22 192.78 316.60 191.29 303.90 C 186.30 307.50 183.61 313.32 178.69 316.98 C 178.61 307.99 178.67 299.00 178.60 290.01 C 178.55 285.95 178.97 281.89 180.07 277.98 C 182.69 268.65 184.81 259.18 187.59 249.90 C 188.71 249.10 189.83 248.29 190.91 247.44 C 196.62 248.82 201.47 252.12 205.87 255.88 C 206.74 255.18 207.62 254.50 208.50 253.81 C 210.23 255.48 212.52 256.09 214.87 256.17 C 214.32 253.45 213.67 250.74 212.96 248.06 C 214.99 249.24 217.04 251.58 219.62 250.74 C 221.56 247.81 218.54 244.59 217.72 241.74 C 219.27 241.68 220.99 242.22 222.44 241.51 C 223.02 240.19 223.40 238.79 223.80 237.41 M 228.70 293.70 C 222.89 302.63 221.80 314.79 226.59 324.40 C 229.77 330.16 235.07 335.22 241.71 336.51 C 249.58 338.56 258.41 336.26 263.86 330.13 C 264.41 332.01 264.95 333.89 265.46 335.79 C 266.90 335.88 268.34 335.92 269.79 336.01 C 269.88 327.11 269.97 318.21 269.76 309.32 C 262.51 309.40 255.25 309.39 248.00 309.29 C 247.89 311.20 247.83 313.12 247.80 315.04 C 253.20 315.17 258.60 315.08 264.00 315.16 C 263.91 318.64 263.16 322.16 260.98 324.96 C 255.49 333.60 241.38 333.68 235.15 325.84 C 231.10 321.29 230.13 314.91 230.51 309.03 C 230.84 303.50 232.40 297.50 236.85 293.84 C 242.18 288.95 250.71 288.82 256.84 292.21 C 260.22 294.02 261.41 297.78 263.25 300.86 C 265.24 301.28 267.29 301.10 269.31 301.06 C 268.51 295.07 265.06 289.11 259.35 286.64 C 249.18 281.92 235.13 283.82 228.70 293.70 Z" />
</g>
<g id="#fbf849ff">
<path fill="#fbf849" opacity="1.00" d=" M 320.96 249.31 C 326.57 249.61 332.20 249.14 337.81 249.56 C 340.63 249.81 343.86 251.34 344.53 254.35 C 345.44 258.01 344.84 263.23 340.65 264.50 C 334.19 266.27 327.37 265.25 320.76 265.31 C 320.75 259.98 320.45 254.63 320.96 249.31 Z" />
</g>
<g id="#fbf84aff">
<path fill="#fbf84a" opacity="1.00" d=" M 320.83 271.16 C 326.54 271.30 332.25 271.00 337.95 271.30 C 340.45 271.55 343.30 271.95 345.01 274.01 C 349.11 278.51 346.73 287.37 340.41 288.35 C 333.96 289.09 327.44 288.39 320.97 288.72 C 320.46 282.89 320.70 277.01 320.83 271.16 Z" />
</g>
<g id="#293857ff">
<path fill="#293857" opacity="1.00" d=" M 228.70 293.70 C 235.13 283.82 249.18 281.92 259.35 286.64 C 265.06 289.11 268.51 295.07 269.31 301.06 C 267.29 301.10 265.24 301.28 263.25 300.86 C 261.41 297.78 260.22 294.02 256.84 292.21 C 250.71 288.82 242.18 288.95 236.85 293.84 C 232.40 297.50 230.84 303.50 230.51 309.03 C 230.13 314.91 231.10 321.29 235.15 325.84 C 241.38 333.68 255.49 333.60 260.98 324.96 C 263.16 322.16 263.91 318.64 264.00 315.16 C 258.60 315.08 253.20 315.17 247.80 315.04 C 247.83 313.12 247.89 311.20 248.00 309.29 C 255.25 309.39 262.51 309.40 269.76 309.32 C 269.97 318.21 269.88 327.11 269.79 336.01 C 268.34 335.92 266.90 335.88 265.46 335.79 C 264.95 333.89 264.41 332.01 263.86 330.13 C 258.41 336.26 249.58 338.56 241.71 336.51 C 235.07 335.22 229.77 330.16 226.59 324.40 C 221.80 314.79 222.89 302.63 228.70 293.70 Z" />
</g>
<g id="#dfd4ccff">
<path fill="#dfd4cc" opacity="1.00" d=" M 389.09 307.21 C 392.37 302.12 394.42 296.41 396.70 290.84 C 398.23 316.67 395.45 342.45 393.79 368.20 C 391.93 347.89 391.12 327.50 389.09 307.21 Z" />
</g>
<g id="#e1d7d2ff">
<path fill="#e1d7d2" opacity="1.00" d=" M 389.53 379.66 C 390.83 379.20 392.14 378.76 393.46 378.34 C 392.37 383.25 392.41 388.31 391.43 393.24 C 390.72 388.72 390.15 384.19 389.53 379.66 Z" />
</g>
<g id="#e1d7c7ff">
<path fill="#e1d7c7" opacity="1.00" d=" M 286.76 389.90 C 288.58 390.16 290.41 390.45 292.23 390.77 C 291.77 390.85 290.85 391.01 290.39 391.09 C 289.75 395.47 289.29 399.88 288.65 404.26 C 287.85 399.49 287.20 394.71 286.76 389.90 Z" />
</g>
<g id="#dfd3ccff">
<path fill="#dfd3cc" opacity="1.00" d=" M 115.97 434.00 C 117.38 428.27 118.03 422.38 119.75 416.72 C 120.61 422.45 120.81 428.24 121.31 434.00 L 115.97 434.00 Z" />
</g>
<g id="#ded5cbff">
<path fill="#ded5cb" opacity="1.00" d=" M 338.08 434.00 C 339.42 428.60 339.53 422.94 341.43 417.68 C 343.20 423.06 344.32 428.63 346.13 434.00 L 338.08 434.00 Z" />
</g>
</svg>
