<?xml version="1.0" encoding="UTF-8" ?>
<!DOCTYPE svg PUBLIC "-//W3C//DTD SVG 1.1//EN" "http://www.w3.org/Graphics/SVG/1.1/DTD/svg11.dtd">
<svg width="612pt" height="612pt" viewBox="0 0 612 612" version="1.1" xmlns="http://www.w3.org/2000/svg">
<g id="#ffffffff">
<path fill="#ffffff" opacity="1.00" d=" M 0.00 0.00 L 612.00 0.00 L 612.00 612.00 L 0.00 612.00 L 0.00 0.00 M 394.85 133.04 C 376.53 143.59 358.35 154.58 338.80 162.77 C 331.89 165.49 324.77 167.99 317.35 168.83 C 315.70 166.04 317.38 161.92 315.58 159.47 C 292.07 148.83 263.76 151.01 241.35 163.41 C 227.29 171.38 213.52 179.89 199.06 187.13 C 180.73 196.36 160.83 204.48 139.94 203.75 C 129.91 203.61 120.20 200.45 111.32 195.97 C 113.45 210.04 115.99 224.04 118.41 238.07 C 120.66 251.44 123.00 264.79 125.23 278.16 C 127.34 291.55 130.06 304.84 132.03 318.26 C 134.48 331.78 136.72 345.35 139.08 358.90 C 141.41 372.52 143.66 386.17 146.11 399.77 C 147.74 410.20 149.70 420.57 151.37 431.00 C 151.75 433.11 151.94 435.29 152.73 437.31 C 156.71 440.62 161.90 441.98 166.75 443.48 C 187.90 448.96 210.22 443.66 229.57 434.55 C 246.65 425.94 263.24 416.39 279.82 406.86 C 289.27 401.57 299.90 398.97 310.45 396.94 C 311.07 399.78 311.97 402.56 312.83 405.34 L 313.66 405.15 C 321.66 409.78 330.92 411.81 340.06 412.49 C 356.87 413.58 373.62 408.99 388.57 401.54 C 407.11 391.81 424.97 380.77 444.06 372.10 C 459.59 365.08 476.77 360.45 493.93 362.41 C 501.58 363.10 509.00 365.22 516.31 367.51 C 514.56 354.35 511.49 341.39 510.00 328.21 L 509.40 328.03 C 508.45 318.66 506.27 309.47 504.90 300.15 C 504.07 296.05 503.81 291.82 502.55 287.82 C 500.56 274.20 498.28 260.59 495.52 247.12 C 493.90 233.87 491.00 220.82 488.97 207.64 C 486.76 193.67 483.83 179.80 482.08 165.77 L 481.54 165.66 C 479.88 153.41 477.45 141.28 475.51 129.07 C 475.51 126.94 473.37 126.01 471.74 125.25 C 464.48 122.28 456.82 120.18 448.97 119.69 C 430.06 118.15 411.20 123.77 394.85 133.04 M 79.88 157.91 C 72.22 163.56 71.03 175.62 77.21 182.79 C 79.59 186.09 83.62 187.21 87.09 188.93 C 88.40 191.44 88.33 194.46 88.90 197.21 C 109.33 319.97 130.00 442.69 150.26 565.48 C 154.08 564.74 157.96 564.36 161.78 563.60 C 140.99 438.07 119.77 312.60 99.07 187.05 C 106.88 182.50 110.46 171.97 106.19 163.83 C 101.80 154.22 87.95 151.02 79.88 157.91 Z" />
</g>
<g id="#e52c2aff">
<path fill="#e52c2a" opacity="1.00" d=" M 394.85 133.04 C 411.20 123.77 430.06 118.15 448.97 119.69 C 456.82 120.18 464.48 122.28 471.74 125.25 C 473.37 126.01 475.51 126.94 475.51 129.07 C 477.45 141.28 479.88 153.41 481.54 165.66 C 471.99 163.94 462.78 160.39 452.96 160.31 C 433.26 159.85 413.45 165.45 396.62 175.62 C 384.55 183.29 371.70 189.61 358.85 195.84 C 347.62 200.98 336.25 206.21 324.02 208.46 C 323.58 205.78 323.11 203.10 322.60 200.44 C 315.46 196.95 307.90 194.10 299.96 193.19 C 285.20 191.57 270.14 193.82 256.32 199.22 C 244.29 203.25 233.08 209.40 222.83 216.84 C 212.14 223.48 201.26 230.03 189.43 234.44 C 174.19 240.82 157.47 244.04 140.95 242.91 C 133.22 242.50 125.84 240.03 118.41 238.07 C 115.99 224.04 113.45 210.04 111.32 195.97 C 120.20 200.45 129.91 203.61 139.94 203.75 C 160.83 204.48 180.73 196.36 199.06 187.13 C 213.52 179.89 227.29 171.38 241.35 163.41 C 263.76 151.01 292.07 148.83 315.58 159.47 C 317.38 161.92 315.70 166.04 317.35 168.83 C 324.77 167.99 331.89 165.49 338.80 162.77 C 358.35 154.58 376.53 143.59 394.85 133.04 Z" />
</g>
<g id="#605f60ff">
<path fill="#605f60" opacity="1.00" d=" M 79.88 157.91 C 87.95 151.02 101.80 154.22 106.19 163.83 C 110.46 171.97 106.88 182.50 99.07 187.05 C 119.77 312.60 140.99 438.07 161.78 563.60 C 157.96 564.36 154.08 564.74 150.26 565.48 C 130.00 442.69 109.33 319.97 88.90 197.21 C 88.33 194.46 88.40 191.44 87.09 188.93 C 83.62 187.21 79.59 186.09 77.21 182.79 C 71.03 175.62 72.22 163.56 79.88 157.91 Z" />
<path fill="#605f60" opacity="1.00" d=" M 310.45 396.94 C 322.92 394.51 336.03 395.26 348.25 398.77 C 336.93 401.98 325.07 402.34 313.66 405.15 L 312.83 405.34 C 311.97 402.56 311.07 399.78 310.45 396.94 Z" />
</g>
<g id="#f66021ff">
<path fill="#f66021" opacity="1.00" d=" M 396.62 175.62 C 413.45 165.45 433.26 159.85 452.96 160.31 C 462.78 160.39 471.99 163.94 481.54 165.66 L 482.08 165.77 C 483.83 179.80 486.76 193.67 488.97 207.64 C 478.78 202.63 467.23 201.16 456.00 201.15 C 438.68 200.91 421.61 206.24 406.61 214.66 C 390.78 224.27 374.33 232.86 357.41 240.40 C 348.90 243.94 340.29 247.38 331.23 249.21 C 330.89 246.74 330.77 244.21 330.03 241.81 C 327.71 239.62 324.59 238.57 321.67 237.46 C 306.87 231.89 290.32 232.04 275.18 236.17 C 258.79 240.27 243.39 247.85 229.63 257.59 C 206.64 272.70 179.97 284.54 151.95 283.75 C 142.76 283.72 133.81 281.29 125.23 278.16 C 123.00 264.79 120.66 251.44 118.41 238.07 C 125.84 240.03 133.22 242.50 140.95 242.91 C 157.47 244.04 174.19 240.82 189.43 234.44 C 201.26 230.03 212.14 223.48 222.83 216.84 C 233.08 209.40 244.29 203.25 256.32 199.22 C 270.14 193.82 285.20 191.57 299.96 193.19 C 307.90 194.10 315.46 196.95 322.60 200.44 C 323.11 203.10 323.58 205.78 324.02 208.46 C 336.25 206.21 347.62 200.98 358.85 195.84 C 371.70 189.61 384.55 183.29 396.62 175.62 Z" />
</g>
<g id="#fed403ff">
<path fill="#fed403" opacity="1.00" d=" M 406.61 214.66 C 421.61 206.24 438.68 200.91 456.00 201.15 C 467.23 201.16 478.78 202.63 488.97 207.64 C 491.00 220.82 493.90 233.87 495.52 247.12 C 485.90 244.31 476.07 241.82 465.99 241.71 C 446.22 241.46 426.43 247.21 409.76 257.81 C 399.25 264.23 388.09 269.49 377.23 275.28 C 364.72 281.05 352.12 287.04 338.58 289.96 C 337.81 286.88 338.70 282.42 335.17 280.88 C 322.32 274.20 307.24 272.82 293.03 274.76 C 277.18 277.28 261.90 283.00 248.04 291.05 C 242.14 294.80 236.46 298.90 230.42 302.46 C 211.78 313.85 191.00 322.59 169.03 324.28 C 156.44 325.25 143.60 323.39 132.03 318.26 C 130.06 304.84 127.34 291.55 125.23 278.16 C 133.81 281.29 142.76 283.72 151.95 283.75 C 179.97 284.54 206.64 272.70 229.63 257.59 C 243.39 247.85 258.79 240.27 275.18 236.17 C 290.32 232.04 306.87 231.89 321.67 237.46 C 324.59 238.57 327.71 239.62 330.03 241.81 C 330.77 244.21 330.89 246.74 331.23 249.21 C 340.29 247.38 348.90 243.94 357.41 240.40 C 374.33 232.86 390.78 224.27 406.61 214.66 Z" />
</g>
<g id="#52ba3fff">
<path fill="#52ba3f" opacity="1.00" d=" M 409.76 257.81 C 426.43 247.21 446.22 241.46 465.99 241.71 C 476.07 241.82 485.90 244.31 495.52 247.12 C 498.28 260.59 500.56 274.20 502.55 287.82 C 483.23 280.43 461.46 280.26 441.86 286.68 C 426.01 290.93 413.00 301.38 398.49 308.57 C 381.48 317.12 364.34 326.04 345.67 330.33 C 345.04 327.31 346.06 322.83 342.58 321.33 C 329.96 314.35 315.02 313.55 300.96 314.99 C 282.15 317.57 264.44 325.43 248.53 335.57 C 232.98 346.74 215.60 355.45 197.26 360.97 C 179.83 365.37 160.71 367.13 143.62 360.44 C 142.10 359.92 140.59 359.41 139.08 358.90 C 136.72 345.35 134.48 331.78 132.03 318.26 C 143.60 323.39 156.44 325.25 169.03 324.28 C 191.00 322.59 211.78 313.85 230.42 302.46 C 236.46 298.90 242.14 294.80 248.04 291.05 C 261.90 283.00 277.18 277.28 293.03 274.76 C 307.24 272.82 322.32 274.20 335.17 280.88 C 338.70 282.42 337.81 286.88 338.58 289.96 C 352.12 287.04 364.72 281.05 377.23 275.28 C 388.09 269.49 399.25 264.23 409.76 257.81 Z" />
</g>
<g id="#1676c0ff">
<path fill="#1676c0" opacity="1.00" d=" M 441.86 286.68 C 461.46 280.26 483.23 280.43 502.55 287.82 C 503.81 291.82 504.07 296.05 504.90 300.15 C 506.27 309.47 508.45 318.66 509.40 328.03 C 493.16 322.53 475.50 321.06 458.68 324.66 C 453.17 325.90 447.77 327.57 442.49 329.55 C 432.30 333.37 423.24 339.51 413.78 344.78 C 402.09 351.30 390.10 357.31 377.82 362.64 C 369.61 366.03 361.30 369.34 352.52 370.92 C 351.96 367.77 353.24 363.01 349.50 361.53 C 338.20 356.14 325.42 354.05 312.96 355.18 C 294.21 356.51 276.39 363.88 260.33 373.30 C 242.25 385.89 222.66 396.98 201.11 402.24 C 190.03 405.26 178.39 405.95 166.97 405.00 C 159.77 404.44 153.01 401.71 146.11 399.77 C 143.66 386.17 141.41 372.52 139.08 358.90 C 140.59 359.41 142.10 359.92 143.62 360.44 C 160.71 367.13 179.83 365.37 197.26 360.97 C 215.60 355.45 232.98 346.74 248.53 335.57 C 264.44 325.43 282.15 317.57 300.96 314.99 C 315.02 313.55 329.96 314.35 342.58 321.33 C 346.06 322.83 345.04 327.31 345.67 330.33 C 364.34 326.04 381.48 317.12 398.49 308.57 C 413.00 301.38 426.01 290.93 441.86 286.68 Z" />
</g>
<g id="#67429fff">
<path fill="#67429f" opacity="1.00" d=" M 458.68 324.66 C 475.50 321.06 493.16 322.53 509.40 328.03 L 510.00 328.21 C 511.49 341.39 514.56 354.35 516.31 367.51 C 509.00 365.22 501.58 363.10 493.93 362.41 C 476.77 360.45 459.59 365.08 444.06 372.10 C 424.97 380.77 407.11 391.81 388.57 401.54 C 373.62 408.99 356.87 413.58 340.06 412.49 C 330.92 411.81 321.66 409.78 313.66 405.15 C 325.07 402.34 336.93 401.98 348.25 398.77 C 336.03 395.26 322.92 394.51 310.45 396.94 C 299.90 398.97 289.27 401.57 279.82 406.86 C 263.24 416.39 246.65 425.94 229.57 434.55 C 210.22 443.66 187.90 448.96 166.75 443.48 C 161.90 441.98 156.71 440.62 152.73 437.31 C 151.94 435.29 151.75 433.11 151.37 431.00 C 149.70 420.57 147.74 410.20 146.11 399.77 C 153.01 401.71 159.77 404.44 166.97 405.00 C 178.39 405.95 190.03 405.26 201.11 402.24 C 222.66 396.98 242.25 385.89 260.33 373.30 C 276.39 363.88 294.21 356.51 312.96 355.18 C 325.42 354.05 338.20 356.14 349.50 361.53 C 353.24 363.01 351.96 367.77 352.52 370.92 C 361.30 369.34 369.61 366.03 377.82 362.64 C 390.10 357.31 402.09 351.30 413.78 344.78 C 423.24 339.51 432.30 333.37 442.49 329.55 C 447.77 327.57 453.17 325.90 458.68 324.66 Z" />
</g>
</svg>
