<?xml version="1.0" encoding="UTF-8" ?>
<!DOCTYPE svg PUBLIC "-//W3C//DTD SVG 1.1//EN" "http://www.w3.org/Graphics/SVG/1.1/DTD/svg11.dtd">
<svg width="800pt" height="600pt" viewBox="0 0 800 600" version="1.1" xmlns="http://www.w3.org/2000/svg">
<g id="#ffffffff">
<path fill="#ffffff" opacity="1.00" d=" M 0.00 0.00 L 800.00 0.00 L 800.00 600.00 L 0.00 600.00 L 0.00 0.00 M 358.20 40.23 C 351.88 41.16 345.66 43.33 339.68 45.61 C 339.01 44.78 338.35 43.95 337.70 43.12 C 337.02 43.14 335.65 43.18 334.97 43.20 C 336.78 58.87 339.75 74.39 341.90 90.01 C 344.45 106.03 346.78 122.08 349.25 138.10 C 352.20 155.71 354.32 173.47 357.71 190.99 L 357.36 191.11 L 357.43 191.89 L 356.32 191.44 C 353.71 192.85 351.03 194.17 348.70 196.03 C 346.63 196.68 347.52 198.95 347.62 200.51 C 348.33 200.50 349.76 200.48 350.48 200.47 C 350.60 201.75 350.73 203.03 350.86 204.31 L 350.65 205.05 L 351.17 205.40 C 351.41 207.80 351.91 210.17 352.60 212.48 C 354.32 212.41 356.06 212.36 357.79 212.33 C 358.07 219.95 357.39 227.60 357.47 235.20 L 357.20 234.75 C 355.73 252.20 352.40 269.45 351.36 286.95 C 350.98 291.88 352.60 296.64 354.59 301.07 C 345.30 298.07 335.76 295.87 326.11 294.38 C 324.25 294.18 322.36 293.67 320.51 294.05 C 314.54 293.26 308.44 293.22 302.48 294.04 C 287.23 294.76 272.38 300.54 259.45 308.54 C 241.55 319.80 227.10 335.59 213.97 351.98 C 197.61 372.61 183.02 394.56 167.83 416.06 L 167.32 417.09 L 167.10 417.02 C 163.38 422.31 159.76 427.69 155.72 432.76 C 160.39 442.69 166.32 452.13 173.88 460.11 C 177.16 464.12 180.86 467.86 184.83 471.20 C 191.59 477.81 199.29 483.37 207.00 488.81 C 200.77 495.02 193.47 500.33 185.09 503.23 C 169.30 508.66 152.30 506.92 135.93 506.33 C 136.01 506.64 136.18 507.25 136.27 507.55 C 138.17 509.06 139.90 510.80 141.91 512.19 C 159.26 527.19 178.79 539.50 198.60 550.97 C 202.21 547.11 205.91 543.33 209.78 539.73 C 212.37 537.50 215.19 534.87 218.87 535.03 C 220.48 543.39 215.37 551.04 211.18 557.83 C 213.14 558.87 215.10 559.93 217.05 561.00 C 221.59 556.37 225.86 551.49 230.18 546.66 L 230.09 546.32 C 238.27 536.97 244.33 526.02 249.79 514.93 L 249.64 514.80 C 249.83 514.40 250.20 513.61 250.38 513.21 C 252.61 508.56 254.37 503.72 256.29 498.94 L 256.25 498.87 C 256.38 498.47 256.63 497.67 256.76 497.28 C 261.02 486.37 264.02 475.02 268.23 464.10 C 276.05 443.41 285.67 423.00 300.04 406.01 C 310.45 393.70 324.59 383.62 340.97 381.81 L 340.83 381.53 C 347.46 381.30 354.11 381.16 360.74 381.66 C 369.66 383.25 378.85 383.83 387.44 386.88 C 389.26 397.52 390.57 408.23 392.35 418.88 C 393.45 418.72 394.55 418.56 395.66 418.41 C 394.34 408.01 392.32 397.72 390.97 387.33 C 415.43 393.51 439.00 402.59 462.64 411.27 C 462.69 411.55 462.78 412.11 462.83 412.39 C 458.29 420.91 454.59 429.84 450.56 438.60 C 443.57 454.68 436.42 470.87 432.76 488.09 C 429.45 502.07 433.18 516.80 439.76 529.25 C 447.10 543.03 459.78 554.19 474.97 558.33 C 489.31 562.54 504.94 561.32 518.78 555.88 C 537.39 548.73 553.41 536.35 568.10 523.13 C 581.21 511.41 592.99 498.33 604.90 485.42 C 605.03 485.16 605.28 484.62 605.40 484.36 C 609.59 480.26 613.22 475.64 617.11 471.26 C 607.62 457.13 597.50 443.26 585.31 431.31 L 586.21 430.28 C 586.79 430.47 587.95 430.85 588.54 431.04 L 588.04 429.27 C 591.18 428.44 594.35 427.71 597.56 427.19 C 610.21 426.48 622.66 429.83 634.36 434.37 C 624.87 419.61 614.05 405.62 601.62 393.20 C 598.35 396.43 594.96 399.85 590.57 401.48 C 588.48 402.24 586.99 399.85 587.65 398.00 C 588.77 393.80 591.59 390.34 594.15 386.93 C 593.33 386.13 592.52 385.33 591.71 384.53 C 582.84 392.54 574.28 400.97 566.41 409.97 L 565.48 409.54 L 566.01 411.16 L 564.64 410.58 L 565.16 411.17 C 561.50 414.90 558.12 418.90 554.70 422.85 C 554.49 423.12 554.07 423.65 553.86 423.92 C 541.50 438.09 530.47 453.38 520.13 469.07 C 516.68 473.88 513.62 479.13 509.03 482.96 C 506.91 484.85 503.11 485.21 501.57 482.43 C 499.43 478.25 500.94 473.34 502.22 469.11 C 508.69 449.81 516.30 430.92 523.83 412.02 C 526.64 404.42 528.97 396.56 529.78 388.48 C 535.91 383.33 542.52 378.78 548.54 373.50 C 559.26 364.35 567.93 352.91 574.18 340.29 C 578.46 330.77 576.88 318.99 570.28 310.92 C 564.00 303.38 554.48 299.78 545.89 295.60 C 545.53 295.49 544.81 295.26 544.45 295.15 C 543.29 294.58 542.14 294.02 540.99 293.46 C 534.38 302.39 529.25 312.25 524.30 322.15 C 525.63 322.93 526.98 323.69 528.33 324.46 C 531.29 325.81 534.36 326.98 537.11 328.76 C 537.54 328.80 538.42 328.89 538.85 328.93 C 538.75 329.40 538.56 330.35 538.46 330.83 L 538.06 331.01 C 533.67 338.40 529.26 345.78 525.09 353.29 C 524.80 352.71 524.21 351.55 523.92 350.97 C 523.50 350.13 523.10 349.29 522.70 348.46 C 520.24 344.07 517.34 339.96 514.19 336.05 L 513.94 336.03 C 513.69 335.51 513.20 334.49 512.96 333.98 C 513.06 333.31 513.27 331.98 513.38 331.31 C 513.83 331.11 514.72 330.72 515.17 330.53 C 516.65 330.24 518.13 329.94 519.61 329.60 L 520.05 329.73 C 519.92 326.51 519.70 323.30 519.41 320.11 C 520.88 320.56 522.35 321.02 523.83 321.48 C 527.95 311.56 533.27 302.08 539.84 293.56 C 537.42 291.89 534.55 291.16 531.79 290.26 C 520.16 286.37 508.12 283.87 496.02 281.96 C 492.76 281.63 489.50 281.26 486.31 280.56 C 486.75 277.67 487.09 274.78 487.26 271.87 C 489.01 270.53 491.43 269.37 491.65 266.88 C 492.15 264.68 490.63 262.93 489.06 261.66 L 489.31 261.51 C 491.35 259.63 493.39 256.94 492.68 254.00 C 492.20 252.36 490.22 251.80 488.79 252.57 C 488.96 249.29 489.04 246.00 489.47 242.74 L 490.01 241.12 C 495.76 240.46 501.41 238.97 506.75 236.74 C 509.62 235.54 512.02 233.32 513.57 230.64 C 536.21 240.75 561.18 246.21 586.03 244.54 C 604.73 243.23 623.36 238.06 639.54 228.48 C 639.92 223.12 638.96 217.63 638.61 212.24 C 637.98 203.51 636.76 194.85 635.45 186.21 C 634.16 177.05 632.53 167.88 630.77 158.84 L 630.05 158.62 L 630.46 158.07 C 628.79 147.28 626.29 136.61 623.96 125.93 C 622.09 116.99 620.05 108.09 618.02 99.19 C 616.36 91.36 614.42 83.60 612.87 75.75 C 599.97 82.96 586.06 88.53 571.47 91.11 C 547.09 95.75 521.62 91.51 499.09 81.51 C 487.66 76.62 477.02 70.14 466.55 63.50 C 451.72 54.16 436.27 45.34 419.27 40.65 C 417.13 40.15 414.98 39.12 412.78 39.27 C 394.95 34.80 375.90 35.63 358.20 40.23 Z" />
<path fill="#ffffff" opacity="1.00" d=" M 357.50 169.23 C 365.55 167.43 373.74 166.15 381.99 165.73 C 400.17 164.79 418.44 169.66 434.04 178.97 C 453.84 190.68 470.75 206.58 490.36 218.60 C 488.28 222.32 486.70 226.31 485.58 230.42 C 484.89 232.51 484.56 235.06 482.34 236.13 C 477.41 237.59 472.05 238.49 468.17 242.18 C 462.41 247.66 465.12 256.63 461.10 262.94 C 463.83 265.60 462.23 269.85 464.08 272.93 C 466.63 274.53 469.73 273.18 472.36 272.52 C 472.39 274.88 472.42 277.24 472.48 279.60 C 468.89 279.43 465.29 279.32 461.70 279.08 C 453.62 278.52 445.51 278.61 437.42 278.67 C 437.81 289.93 439.93 301.14 442.86 312.01 C 445.13 311.86 447.40 311.68 449.69 311.69 L 450.53 311.89 C 450.77 317.81 452.96 323.40 455.30 328.77 C 457.77 329.39 460.25 329.93 462.74 330.50 C 463.70 333.69 464.86 336.82 466.19 339.88 C 466.71 341.17 467.24 342.46 467.77 343.75 C 470.67 343.67 473.56 343.66 476.46 343.59 C 476.14 343.80 475.51 344.23 475.20 344.44 C 472.61 344.62 470.02 344.47 467.44 344.37 C 467.34 345.03 467.13 346.34 467.03 347.00 C 466.44 350.79 466.31 354.62 466.19 358.45 C 441.92 341.37 416.10 326.42 388.99 314.32 C 401.47 314.22 413.97 313.75 426.41 312.78 C 430.30 312.42 434.21 312.45 438.11 312.29 C 438.96 312.25 440.65 312.17 441.50 312.13 C 439.03 301.10 436.98 289.98 436.19 278.69 C 435.19 278.72 433.19 278.76 432.19 278.79 C 430.39 278.83 428.60 278.86 426.81 278.87 C 423.43 278.79 420.05 279.03 416.68 279.23 C 411.28 279.41 405.88 279.61 400.48 279.90 C 394.57 280.14 388.66 280.36 382.75 280.64 C 380.78 259.68 377.12 238.91 372.37 218.40 C 370.20 208.43 366.87 198.77 363.64 189.10 C 363.25 189.20 362.47 189.40 362.08 189.49 C 361.68 189.37 360.88 189.13 360.48 189.01 C 359.48 182.42 358.61 175.80 357.50 169.23 Z" />
<path fill="#ffffff" opacity="1.00" d=" M 488.32 262.11 C 489.10 263.35 490.29 264.45 490.55 265.97 C 490.62 268.04 488.80 269.30 487.48 270.58 C 487.66 267.75 487.94 264.92 488.32 262.11 Z" />
<path fill="#ffffff" opacity="1.00" d=" M 464.20 265.07 C 465.07 265.83 466.44 266.23 466.83 267.42 C 466.05 267.88 465.26 268.32 464.47 268.75 C 464.37 267.52 464.28 266.29 464.20 265.07 Z" />
</g>
<g id="#e11111ff">
<path fill="#e11111" opacity="1.00" d=" M 358.20 40.23 C 375.90 35.63 394.95 34.80 412.78 39.27 C 409.31 40.92 405.56 39.39 401.99 39.06 C 389.18 37.42 376.12 38.16 363.46 40.68 C 361.69 41.14 359.89 40.80 358.20 40.23 Z" />
</g>
<g id="#e31a1aff">
<path fill="#e31a1a" opacity="1.00" d=" M 363.46 40.68 C 376.12 38.16 389.18 37.42 401.99 39.06 C 405.56 39.39 409.31 40.92 412.78 39.27 C 414.98 39.12 417.13 40.15 419.27 40.65 C 436.27 45.34 451.72 54.16 466.55 63.50 C 477.02 70.14 487.66 76.62 499.09 81.51 C 521.62 91.51 547.09 95.75 571.47 91.11 C 586.06 88.53 599.97 82.96 612.87 75.75 C 614.42 83.60 616.36 91.36 618.02 99.19 C 600.22 109.95 579.83 117.09 558.91 117.43 C 539.98 118.11 521.21 113.52 503.92 106.03 C 487.75 99.10 472.87 89.59 458.45 79.62 C 440.28 67.30 420.14 56.85 398.10 54.04 C 378.88 51.89 359.32 53.90 340.66 58.80 C 340.01 54.56 339.20 50.36 338.64 46.11 C 338.90 45.98 339.42 45.73 339.68 45.61 C 345.66 43.33 351.88 41.16 358.20 40.23 C 359.89 40.80 361.69 41.14 363.46 40.68 Z" />
</g>
<g id="#f8cb9fff">
<path fill="#f8cb9f" opacity="1.00" d=" M 334.97 43.20 C 335.65 43.18 337.02 43.14 337.70 43.12 C 338.35 43.95 339.01 44.78 339.68 45.61 C 339.42 45.73 338.90 45.98 338.64 46.11 C 339.20 50.36 340.01 54.56 340.66 58.80 C 341.55 64.60 342.29 70.43 343.33 76.21 C 344.29 81.80 344.93 87.43 345.84 93.02 C 347.06 99.95 347.92 106.94 349.06 113.89 C 350.51 122.87 351.75 131.89 353.24 140.86 C 354.53 150.34 356.23 159.75 357.50 169.23 C 358.61 175.80 359.48 182.42 360.48 189.01 C 360.88 189.13 361.68 189.37 362.08 189.49 C 360.60 189.95 359.15 190.47 357.71 190.99 C 354.32 173.47 352.20 155.71 349.25 138.10 C 346.78 122.08 344.45 106.03 341.90 90.01 C 339.75 74.39 336.78 58.87 334.97 43.20 Z" />
</g>
<g id="#fe891aff">
<path fill="#fe891a" opacity="1.00" d=" M 340.66 58.80 C 359.32 53.90 378.88 51.89 398.10 54.04 C 420.14 56.85 440.28 67.30 458.45 79.62 C 472.87 89.59 487.75 99.10 503.92 106.03 C 521.21 113.52 539.98 118.11 558.91 117.43 C 579.83 117.09 600.22 109.95 618.02 99.19 C 620.05 108.09 622.09 116.99 623.96 125.93 C 606.28 136.66 585.74 142.98 564.99 142.95 C 540.56 143.34 516.55 136.04 494.91 125.08 C 480.04 117.60 466.18 108.19 453.49 97.43 C 423.20 72.74 380.60 66.23 343.33 76.21 C 342.29 70.43 341.55 64.60 340.66 58.80 Z" />
<path fill="#fe891a" opacity="1.00" d=" M 481.13 266.06 C 480.76 262.95 483.73 261.21 486.32 260.53 C 484.47 262.47 480.83 264.46 482.34 267.67 C 483.04 269.91 485.40 270.47 487.48 270.58 C 488.80 269.30 490.62 268.04 490.55 265.97 C 490.29 264.45 489.10 263.35 488.32 262.11 C 488.50 262.00 488.88 261.77 489.06 261.66 C 490.63 262.93 492.15 264.68 491.65 266.88 C 491.43 269.37 489.01 270.53 487.26 271.87 C 484.36 271.28 480.64 269.67 481.13 266.06 Z" />
</g>
<g id="#fed21aff">
<path fill="#fed21a" opacity="1.00" d=" M 343.33 76.21 C 380.60 66.23 423.20 72.74 453.49 97.43 C 466.18 108.19 480.04 117.60 494.91 125.08 C 516.55 136.04 540.56 143.34 564.99 142.95 C 585.74 142.98 606.28 136.66 623.96 125.93 C 626.29 136.61 628.79 147.28 630.46 158.07 L 630.05 158.62 C 610.78 166.80 590.02 171.95 568.99 171.73 C 532.49 171.92 497.28 157.20 468.32 135.68 C 460.87 130.19 453.84 124.17 447.12 117.82 C 436.82 108.15 424.94 99.89 411.50 95.30 C 390.39 87.99 367.53 89.63 345.84 93.02 C 344.93 87.43 344.29 81.80 343.33 76.21 Z" />
</g>
<g id="#639a34ff">
<path fill="#639a34" opacity="1.00" d=" M 345.84 93.02 C 367.53 89.63 390.39 87.99 411.50 95.30 C 424.94 99.89 436.82 108.15 447.12 117.82 C 453.84 124.17 460.87 130.19 468.32 135.68 C 497.28 157.20 532.49 171.92 568.99 171.73 C 590.02 171.95 610.78 166.80 630.05 158.62 L 630.77 158.84 C 632.53 167.88 634.16 177.05 635.45 186.21 C 613.24 195.25 588.92 199.03 565.00 197.40 C 522.68 194.20 482.68 175.37 450.04 148.79 C 442.46 142.78 436.03 135.45 428.26 129.68 C 413.33 118.24 395.02 110.56 376.05 110.31 C 366.92 110.03 357.79 111.25 349.06 113.89 C 347.92 106.94 347.06 99.95 345.84 93.02 Z" />
</g>
<g id="#226db5ff">
<path fill="#226db5" opacity="1.00" d=" M 349.06 113.89 C 357.79 111.25 366.92 110.03 376.05 110.31 C 395.02 110.56 413.33 118.24 428.26 129.68 C 436.03 135.45 442.46 142.78 450.04 148.79 C 482.68 175.37 522.68 194.20 565.00 197.40 C 588.92 199.03 613.24 195.25 635.45 186.21 C 636.76 194.85 637.98 203.51 638.61 212.24 C 616.82 220.47 593.23 223.78 570.01 221.94 C 533.42 219.13 498.82 203.71 469.01 182.86 C 449.87 169.78 433.50 152.34 411.91 143.09 C 393.45 135.04 372.41 136.23 353.24 140.86 C 351.75 131.89 350.51 122.87 349.06 113.89 Z" />
</g>
<g id="#5c097aff">
<path fill="#5c097a" opacity="1.00" d=" M 353.24 140.86 C 372.41 136.23 393.45 135.04 411.91 143.09 C 433.50 152.34 449.87 169.78 469.01 182.86 C 498.82 203.71 533.42 219.13 570.01 221.94 C 593.23 223.78 616.82 220.47 638.61 212.24 C 638.96 217.63 639.92 223.12 639.54 228.48 C 623.36 238.06 604.73 243.23 586.03 244.54 C 561.18 246.21 536.21 240.75 513.57 230.64 C 517.71 223.41 514.44 212.36 505.82 210.43 C 499.33 208.56 493.32 213.17 490.36 218.60 C 470.75 206.58 453.84 190.68 434.04 178.97 C 418.44 169.66 400.17 164.79 381.99 165.73 C 373.74 166.15 365.55 167.43 357.50 169.23 C 356.23 159.75 354.53 150.34 353.24 140.86 M 563.85 243.31 C 568.15 244.46 572.62 243.96 577.01 243.97 C 581.39 243.90 585.81 244.33 590.14 243.49 C 586.48 242.51 582.67 243.08 578.95 243.08 C 573.91 243.23 568.85 242.50 563.85 243.31 Z" />
</g>
<g id="#693949ff">
<path fill="#693949" opacity="1.00" d=" M 362.08 189.49 C 362.47 189.40 363.25 189.20 363.64 189.10 C 366.87 198.77 370.20 208.43 372.37 218.40 C 377.12 238.91 380.78 259.68 382.75 280.64 C 388.66 280.36 394.57 280.14 400.48 279.90 C 406.99 282.56 414.21 280.67 421.02 280.55 C 419.58 280.09 418.13 279.64 416.68 279.23 C 420.05 279.03 423.43 278.79 426.81 278.87 C 428.34 279.04 429.86 279.28 431.39 279.52 C 431.93 290.22 433.24 300.86 434.32 311.52 C 431.32 311.59 428.32 311.60 425.33 311.50 C 425.60 311.82 426.14 312.46 426.41 312.78 C 413.97 313.75 401.47 314.22 388.99 314.32 C 385.78 312.84 382.56 311.38 379.19 310.31 C 379.14 310.00 379.03 309.37 378.98 309.06 C 377.73 301.83 376.79 294.55 375.65 287.30 C 377.58 285.49 379.45 283.61 381.19 281.61 C 379.66 282.63 378.16 283.69 376.67 284.77 C 376.30 284.66 375.57 284.43 375.20 284.31 C 371.32 259.10 367.25 233.91 363.70 208.66 C 363.73 208.19 363.78 207.25 363.81 206.79 C 360.54 208.49 357.08 209.88 353.38 210.25 C 353.19 208.98 352.98 207.72 352.75 206.47 C 352.36 206.20 351.57 205.67 351.17 205.40 L 350.65 205.05 L 350.86 204.31 C 351.25 202.88 351.65 201.45 352.05 200.02 C 353.11 199.66 354.18 199.30 355.25 198.94 C 354.90 200.11 354.55 201.28 354.21 202.46 C 356.49 203.15 358.54 202.23 360.17 200.63 C 361.47 202.46 363.03 204.08 364.88 205.38 C 363.04 202.88 361.30 200.27 360.53 197.23 C 359.30 198.93 358.43 201.43 356.17 201.92 C 356.13 198.53 358.05 195.33 357.43 191.89 L 357.36 191.11 L 357.71 190.99 C 359.15 190.47 360.60 189.95 362.08 189.49 Z" />
<path fill="#693949" opacity="1.00" d=" M 358.56 237.05 C 360.13 230.02 358.26 222.85 359.25 215.78 C 359.68 217.61 360.10 219.44 360.53 221.27 C 360.80 220.65 361.34 219.41 361.61 218.79 C 366.28 248.66 370.87 278.55 375.37 308.45 C 368.51 305.81 361.62 303.23 354.59 301.07 C 352.60 296.64 350.98 291.88 351.36 286.95 C 352.40 269.45 355.73 252.20 357.20 234.75 L 357.47 235.20 C 357.74 235.66 358.28 236.59 358.56 237.05 Z" />
<path fill="#693949" opacity="1.00" d=" M 461.10 262.94 C 465.12 256.63 462.41 247.66 468.17 242.18 C 471.35 242.79 474.61 243.23 477.56 244.64 C 476.38 247.37 474.71 250.00 474.39 253.01 C 475.18 255.17 477.79 254.59 479.56 255.01 C 479.29 256.89 479.03 258.76 478.82 260.64 C 482.64 259.13 484.82 255.53 487.81 252.94 C 488.07 253.35 488.60 254.17 488.86 254.58 C 487.63 255.93 486.42 257.29 485.25 258.69 C 485.92 258.56 487.26 258.29 487.93 258.16 C 488.38 259.27 488.84 260.39 489.31 261.51 L 489.06 261.66 C 488.88 261.77 488.50 262.00 488.32 262.11 C 487.94 264.92 487.66 267.75 487.48 270.58 C 485.40 270.47 483.04 269.91 482.34 267.67 C 480.83 264.46 484.47 262.47 486.32 260.53 C 483.73 261.21 480.76 262.95 481.13 266.06 C 480.64 269.67 484.36 271.28 487.26 271.87 C 487.09 274.78 486.75 277.67 486.31 280.56 C 489.50 281.26 492.76 281.63 496.02 281.96 C 489.38 287.32 483.55 293.76 476.24 298.23 C 472.34 300.41 466.23 302.26 463.00 298.03 C 459.56 293.35 460.09 287.01 461.15 281.61 C 464.56 280.06 468.34 280.34 471.98 280.59 C 472.28 281.90 472.59 283.22 472.91 284.54 C 475.21 279.73 477.48 274.90 479.43 269.93 C 477.07 270.79 474.74 271.72 472.36 272.52 C 469.73 273.18 466.63 274.53 464.08 272.93 C 462.23 269.85 463.83 265.60 461.10 262.94 M 465.18 254.55 C 464.24 256.04 466.91 257.45 468.08 256.57 C 468.78 255.12 466.35 253.69 465.18 254.55 M 464.20 265.07 C 464.28 266.29 464.37 267.52 464.47 268.75 C 465.26 268.32 466.05 267.88 466.83 267.42 C 466.44 266.23 465.07 265.83 464.20 265.07 Z" />
<path fill="#693949" opacity="1.00" d=" M 545.89 295.60 C 554.48 299.78 564.00 303.38 570.28 310.92 C 576.88 318.99 578.46 330.77 574.18 340.29 C 567.93 352.91 559.26 364.35 548.54 373.50 C 542.52 378.78 535.91 383.33 529.78 388.48 C 519.21 397.21 507.86 406.12 501.90 418.83 C 498.60 416.31 495.29 413.79 492.20 411.02 C 503.09 392.63 513.08 373.71 523.95 355.29 C 524.23 354.79 524.80 353.79 525.09 353.29 C 529.26 345.78 533.67 338.40 538.06 331.01 L 538.46 330.83 C 541.96 329.17 545.47 327.53 549.11 326.19 C 551.75 325.14 554.74 324.41 556.57 322.04 C 550.43 323.69 544.73 326.59 538.85 328.93 C 538.42 328.89 537.54 328.80 537.11 328.76 C 537.24 328.49 537.50 327.96 537.63 327.69 C 535.59 326.81 533.56 325.93 531.52 325.07 C 533.07 319.23 535.69 313.76 538.18 308.29 C 540.40 303.86 542.25 299.10 545.89 295.60 Z" />
<path fill="#693949" opacity="1.00" d=" M 465.00 331.17 C 474.89 332.08 485.10 332.71 494.30 336.80 C 498.10 338.79 502.08 341.01 504.34 344.82 C 497.08 344.10 489.83 343.20 482.53 343.30 C 482.12 343.30 481.30 343.28 480.90 343.28 C 480.18 343.29 478.75 343.32 478.04 343.34 C 477.65 343.40 476.86 343.53 476.46 343.59 C 473.56 343.66 470.67 343.67 467.77 343.75 C 467.24 342.46 466.71 341.17 466.19 339.88 C 467.56 337.01 465.44 334.03 465.00 331.17 Z" />
<path fill="#693949" opacity="1.00" d=" M 479.49 426.16 C 482.77 421.99 487.64 419.15 490.80 414.76 C 490.92 414.92 491.14 415.23 491.26 415.39 C 493.75 419.45 497.84 422.16 500.64 425.99 C 499.78 430.75 500.99 435.40 502.60 439.84 C 502.24 440.01 501.51 440.35 501.15 440.52 C 499.62 437.87 498.67 434.94 497.61 432.09 C 496.76 436.40 495.87 440.71 494.85 444.99 C 494.20 445.05 492.90 445.17 492.24 445.23 C 492.93 440.05 493.90 434.86 493.58 429.62 C 490.95 434.34 491.63 440.02 490.87 445.21 L 489.72 445.06 L 488.55 444.85 C 488.32 440.21 488.48 435.57 488.48 430.94 C 486.93 434.47 486.41 438.36 484.89 441.90 L 483.69 442.14 C 483.39 436.10 485.10 430.17 486.73 424.41 C 484.49 425.45 482.06 427.47 479.49 426.16 Z" />
</g>
<g id="#6a3a4aff">
<path fill="#6a3a4a" opacity="1.00" d=" M 348.70 196.03 C 351.03 194.17 353.71 192.85 356.32 191.44 C 356.30 193.27 356.36 195.12 356.18 196.96 C 354.07 198.84 351.15 199.10 348.49 199.54 C 348.86 198.19 349.23 196.83 349.59 195.48 L 348.70 196.03 Z" />
</g>
<g id="#200037ff">
<path fill="#200037" opacity="1.00" d=" M 356.32 191.44 L 357.43 191.89 C 358.05 195.33 356.13 198.53 356.17 201.92 C 358.43 201.43 359.30 198.93 360.53 197.23 C 361.30 200.27 363.04 202.88 364.88 205.38 C 363.03 204.08 361.47 202.46 360.17 200.63 C 358.54 202.23 356.49 203.15 354.21 202.46 C 354.55 201.28 354.90 200.11 355.25 198.94 C 354.18 199.30 353.11 199.66 352.05 200.02 C 351.65 201.45 351.25 202.88 350.86 204.31 C 350.73 203.03 350.60 201.75 350.48 200.47 C 349.76 200.48 348.33 200.50 347.62 200.51 C 347.52 198.95 346.63 196.68 348.70 196.03 L 349.59 195.48 C 349.23 196.83 348.86 198.19 348.49 199.54 C 351.15 199.10 354.07 198.84 356.18 196.96 C 356.36 195.12 356.30 193.27 356.32 191.44 Z" />
<path fill="#200037" opacity="1.00" d=" M 476.46 343.59 C 476.86 343.53 477.65 343.40 478.04 343.34 C 474.96 345.73 482.31 346.56 480.90 343.28 C 481.30 343.28 482.12 343.30 482.53 343.30 C 482.39 344.04 482.27 344.79 482.16 345.54 C 496.19 346.29 510.19 347.94 523.92 350.97 C 524.21 351.55 524.80 352.71 525.09 353.29 C 524.80 353.79 524.23 354.79 523.95 355.29 C 510.06 353.05 496.12 351.08 482.08 350.08 C 481.80 354.71 481.65 359.36 482.04 364.00 C 482.24 367.67 482.99 371.64 480.90 374.95 C 474.42 387.21 469.46 400.23 462.83 412.39 C 462.78 412.11 462.69 411.55 462.64 411.27 C 465.84 404.12 469.18 397.01 472.56 389.93 C 457.93 381.44 442.30 374.84 426.79 368.15 C 413.20 362.48 399.51 357.03 385.64 352.08 C 385.58 351.75 385.46 351.09 385.40 350.76 C 415.15 362.10 444.96 373.64 473.00 388.84 C 474.30 385.60 476.52 382.58 476.92 379.06 C 475.99 369.29 473.62 359.39 475.43 349.57 C 472.61 349.23 469.78 349.00 466.96 348.69 C 466.98 348.26 467.01 347.42 467.03 347.00 C 467.13 346.34 467.34 345.03 467.44 344.37 C 470.02 344.47 472.61 344.62 475.20 344.44 C 475.51 344.23 476.14 343.80 476.46 343.59 M 476.01 349.61 C 475.04 359.09 476.49 368.58 477.80 377.95 C 480.09 375.23 481.63 371.60 481.35 367.99 C 481.11 361.92 481.02 355.86 481.26 349.79 C 479.50 349.72 477.76 349.66 476.01 349.61 Z" />
<path fill="#200037" opacity="1.00" d=" M 553.86 423.92 C 554.07 423.65 554.49 423.12 554.70 422.85 C 564.07 432.86 573.09 443.19 581.82 453.75 C 585.42 449.54 588.80 445.09 592.82 441.26 C 593.04 442.48 591.97 443.42 591.32 444.33 C 588.27 447.75 585.21 451.18 582.29 454.72 C 590.47 464.21 597.83 474.38 605.40 484.36 C 605.28 484.62 605.03 485.16 604.90 485.42 C 597.21 475.35 589.78 465.05 581.55 455.40 C 570.03 469.03 558.45 482.60 547.31 496.53 C 538.40 507.59 527.78 517.89 514.48 523.39 C 506.03 526.86 495.91 527.88 487.69 523.24 C 480.95 519.26 475.64 511.66 476.30 503.58 C 477.40 507.57 478.27 511.76 480.68 515.22 C 484.44 521.08 491.08 524.93 498.03 525.32 C 508.64 526.12 518.67 521.14 527.03 515.07 C 539.84 505.92 548.67 492.68 558.75 480.85 C 565.99 471.92 573.73 463.36 580.92 454.41 C 572.27 443.94 563.59 433.41 553.86 423.92 Z" />
</g>
<g id="#522039ff">
<path fill="#522039" opacity="1.00" d=" M 351.17 205.40 C 351.57 205.67 352.36 206.20 352.75 206.47 C 352.98 207.72 353.19 208.98 353.38 210.25 C 357.08 209.88 360.54 208.49 363.81 206.79 C 363.78 207.25 363.73 208.19 363.70 208.66 C 362.51 209.14 361.33 209.62 360.15 210.11 C 360.64 213.00 361.18 215.88 361.61 218.79 C 361.34 219.41 360.80 220.65 360.53 221.27 C 360.10 219.44 359.68 217.61 359.25 215.78 C 358.26 222.85 360.13 230.02 358.56 237.05 C 358.28 236.59 357.74 235.66 357.47 235.20 C 357.39 227.60 358.07 219.95 357.79 212.33 C 356.06 212.36 354.32 212.41 352.60 212.48 C 351.91 210.17 351.41 207.80 351.17 205.40 Z" />
</g>
<g id="#ffddabff">
<path fill="#ffddab" opacity="1.00" d=" M 360.15 210.11 C 361.33 209.62 362.51 209.14 363.70 208.66 C 367.25 233.91 371.32 259.10 375.20 284.31 C 375.35 285.30 375.50 286.30 375.65 287.30 C 376.79 294.55 377.73 301.83 378.98 309.06 C 377.83 309.22 376.68 309.38 375.54 309.54 C 375.50 309.27 375.42 308.72 375.37 308.45 C 370.87 278.55 366.28 248.66 361.61 218.79 C 361.18 215.88 360.64 213.00 360.15 210.11 Z" />
<path fill="#ffddab" opacity="1.00" d=" M 465.18 254.55 C 466.35 253.69 468.78 255.12 468.08 256.57 C 466.91 257.45 464.24 256.04 465.18 254.55 Z" />
</g>
<g id="#f8cca1ff">
<path fill="#f8cca1" opacity="1.00" d=" M 490.36 218.60 C 493.32 213.17 499.33 208.56 505.82 210.43 C 514.44 212.36 517.71 223.41 513.57 230.64 C 512.02 233.32 509.62 235.54 506.75 236.74 C 501.41 238.97 495.76 240.46 490.01 241.12 C 489.78 240.65 489.33 239.70 489.10 239.23 C 491.12 237.41 494.10 236.75 495.47 234.24 C 494.33 234.64 493.20 235.08 492.10 235.56 C 491.56 235.18 490.49 234.43 489.96 234.05 C 491.45 231.33 492.79 228.53 493.79 225.59 C 490.15 228.30 489.23 233.08 486.95 236.80 C 485.45 236.38 483.92 235.66 482.34 236.13 C 484.56 235.06 484.89 232.51 485.58 230.42 C 486.70 226.31 488.28 222.32 490.36 218.60 Z" />
<path fill="#f8cca1" opacity="1.00" d=" M 468.17 242.18 C 472.05 238.49 477.41 237.59 482.34 236.13 C 484.90 238.12 487.48 240.14 489.47 242.74 C 489.04 246.00 488.96 249.29 488.79 252.57 C 488.54 252.67 488.06 252.85 487.81 252.94 C 484.82 255.53 482.64 259.13 478.82 260.64 C 479.03 258.76 479.29 256.89 479.56 255.01 C 477.79 254.59 475.18 255.17 474.39 253.01 C 474.71 250.00 476.38 247.37 477.56 244.64 C 474.61 243.23 471.35 242.79 468.17 242.18 Z" />
</g>
<g id="#585f86ff">
<path fill="#585f86" opacity="1.00" d=" M 486.95 236.80 C 489.23 233.08 490.15 228.30 493.79 225.59 C 492.79 228.53 491.45 231.33 489.96 234.05 C 489.35 234.92 488.98 235.89 488.87 236.94 C 490.07 236.84 491.09 236.15 492.10 235.56 C 493.20 235.08 494.33 234.64 495.47 234.24 C 494.10 236.75 491.12 237.41 489.10 239.23 C 489.33 239.70 489.78 240.65 490.01 241.12 L 489.47 242.74 C 487.48 240.14 484.90 238.12 482.34 236.13 C 483.92 235.66 485.45 236.38 486.95 236.80 Z" />
</g>
<g id="#fdedb5ff">
<path fill="#fdedb5" opacity="1.00" d=" M 489.96 234.05 C 490.49 234.43 491.56 235.18 492.10 235.56 C 491.09 236.15 490.07 236.84 488.87 236.94 C 488.98 235.89 489.35 234.92 489.96 234.05 Z" />
</g>
<g id="#430066ff">
<path fill="#430066" opacity="1.00" d=" M 563.85 243.31 C 568.85 242.50 573.91 243.23 578.95 243.08 C 582.67 243.08 586.48 242.51 590.14 243.49 C 585.81 244.33 581.39 243.90 577.01 243.97 C 572.62 243.96 568.15 244.46 563.85 243.31 Z" />
</g>
<g id="#4e1942ff">
<path fill="#4e1942" opacity="1.00" d=" M 487.81 252.94 C 488.06 252.85 488.54 252.67 488.79 252.57 C 490.22 251.80 492.20 252.36 492.68 254.00 C 493.39 256.94 491.35 259.63 489.31 261.51 C 488.84 260.39 488.38 259.27 487.93 258.16 C 487.26 258.29 485.92 258.56 485.25 258.69 C 486.42 257.29 487.63 255.93 488.86 254.58 C 488.60 254.17 488.07 253.35 487.81 252.94 Z" />
</g>
<g id="#1d023cff">
<path fill="#1d023c" opacity="1.00" d=" M 472.36 272.52 C 474.74 271.72 477.07 270.79 479.43 269.93 C 477.48 274.90 475.21 279.73 472.91 284.54 C 472.59 283.22 472.28 281.90 471.98 280.59 C 468.34 280.34 464.56 280.06 461.15 281.61 C 461.29 280.98 461.56 279.71 461.70 279.08 C 465.29 279.32 468.89 279.43 472.48 279.60 C 472.42 277.24 472.39 274.88 472.36 272.52 Z" />
<path fill="#1d023c" opacity="1.00" d=" M 451.36 298.24 C 451.92 295.65 452.35 292.96 453.81 290.69 C 452.59 297.74 450.98 304.73 450.53 311.89 L 449.69 311.69 C 449.91 307.79 450.43 303.91 450.93 300.03 C 450.18 299.03 449.42 298.04 448.69 297.04 C 449.36 297.34 450.70 297.94 451.36 298.24 Z" />
<path fill="#1d023c" opacity="1.00" d=" M 500.75 306.95 C 504.98 309.41 508.61 312.78 512.89 315.18 C 515.29 316.83 518.30 317.72 520.14 320.09 C 516.39 319.05 513.44 316.39 509.97 314.78 C 507.55 314.43 505.06 315.18 502.70 314.45 C 504.56 314.16 506.44 314.01 508.32 313.84 C 505.99 311.33 502.30 310.14 500.75 306.95 Z" />
</g>
<g id="#060030ff">
<path fill="#060030" opacity="1.00" d=" M 426.81 278.87 C 428.60 278.86 430.39 278.83 432.19 278.79 C 432.87 290.11 434.20 301.57 438.11 312.29 C 434.21 312.45 430.30 312.42 426.41 312.78 C 426.14 312.46 425.60 311.82 425.33 311.50 C 428.32 311.60 431.32 311.59 434.32 311.52 C 433.24 300.86 431.93 290.22 431.39 279.52 C 429.86 279.28 428.34 279.04 426.81 278.87 Z" />
<path fill="#060030" opacity="1.00" d=" M 376.67 284.77 C 378.16 283.69 379.66 282.63 381.19 281.61 C 379.45 283.61 377.58 285.49 375.65 287.30 C 375.50 286.30 375.35 285.30 375.20 284.31 C 375.57 284.43 376.30 284.66 376.67 284.77 Z" />
<path fill="#060030" opacity="1.00" d=" M 544.45 295.15 C 544.81 295.26 545.53 295.49 545.89 295.60 C 542.25 299.10 540.40 303.86 538.18 308.29 C 535.69 313.76 533.07 319.23 531.52 325.07 C 533.56 325.93 535.59 326.81 537.63 327.69 C 537.50 327.96 537.24 328.49 537.11 328.76 C 534.36 326.98 531.29 325.81 528.33 324.46 C 533.06 314.35 538.02 304.30 544.45 295.15 Z" />
<path fill="#060030" opacity="1.00" d=" M 455.30 328.77 C 467.06 324.49 479.85 324.91 492.17 325.37 C 501.38 326.20 510.70 326.96 519.61 329.60 C 518.13 329.94 516.65 330.24 515.17 330.53 C 509.99 328.31 504.29 328.09 498.78 327.38 C 486.57 326.32 474.16 325.96 462.05 328.11 C 462.22 328.70 462.57 329.90 462.74 330.50 C 460.25 329.93 457.77 329.39 455.30 328.77 Z" />
<path fill="#060030" opacity="1.00" d=" M 564.64 410.58 L 566.01 411.16 C 573.11 417.15 580.33 422.99 587.52 428.88 C 587.23 429.18 586.66 429.80 586.37 430.11 C 585.91 430.13 584.99 430.18 584.53 430.21 C 578.33 423.60 571.54 417.59 565.16 411.17 L 564.64 410.58 Z" />
</g>
<g id="#f086aaff">
<path fill="#f086aa" opacity="1.00" d=" M 432.19 278.79 C 433.19 278.76 435.19 278.72 436.19 278.69 C 436.98 289.98 439.03 301.10 441.50 312.13 C 440.65 312.17 438.96 312.25 438.11 312.29 C 434.20 301.57 432.87 290.11 432.19 278.79 Z" />
<path fill="#f086aa" opacity="1.00" d=" M 437.42 278.67 C 445.51 278.61 453.62 278.52 461.70 279.08 C 461.56 279.71 461.29 280.98 461.15 281.61 C 460.09 287.01 459.56 293.35 463.00 298.03 C 466.23 302.26 472.34 300.41 476.24 298.23 C 483.55 293.76 489.38 287.32 496.02 281.96 C 508.12 283.87 520.16 286.37 531.79 290.26 C 534.55 291.16 537.42 291.89 539.84 293.56 C 533.27 302.08 527.95 311.56 523.83 321.48 C 522.35 321.02 520.88 320.56 519.41 320.11 C 519.70 323.30 519.92 326.51 520.05 329.73 L 519.61 329.60 C 510.70 326.96 501.38 326.20 492.17 325.37 C 479.85 324.91 467.06 324.49 455.30 328.77 C 452.96 323.40 450.77 317.81 450.53 311.89 C 450.98 304.73 452.59 297.74 453.81 290.69 C 452.35 292.96 451.92 295.65 451.36 298.24 C 450.70 297.94 449.36 297.34 448.69 297.04 C 449.42 298.04 450.18 299.03 450.93 300.03 C 450.43 303.91 449.91 307.79 449.69 311.69 C 447.40 311.68 445.13 311.86 442.86 312.01 C 439.93 301.14 437.81 289.93 437.42 278.67 M 500.75 306.95 C 502.30 310.14 505.99 311.33 508.32 313.84 C 506.44 314.01 504.56 314.16 502.70 314.45 C 505.06 315.18 507.55 314.43 509.97 314.78 C 513.44 316.39 516.39 319.05 520.14 320.09 C 518.30 317.72 515.29 316.83 512.89 315.18 C 508.61 312.78 504.98 309.41 500.75 306.95 Z" />
</g>
<g id="#551e30ff">
<path fill="#551e30" opacity="1.00" d=" M 400.48 279.90 C 405.88 279.61 411.28 279.41 416.68 279.23 C 418.13 279.64 419.58 280.09 421.02 280.55 C 414.21 280.67 406.99 282.56 400.48 279.90 Z" />
</g>
<g id="#3b85ccff">
<path fill="#3b85cc" opacity="1.00" d=" M 259.45 308.54 C 272.38 300.54 287.23 294.76 302.48 294.04 C 308.31 295.71 314.66 295.60 320.51 294.05 C 322.36 293.67 324.25 294.18 326.11 294.38 C 335.76 295.87 345.30 298.07 354.59 301.07 C 361.62 303.23 368.51 305.81 375.37 308.45 C 375.42 308.72 375.50 309.27 375.54 309.54 C 377.59 322.78 379.69 336.02 381.59 349.29 C 373.35 346.76 365.39 343.36 357.01 341.27 C 338.78 336.25 318.91 335.52 300.97 342.10 C 280.02 349.56 263.25 365.18 249.21 381.95 C 234.16 400.08 221.66 420.13 209.81 440.44 C 197.38 429.92 183.16 421.59 167.83 416.06 C 183.02 394.56 197.61 372.61 213.97 351.98 C 227.10 335.59 241.55 319.80 259.45 308.54 Z" />
<path fill="#3b85cc" opacity="1.00" d=" M 379.19 310.31 C 382.56 311.38 385.78 312.84 388.99 314.32 C 416.10 326.42 441.92 341.37 466.19 358.45 C 466.31 354.62 466.44 350.79 467.03 347.00 C 467.01 347.42 466.98 348.26 466.96 348.69 C 469.78 349.00 472.61 349.23 475.43 349.57 C 473.62 359.39 475.99 369.29 476.92 379.06 C 476.52 382.58 474.30 385.60 473.00 388.84 C 444.96 373.64 415.15 362.10 385.40 350.76 C 383.23 337.30 381.24 323.80 379.19 310.31 Z" />
<path fill="#3b85cc" opacity="1.00" d=" M 266.33 365.29 C 282.22 350.32 302.75 338.94 325.01 338.50 C 344.71 337.39 363.79 343.63 381.84 350.84 C 383.77 362.69 385.50 374.56 387.37 386.42 L 387.44 386.88 C 378.85 383.83 369.66 383.25 360.74 381.66 C 361.05 381.29 361.66 380.54 361.97 380.17 C 354.69 379.79 347.39 379.84 340.12 380.19 C 340.30 380.52 340.65 381.19 340.83 381.53 L 340.97 381.81 C 324.59 383.62 310.45 393.70 300.04 406.01 C 285.67 423.00 276.05 443.41 268.23 464.10 C 264.02 475.02 261.02 486.37 256.76 497.28 C 244.21 476.42 229.01 457.03 210.61 441.02 C 226.72 414.14 243.32 386.92 266.33 365.29 Z" />
<path fill="#3b85cc" opacity="1.00" d=" M 482.08 350.08 C 496.12 351.08 510.06 353.05 523.95 355.29 C 513.08 373.71 503.09 392.63 492.20 411.02 C 491.22 411.56 490.25 412.10 489.29 412.66 C 489.67 413.19 490.42 414.23 490.80 414.76 C 487.64 419.15 482.77 421.99 479.49 426.16 C 482.06 427.47 484.49 425.45 486.73 424.41 C 485.10 430.17 483.39 436.10 483.69 442.14 L 484.89 441.90 C 486.41 438.36 486.93 434.47 488.48 430.94 C 488.48 435.57 488.32 440.21 488.55 444.85 C 484.89 455.94 481.21 467.05 478.66 478.47 C 476.84 486.73 474.47 495.17 475.64 503.70 C 477.08 499.97 476.10 495.90 476.83 492.05 C 479.84 476.07 484.21 460.36 489.72 445.06 L 490.87 445.21 L 492.24 445.23 C 492.90 445.17 494.20 445.05 494.85 444.99 C 495.87 440.71 496.76 436.40 497.61 432.09 C 498.67 434.94 499.62 437.87 501.15 440.52 C 501.51 440.35 502.24 440.01 502.60 439.84 C 500.99 435.40 499.78 430.75 500.64 425.99 C 500.73 424.90 500.83 423.82 500.95 422.74 C 502.54 423.85 503.99 425.31 505.89 425.89 C 506.46 425.44 507.62 424.55 508.19 424.10 C 506.17 422.25 504.07 420.49 501.90 418.83 C 507.86 406.12 519.21 397.21 529.78 388.48 C 528.97 396.56 526.64 404.42 523.83 412.02 C 516.30 430.92 508.69 449.81 502.22 469.11 C 500.94 473.34 499.43 478.25 501.57 482.43 C 503.11 485.21 506.91 484.85 509.03 482.96 C 513.62 479.13 516.68 473.88 520.13 469.07 C 530.47 453.38 541.50 438.09 553.86 423.92 C 563.59 433.41 572.27 443.94 580.92 454.41 C 573.73 463.36 565.99 471.92 558.75 480.85 C 548.67 492.68 539.84 505.92 527.03 515.07 C 518.67 521.14 508.64 526.12 498.03 525.32 C 491.08 524.93 484.44 521.08 480.68 515.22 C 478.27 511.76 477.40 507.57 476.30 503.58 C 475.64 511.66 480.95 519.26 487.69 523.24 C 495.91 527.88 506.03 526.86 514.48 523.39 C 527.78 517.89 538.40 507.59 547.31 496.53 C 558.45 482.60 570.03 469.03 581.55 455.40 C 589.78 465.05 597.21 475.35 604.90 485.42 C 592.99 498.33 581.21 511.41 568.10 523.13 C 553.41 536.35 537.39 548.73 518.78 555.88 C 504.94 561.32 489.31 562.54 474.97 558.33 C 459.78 554.19 447.10 543.03 439.76 529.25 C 433.18 516.80 429.45 502.07 432.76 488.09 C 436.42 470.87 443.57 454.68 450.56 438.60 C 454.59 429.84 458.29 420.91 462.83 412.39 C 469.46 400.23 474.42 387.21 480.90 374.95 C 482.99 371.64 482.24 367.67 482.04 364.00 C 481.65 359.36 481.80 354.71 482.08 350.08 Z" />
<path fill="#3b85cc" opacity="1.00" d=" M 385.64 352.08 C 399.51 357.03 413.20 362.48 426.79 368.15 C 442.30 374.84 457.93 381.44 472.56 389.93 C 469.18 397.01 465.84 404.12 462.64 411.27 C 439.00 402.59 415.43 393.51 390.97 387.33 C 390.92 387.02 390.83 386.40 390.78 386.09 C 389.11 374.74 387.19 363.44 385.64 352.08 Z" />
<path fill="#3b85cc" opacity="1.00" d=" M 554.70 422.85 C 558.12 418.90 561.50 414.90 565.16 411.17 C 571.54 417.59 578.33 423.60 584.53 430.21 C 584.99 430.18 585.91 430.13 586.37 430.11 L 586.21 430.28 L 585.31 431.31 C 597.50 443.26 607.62 457.13 617.11 471.26 C 613.22 475.64 609.59 480.26 605.40 484.36 C 597.83 474.38 590.47 464.21 582.29 454.72 C 585.21 451.18 588.27 447.75 591.32 444.33 C 591.97 443.42 593.04 442.48 592.82 441.26 C 588.80 445.09 585.42 449.54 581.82 453.75 C 573.09 443.19 564.07 432.86 554.70 422.85 Z" />
<path fill="#3b85cc" opacity="1.00" d=" M 167.10 417.02 L 167.32 417.09 C 182.62 422.38 196.82 430.76 209.06 441.34 C 206.29 447.46 202.31 453.00 199.49 459.12 C 185.58 449.25 170.83 440.65 155.72 432.76 C 159.76 427.69 163.38 422.31 167.10 417.02 Z" />
<path fill="#3b85cc" opacity="1.00" d=" M 210.06 442.16 C 228.69 458.09 243.96 477.73 256.25 498.87 L 256.29 498.94 C 254.37 503.72 252.61 508.56 250.38 513.21 C 235.92 493.45 219.82 474.51 200.09 459.80 C 203.49 453.96 206.71 448.02 210.06 442.16 Z" />
</g>
<g id="#1b71c4ff">
<path fill="#1b71c4" opacity="1.00" d=" M 302.48 294.04 C 308.44 293.22 314.54 293.26 320.51 294.05 C 314.66 295.60 308.31 295.71 302.48 294.04 Z" />
</g>
<g id="#f087aaff">
<path fill="#f087aa" opacity="1.00" d=" M 524.30 322.15 C 529.25 312.25 534.38 302.39 540.99 293.46 C 542.14 294.02 543.29 294.58 544.45 295.15 C 538.02 304.30 533.06 314.35 528.33 324.46 C 526.98 323.69 525.63 322.93 524.30 322.15 Z" />
</g>
<g id="#ffd39eff">
<path fill="#ffd39e" opacity="1.00" d=" M 375.54 309.54 C 376.68 309.38 377.83 309.22 378.98 309.06 C 379.03 309.37 379.14 310.00 379.19 310.31 C 381.24 323.80 383.23 337.30 385.40 350.76 C 385.46 351.09 385.58 351.75 385.64 352.08 C 387.19 363.44 389.11 374.74 390.78 386.09 C 389.64 386.20 388.50 386.31 387.37 386.42 C 385.50 374.56 383.77 362.69 381.84 350.84 C 381.78 350.45 381.65 349.68 381.59 349.29 C 379.69 336.02 377.59 322.78 375.54 309.54 Z" />
</g>
<g id="#38173fff">
<path fill="#38173f" opacity="1.00" d=" M 538.85 328.93 C 544.73 326.59 550.43 323.69 556.57 322.04 C 554.74 324.41 551.75 325.14 549.11 326.19 C 545.47 327.53 541.96 329.17 538.46 330.83 C 538.56 330.35 538.75 329.40 538.85 328.93 Z" />
</g>
<g id="#562a41ff">
<path fill="#562a41" opacity="1.00" d=" M 462.05 328.11 C 474.16 325.96 486.57 326.32 498.78 327.38 C 504.29 328.09 509.99 328.31 515.17 330.53 C 514.72 330.72 513.83 331.11 513.38 331.31 C 513.27 331.98 513.06 333.31 512.96 333.98 C 511.48 334.06 510.02 334.20 508.56 334.38 C 509.87 336.06 512.06 335.76 513.94 336.03 L 514.19 336.05 C 517.34 339.96 520.24 344.07 522.70 348.46 C 516.60 347.12 510.52 345.67 504.34 344.82 C 502.08 341.01 498.10 338.79 494.30 336.80 C 485.10 332.71 474.89 332.08 465.00 331.17 C 465.44 334.03 467.56 337.01 466.19 339.88 C 464.86 336.82 463.70 333.69 462.74 330.50 C 462.57 329.90 462.22 328.70 462.05 328.11 Z" />
</g>
<g id="#321138ff">
<path fill="#321138" opacity="1.00" d=" M 508.56 334.38 C 510.02 334.20 511.48 334.06 512.96 333.98 C 513.20 334.49 513.69 335.51 513.94 336.03 C 512.06 335.76 509.87 336.06 508.56 334.38 Z" />
</g>
<g id="#21043dff">
<path fill="#21043d" opacity="1.00" d=" M 300.97 342.10 C 318.91 335.52 338.78 336.25 357.01 341.27 C 365.39 343.36 373.35 346.76 381.59 349.29 C 381.65 349.68 381.78 350.45 381.84 350.84 C 363.79 343.63 344.71 337.39 325.01 338.50 C 302.75 338.94 282.22 350.32 266.33 365.29 C 243.32 386.92 226.72 414.14 210.61 441.02 C 229.01 457.03 244.21 476.42 256.76 497.28 C 256.63 497.67 256.38 498.47 256.25 498.87 C 243.96 477.73 228.69 458.09 210.06 442.16 C 206.71 448.02 203.49 453.96 200.09 459.80 C 219.82 474.51 235.92 493.45 250.38 513.21 C 250.20 513.61 249.83 514.40 249.64 514.80 C 238.90 502.16 227.83 489.74 215.78 478.31 C 214.11 480.38 212.47 482.47 210.77 484.51 C 209.55 485.97 208.30 487.40 207.00 488.81 C 199.29 483.37 191.59 477.81 184.83 471.20 L 186.47 471.31 C 182.45 466.80 178.19 462.49 173.72 458.43 L 173.88 460.11 C 166.32 452.13 160.39 442.69 155.72 432.76 C 170.83 440.65 185.58 449.25 199.49 459.12 C 202.31 453.00 206.29 447.46 209.06 441.34 C 196.82 430.76 182.62 422.38 167.32 417.09 L 167.83 416.06 C 183.16 421.59 197.38 429.92 209.81 440.44 C 221.66 420.13 234.16 400.08 249.21 381.95 C 263.25 365.18 280.02 349.56 300.97 342.10 Z" />
<path fill="#21043d" opacity="1.00" d=" M 500.64 425.99 C 497.84 422.16 493.75 419.45 491.26 415.39 C 494.57 417.73 497.75 420.24 500.95 422.74 C 500.83 423.82 500.73 424.90 500.64 425.99 Z" />
<path fill="#21043d" opacity="1.00" d=" M 478.66 478.47 C 481.21 467.05 484.89 455.94 488.55 444.85 L 489.72 445.06 C 484.21 460.36 479.84 476.07 476.83 492.05 C 476.10 495.90 477.08 499.97 475.64 503.70 C 474.47 495.17 476.84 486.73 478.66 478.47 Z" />
</g>
<g id="#3e98e2ff">
<path fill="#3e98e2" opacity="1.00" d=" M 478.04 343.34 C 478.75 343.32 480.18 343.29 480.90 343.28 C 482.31 346.56 474.96 345.73 478.04 343.34 Z" />
</g>
<g id="#3d97e7ff">
<path fill="#3d97e7" opacity="1.00" d=" M 482.53 343.30 C 489.83 343.20 497.08 344.10 504.34 344.82 C 510.52 345.67 516.60 347.12 522.70 348.46 C 523.10 349.29 523.50 350.13 523.92 350.97 C 510.19 347.94 496.19 346.29 482.16 345.54 C 482.27 344.79 482.39 344.04 482.53 343.30 Z" />
</g>
<g id="#3b87cfff">
<path fill="#3b87cf" opacity="1.00" d=" M 476.01 349.61 C 477.76 349.66 479.50 349.72 481.26 349.79 C 481.02 355.86 481.11 361.92 481.35 367.99 C 481.63 371.60 480.09 375.23 477.80 377.95 C 476.49 368.58 475.04 359.09 476.01 349.61 Z" />
</g>
<g id="#1e73c4ff">
<path fill="#1e73c4" opacity="1.00" d=" M 340.12 380.19 C 347.39 379.84 354.69 379.79 361.97 380.17 C 361.66 380.54 361.05 381.29 360.74 381.66 C 354.11 381.16 347.46 381.30 340.83 381.53 C 340.65 381.19 340.30 380.52 340.12 380.19 Z" />
</g>
<g id="#ff9833ff">
<path fill="#ff9833" opacity="1.00" d=" M 566.41 409.97 C 574.28 400.97 582.84 392.54 591.71 384.53 C 592.52 385.33 593.33 386.13 594.15 386.93 C 591.59 390.34 588.77 393.80 587.65 398.00 C 586.99 399.85 588.48 402.24 590.57 401.48 C 594.96 399.85 598.35 396.43 601.62 393.20 C 614.05 405.62 624.87 419.61 634.36 434.37 C 622.66 429.83 610.21 426.48 597.56 427.19 C 587.61 420.69 577.00 415.31 566.41 409.97 Z" />
<path fill="#ff9833" opacity="1.00" d=" M 207.00 488.81 C 208.30 487.40 209.55 485.97 210.77 484.51 C 217.31 505.08 224.00 525.61 230.09 546.32 L 230.18 546.66 C 225.86 551.49 221.59 556.37 217.05 561.00 C 215.10 559.93 213.14 558.87 211.18 557.83 C 215.37 551.04 220.48 543.39 218.87 535.03 C 215.19 534.87 212.37 537.50 209.78 539.73 C 205.91 543.33 202.21 547.11 198.60 550.97 C 178.79 539.50 159.26 527.19 141.91 512.19 L 143.45 512.25 C 142.35 510.93 141.24 509.63 140.11 508.35 C 141.81 508.05 143.51 507.77 145.20 507.46 C 142.24 507.02 139.20 506.78 136.27 507.55 C 136.18 507.25 136.01 506.64 135.93 506.33 C 152.30 506.92 169.30 508.66 185.09 503.23 C 193.47 500.33 200.77 495.02 207.00 488.81 Z" />
</g>
<g id="#f8c99cff">
<path fill="#f8c99c" opacity="1.00" d=" M 387.37 386.42 C 388.50 386.31 389.64 386.20 390.78 386.09 C 390.83 386.40 390.92 387.02 390.97 387.33 C 392.32 397.72 394.34 408.01 395.66 418.41 C 394.55 418.56 393.45 418.72 392.35 418.88 C 390.57 408.23 389.26 397.52 387.44 386.88 L 387.37 386.42 Z" />
</g>
<g id="#ef5d28ff">
<path fill="#ef5d28" opacity="1.00" d=" M 565.48 409.54 L 566.41 409.97 C 577.00 415.31 587.61 420.69 597.56 427.19 C 594.35 427.71 591.18 428.44 588.04 429.27 L 588.54 431.04 C 587.95 430.85 586.79 430.47 586.21 430.28 L 586.37 430.11 C 586.66 429.80 587.23 429.18 587.52 428.88 C 580.33 422.99 573.11 417.15 566.01 411.16 L 565.48 409.54 Z" />
<path fill="#ef5d28" opacity="1.00" d=" M 210.77 484.51 C 212.47 482.47 214.11 480.38 215.78 478.31 C 227.83 489.74 238.90 502.16 249.64 514.80 L 249.79 514.93 C 244.33 526.02 238.27 536.97 230.09 546.32 C 224.00 525.61 217.31 505.08 210.77 484.51 Z" />
</g>
<g id="#ff9733ff">
<path fill="#ff9733" opacity="1.00" d=" M 489.29 412.66 C 490.25 412.10 491.22 411.56 492.20 411.02 C 495.29 413.79 498.60 416.31 501.90 418.83 C 504.07 420.49 506.17 422.25 508.19 424.10 C 507.62 424.55 506.46 425.44 505.89 425.89 C 503.99 425.31 502.54 423.85 500.95 422.74 C 497.75 420.24 494.57 417.73 491.26 415.39 C 491.14 415.23 490.92 414.92 490.80 414.76 C 490.42 414.23 489.67 413.19 489.29 412.66 Z" />
</g>
<g id="#3f1a41ff">
<path fill="#3f1a41" opacity="1.00" d=" M 490.87 445.21 C 491.63 440.02 490.95 434.34 493.58 429.62 C 493.90 434.86 492.93 440.05 492.24 445.23 L 490.87 445.21 Z" />
</g>
<g id="#090326ff">
<path fill="#090326" opacity="1.00" d=" M 173.72 458.43 C 178.19 462.49 182.45 466.80 186.47 471.31 L 184.83 471.20 C 180.86 467.86 177.16 464.12 173.88 460.11 L 173.72 458.43 Z" />
</g>
<g id="#ff8c1eff">
<path fill="#ff8c1e" opacity="1.00" d=" M 136.27 507.55 C 139.20 506.78 142.24 507.02 145.20 507.46 C 143.51 507.77 141.81 508.05 140.11 508.35 C 141.24 509.63 142.35 510.93 143.45 512.25 L 141.91 512.19 C 139.90 510.80 138.17 509.06 136.27 507.55 Z" />
</g>
</svg>
