<?xml version="1.0" encoding="UTF-8" ?>
<!DOCTYPE svg PUBLIC "-//W3C//DTD SVG 1.1//EN" "http://www.w3.org/Graphics/SVG/1.1/DTD/svg11.dtd">
<svg width="442pt" height="164pt" viewBox="0 0 442 164" version="1.1" xmlns="http://www.w3.org/2000/svg">
<g id="#ffffffff">
<path fill="#ffffff" opacity="1.00" d=" M 0.00 0.00 L 442.00 0.00 L 442.00 164.00 L 0.00 164.00 L 0.00 0.00 M 50.70 34.63 C 37.93 40.42 28.30 52.38 25.09 65.99 C 23.52 72.03 24.03 78.32 24.32 84.48 C 26.74 98.93 35.92 112.23 49.12 118.82 C 48.81 120.43 48.59 122.06 48.35 123.68 L 48.03 123.89 C 47.74 128.30 47.49 132.71 47.35 137.13 C 58.75 137.12 70.16 137.16 81.56 137.11 C 98.52 137.15 115.48 137.12 132.44 137.13 C 132.45 125.04 132.43 112.95 132.43 100.87 C 132.45 89.58 132.43 78.29 132.42 67.01 C 132.44 61.97 132.44 56.94 132.43 51.91 C 125.19 51.80 117.99 52.75 110.97 54.51 C 102.70 39.96 86.69 29.40 69.66 30.01 C 63.19 30.74 56.54 31.52 50.70 34.63 M 283.68 64.08 C 285.48 65.51 288.01 65.45 290.18 66.00 C 291.56 63.41 292.67 59.88 296.00 59.30 C 299.58 58.16 303.62 60.56 304.51 64.15 C 305.18 67.27 303.51 70.24 301.72 72.66 C 295.70 80.51 288.99 87.82 283.26 95.89 C 292.95 96.09 302.64 96.02 312.34 95.94 C 312.36 93.90 312.42 91.85 312.24 89.82 C 307.50 88.53 302.41 89.55 297.53 89.25 C 302.29 82.82 308.70 77.31 311.44 69.61 C 314.02 61.84 308.05 53.02 299.92 52.44 C 292.41 51.06 284.71 56.48 283.68 64.08 M 150.76 53.40 C 154.97 60.69 159.87 67.54 164.44 74.59 C 165.27 75.93 166.13 77.35 166.12 78.98 C 166.37 84.62 166.03 90.26 166.26 95.89 C 168.80 95.96 171.35 95.98 173.89 95.95 C 174.26 89.94 173.71 83.91 174.17 77.90 C 174.87 75.32 176.76 73.27 178.14 71.03 C 181.96 65.17 186.12 59.51 189.51 53.38 C 186.58 53.34 183.59 52.96 180.71 53.58 C 176.69 58.71 173.77 64.60 170.14 70.01 C 166.51 64.60 163.59 58.70 159.59 53.56 C 156.69 52.98 153.70 53.33 150.76 53.40 M 208.18 53.19 C 202.01 54.75 196.61 59.20 194.16 65.10 C 190.93 72.79 191.73 82.34 197.01 88.95 C 205.14 99.14 222.30 99.63 231.33 90.39 C 239.81 81.65 239.37 65.76 230.09 57.75 C 224.19 52.60 215.63 51.24 208.18 53.19 M 244.44 53.46 C 243.58 54.76 243.99 56.50 243.82 57.98 C 243.87 65.01 243.87 72.03 243.84 79.06 C 243.86 83.02 243.91 87.29 246.26 90.67 C 249.22 95.14 254.83 96.95 259.98 96.98 C 265.20 97.11 270.98 95.58 274.22 91.18 C 277.08 87.42 276.96 82.47 276.98 77.97 C 276.87 69.75 277.09 61.53 276.82 53.31 C 274.33 53.28 271.83 53.15 269.36 53.44 C 268.15 63.53 269.74 73.81 268.57 83.92 C 267.76 89.65 260.60 90.96 256.06 88.98 C 252.93 87.72 251.90 84.08 251.90 81.00 C 251.68 71.77 252.06 62.53 251.72 53.30 C 249.29 53.27 246.85 53.14 244.44 53.46 M 320.27 65.00 C 320.39 75.36 320.03 85.72 320.48 96.07 C 322.94 96.02 325.41 95.96 327.88 95.86 C 328.06 88.01 327.91 80.15 327.98 72.30 C 332.33 77.77 336.40 83.46 340.91 88.81 C 345.39 83.39 349.52 77.71 353.87 72.18 C 353.91 80.09 353.81 87.99 353.94 95.89 C 356.41 95.97 358.89 96.01 361.37 96.05 C 361.77 85.71 361.44 75.35 361.56 65.01 C 361.49 60.49 362.06 55.84 360.58 51.49 C 353.49 59.54 347.51 68.48 340.89 76.90 C 335.77 70.11 330.61 63.36 325.57 56.51 C 324.24 54.75 322.87 52.92 320.81 51.97 C 319.91 56.25 320.33 60.66 320.27 65.00 M 370.12 53.34 C 369.89 67.53 369.93 81.73 370.10 95.91 C 378.47 96.06 386.84 96.04 395.21 95.93 C 395.24 93.67 395.23 91.41 395.20 89.15 C 389.40 89.02 383.60 89.08 377.81 89.07 C 377.80 86.69 377.80 84.31 377.81 81.93 C 382.86 81.93 387.92 81.98 392.98 81.82 C 392.92 79.67 393.01 77.53 392.92 75.38 C 387.88 75.26 382.84 75.31 377.81 75.30 C 377.80 70.27 377.80 65.23 377.81 60.20 C 383.64 60.20 389.47 60.24 395.30 60.13 C 395.27 57.91 395.36 55.63 394.89 53.45 C 386.65 53.01 378.37 53.34 370.12 53.34 M 287.59 115.69 C 287.24 117.27 286.90 118.86 286.55 120.44 C 286.83 122.84 287.07 125.24 287.38 127.64 C 288.02 125.02 287.07 121.44 290.16 120.14 C 289.54 120.17 288.29 120.25 287.67 120.28 C 287.77 119.41 287.97 117.66 288.06 116.79 C 288.81 116.15 289.56 115.51 290.31 114.88 C 289.63 115.08 288.27 115.48 287.59 115.69 M 313.46 114.34 C 312.90 118.78 312.85 123.30 313.54 127.72 C 314.11 123.29 314.11 118.77 313.46 114.34 M 201.93 126.81 C 204.49 127.43 206.38 125.41 208.17 123.97 C 205.74 124.69 203.11 126.94 200.52 125.45 C 197.78 123.75 198.00 118.99 200.93 117.58 C 203.53 116.56 205.73 118.80 208.02 119.66 C 206.35 118.18 204.73 115.84 202.16 116.41 C 196.66 116.59 196.47 126.46 201.93 126.81 M 296.21 116.12 C 296.17 119.82 296.10 123.51 296.10 127.20 C 298.10 126.88 300.15 126.73 302.09 126.10 C 302.95 124.51 302.27 122.69 301.91 121.07 C 301.77 119.69 301.64 118.26 301.06 116.99 C 299.48 116.55 297.83 116.38 296.21 116.12 M 258.33 118.22 C 258.83 118.76 258.83 118.76 258.33 118.22 M 261.17 120.99 C 261.50 121.07 262.15 121.23 262.48 121.31 C 262.78 123.42 262.72 125.57 263.15 127.67 C 263.37 125.12 263.58 122.56 263.78 120.01 C 265.34 120.81 267.02 121.62 267.61 123.43 C 269.34 126.10 267.06 128.97 266.52 131.65 C 269.03 127.94 270.70 123.76 272.26 119.59 C 271.13 121.01 270.26 122.67 268.86 123.86 C 268.14 122.84 267.48 121.81 266.81 120.78 C 265.09 120.18 263.30 119.54 263.15 117.42 C 262.47 118.60 261.80 119.79 261.17 120.99 M 210.47 120.68 C 209.11 121.57 208.92 123.53 209.41 124.96 C 210.38 127.90 215.93 127.38 215.82 124.05 C 216.68 120.94 212.85 119.10 210.47 120.68 M 218.09 120.37 C 218.29 122.79 218.46 125.22 218.76 127.64 C 219.07 125.60 219.33 123.57 219.58 121.53 C 220.25 121.37 221.60 121.04 222.27 120.88 C 222.60 123.13 222.95 125.38 223.36 127.62 C 223.54 125.57 223.63 123.52 223.74 121.48 C 224.69 121.33 225.64 121.18 226.60 121.03 C 226.88 123.26 227.18 125.49 227.62 127.71 C 227.83 125.28 227.76 122.85 227.70 120.42 C 224.49 120.44 221.29 120.44 218.09 120.37 M 230.08 120.25 C 230.11 122.73 230.11 125.21 230.23 127.69 C 230.75 125.61 231.11 123.50 231.52 121.39 C 232.23 121.29 233.65 121.08 234.36 120.97 C 234.43 122.96 234.53 124.95 234.57 126.94 C 234.79 126.92 235.22 126.89 235.44 126.87 C 235.45 124.92 235.46 122.97 235.49 121.02 C 239.57 120.39 238.68 125.09 239.53 127.65 C 239.59 125.22 239.55 122.79 239.48 120.36 C 238.09 120.40 236.70 120.46 235.31 120.55 C 233.57 120.42 231.82 120.36 230.08 120.25 M 241.92 120.03 C 242.09 122.24 242.25 124.46 242.44 126.67 C 244.25 126.65 246.06 126.64 247.87 126.61 C 247.68 124.18 247.54 121.75 247.27 119.33 C 246.92 121.42 246.65 123.52 246.37 125.62 C 245.34 125.75 244.31 125.88 243.29 126.00 C 243.08 124.02 242.88 122.04 242.70 120.06 L 241.92 120.03 M 250.12 120.34 C 250.14 122.56 250.14 124.78 250.11 127.00 L 250.78 127.02 C 250.97 125.13 251.18 123.23 251.40 121.34 C 252.41 121.29 253.42 121.24 254.43 121.20 C 254.72 123.37 254.98 125.55 255.39 127.70 C 255.56 125.31 255.56 122.91 255.54 120.51 C 253.73 120.45 251.93 120.39 250.12 120.34 M 258.47 120.34 C 257.79 122.14 257.30 125.40 258.74 126.70 C 259.39 124.89 259.84 121.64 258.47 120.34 M 279.37 120.38 C 277.12 121.06 276.89 124.15 278.06 125.86 C 279.39 127.12 281.61 127.12 283.14 126.21 C 284.15 125.16 283.72 123.49 283.72 122.18 C 283.68 120.05 280.90 119.95 279.37 120.38 M 304.89 126.17 C 306.80 127.44 309.05 126.32 310.98 125.72 C 308.56 125.76 305.88 126.07 304.08 124.06 C 306.55 123.84 309.03 123.75 311.51 123.55 C 310.18 122.22 309.22 119.71 306.94 120.19 C 303.87 119.99 303.28 124.30 304.89 126.17 M 316.66 120.36 C 315.92 122.30 315.90 124.75 316.66 126.69 C 317.98 125.59 317.98 121.43 316.66 120.36 M 320.37 125.66 C 321.96 127.86 324.76 126.21 326.80 125.73 C 324.27 125.79 321.60 125.98 319.64 124.04 C 322.20 123.85 324.76 123.72 327.32 123.51 C 325.99 122.28 325.13 119.93 322.97 120.17 C 320.22 119.88 318.44 123.70 320.37 125.66 M 327.58 119.35 C 328.33 122.13 329.47 124.78 330.65 127.39 C 331.72 124.77 332.79 122.14 333.60 119.43 C 332.49 121.23 331.46 123.08 330.50 124.96 C 329.61 123.05 328.64 121.18 327.58 119.35 M 335.86 126.17 C 337.79 127.45 340.04 126.31 342.00 125.72 C 339.61 125.67 336.83 126.19 335.12 124.03 C 337.58 123.87 340.04 123.71 342.51 123.56 C 341.18 122.24 340.25 119.71 337.96 120.19 C 334.87 119.98 334.32 124.24 335.86 126.17 M 343.53 120.51 C 343.71 122.89 343.87 125.29 344.18 127.66 C 344.45 125.75 344.68 123.84 344.91 121.92 C 345.85 121.38 346.80 120.84 347.76 120.30 C 346.34 120.37 344.93 120.44 343.53 120.51 M 348.36 120.29 C 347.44 123.26 351.09 124.32 352.67 126.12 C 350.76 125.91 348.85 125.71 346.93 125.62 C 348.97 126.43 351.14 126.70 353.31 126.90 C 352.69 124.24 350.59 122.56 348.47 121.07 C 350.17 121.16 351.89 121.27 353.61 121.29 C 351.92 120.68 350.16 120.23 348.36 120.29 Z" />
<path fill="#ffffff" opacity="1.00" d=" M 48.98 66.98 C 52.71 59.03 60.97 53.68 69.74 53.32 C 73.57 53.72 77.27 54.87 80.82 56.34 C 83.89 58.37 86.62 60.89 89.01 63.67 C 75.61 71.63 64.67 83.39 57.16 97.00 C 53.36 93.79 49.96 89.96 48.18 85.24 C 46.28 79.33 46.13 72.63 48.98 66.98 Z" />
<path fill="#ffffff" opacity="1.00" d=" M 209.32 60.53 C 216.25 57.89 225.16 60.80 228.16 67.85 C 231.57 75.26 228.71 85.62 220.67 88.61 C 213.18 91.82 203.20 88.05 200.90 79.93 C 198.35 72.60 201.60 63.12 209.32 60.53 Z" />
<path fill="#ffffff" opacity="1.00" d=" M 296.91 116.98 C 298.24 117.24 299.56 117.54 300.87 117.89 C 301.96 120.59 298.99 120.61 297.24 121.26 C 297.16 120.19 296.99 118.05 296.91 116.98 Z" />
<path fill="#ffffff" opacity="1.00" d=" M 210.31 121.30 C 211.80 121.28 213.29 121.26 214.78 121.28 C 214.78 122.78 214.76 124.28 214.73 125.78 C 213.25 125.77 211.77 125.72 210.29 125.69 C 210.28 124.22 210.29 122.76 210.31 121.30 Z" />
<path fill="#ffffff" opacity="1.00" d=" M 278.43 121.45 C 279.95 121.32 281.49 121.24 283.03 121.15 C 282.95 122.64 282.90 124.14 282.71 125.63 C 281.30 125.78 279.87 125.78 278.46 125.80 C 278.43 124.35 278.43 122.90 278.43 121.45 Z" />
<path fill="#ffffff" opacity="1.00" d=" M 305.30 122.21 C 305.80 120.73 308.62 120.66 309.12 122.16 C 308.60 123.55 305.80 123.65 305.30 122.21 Z" />
<path fill="#ffffff" opacity="1.00" d=" M 322.08 121.26 C 322.97 120.79 325.58 121.26 324.70 122.68 C 323.61 124.12 319.44 122.53 322.08 121.26 Z" />
<path fill="#ffffff" opacity="1.00" d=" M 337.29 121.27 C 338.16 120.79 340.81 121.27 339.88 122.68 C 338.78 124.12 334.59 122.53 337.29 121.27 Z" />
<path fill="#ffffff" opacity="1.00" d=" M 296.93 121.69 C 298.42 121.67 299.91 121.66 301.40 121.65 C 301.54 122.91 301.69 124.18 301.83 125.45 C 300.17 125.74 298.51 126.02 296.86 126.29 C 296.88 124.75 296.90 123.22 296.93 121.69 Z" />
</g>
<g id="#8a40f5ff">
<path fill="#8a40f5" opacity="1.00" d=" M 50.70 34.63 C 56.54 31.52 63.19 30.74 69.66 30.01 C 69.74 37.78 69.69 45.55 69.74 53.32 C 60.97 53.68 52.71 59.03 48.98 66.98 C 46.13 72.63 46.28 79.33 48.18 85.24 C 40.30 83.82 32.28 84.41 24.32 84.48 C 24.03 78.32 23.52 72.03 25.09 65.99 C 28.30 52.38 37.93 40.42 50.70 34.63 Z" />
</g>
<g id="#fe975cff">
<path fill="#fe975c" opacity="1.00" d=" M 69.66 30.01 C 86.69 29.40 102.70 39.96 110.97 54.51 C 117.99 52.75 125.19 51.80 132.43 51.91 C 132.44 56.94 132.44 61.97 132.42 67.01 C 127.36 70.54 122.32 74.08 117.11 77.37 C 116.10 70.24 114.39 63.19 111.42 56.60 C 101.22 56.41 91.00 56.99 80.82 56.34 C 77.27 54.87 73.57 53.72 69.74 53.32 C 69.69 45.55 69.74 37.78 69.66 30.01 Z" />
<path fill="#fe975c" opacity="1.00" d=" M 57.16 97.00 C 64.67 83.39 75.61 71.63 89.01 63.67 C 94.97 71.47 94.21 82.57 89.28 90.68 C 85.07 97.45 77.32 100.62 69.75 101.79 C 69.54 104.24 69.36 106.70 69.17 109.15 C 62.50 114.37 55.52 119.19 48.35 123.68 C 48.59 122.06 48.81 120.43 49.12 118.82 C 50.71 111.21 53.46 103.84 57.16 97.00 Z" />
</g>
<g id="#c535daff">
<path fill="#c535da" opacity="1.00" d=" M 283.68 64.08 C 284.71 56.48 292.41 51.06 299.92 52.44 C 308.05 53.02 314.02 61.84 311.44 69.61 C 308.70 77.31 302.29 82.82 297.53 89.25 C 302.41 89.55 307.50 88.53 312.24 89.82 C 312.42 91.85 312.36 93.90 312.34 95.94 C 302.64 96.02 292.95 96.09 283.26 95.89 C 288.99 87.82 295.70 80.51 301.72 72.66 C 303.51 70.24 305.18 67.27 304.51 64.15 C 303.62 60.56 299.58 58.16 296.00 59.30 C 292.67 59.88 291.56 63.41 290.18 66.00 C 288.01 65.45 285.48 65.51 283.68 64.08 Z" />
<path fill="#c535da" opacity="1.00" d=" M 150.76 53.40 C 153.70 53.33 156.69 52.98 159.59 53.56 C 163.59 58.70 166.51 64.60 170.14 70.01 C 173.77 64.60 176.69 58.71 180.71 53.58 C 183.59 52.96 186.58 53.34 189.51 53.38 C 186.12 59.51 181.96 65.17 178.14 71.03 C 176.76 73.27 174.87 75.32 174.17 77.90 C 173.71 83.91 174.26 89.94 173.89 95.95 C 171.35 95.98 168.80 95.96 166.26 95.89 C 166.03 90.26 166.37 84.62 166.12 78.98 C 166.13 77.35 165.27 75.93 164.44 74.59 C 159.87 67.54 154.97 60.69 150.76 53.40 Z" />
<path fill="#c535da" opacity="1.00" d=" M 208.18 53.19 C 215.63 51.24 224.19 52.60 230.09 57.75 C 239.37 65.76 239.81 81.65 231.33 90.39 C 222.30 99.63 205.14 99.14 197.01 88.95 C 191.73 82.34 190.93 72.79 194.16 65.10 C 196.61 59.20 202.01 54.75 208.18 53.19 M 209.32 60.53 C 201.60 63.12 198.35 72.60 200.90 79.93 C 203.20 88.05 213.18 91.82 220.67 88.61 C 228.71 85.62 231.57 75.26 228.16 67.85 C 225.16 60.80 216.25 57.89 209.32 60.53 Z" />
<path fill="#c535da" opacity="1.00" d=" M 244.44 53.46 C 246.85 53.14 249.29 53.27 251.72 53.30 C 252.06 62.53 251.68 71.77 251.90 81.00 C 251.90 84.08 252.93 87.72 256.06 88.98 C 260.60 90.96 267.76 89.65 268.57 83.92 C 269.74 73.81 268.15 63.53 269.36 53.44 C 271.83 53.15 274.33 53.28 276.82 53.31 C 277.09 61.53 276.87 69.75 276.98 77.97 C 276.96 82.47 277.08 87.42 274.22 91.18 C 270.98 95.58 265.20 97.11 259.98 96.98 C 254.83 96.95 249.22 95.14 246.26 90.67 C 243.91 87.29 243.86 83.02 243.84 79.06 C 243.87 72.03 243.87 65.01 243.82 57.98 C 243.99 56.50 243.58 54.76 244.44 53.46 Z" />
<path fill="#c535da" opacity="1.00" d=" M 320.27 65.00 C 320.33 60.66 319.91 56.25 320.81 51.97 C 322.87 52.92 324.24 54.75 325.57 56.51 C 330.61 63.36 335.77 70.11 340.89 76.90 C 347.51 68.48 353.49 59.54 360.58 51.49 C 362.06 55.84 361.49 60.49 361.56 65.01 C 361.44 75.35 361.77 85.71 361.37 96.05 C 358.89 96.01 356.41 95.97 353.94 95.89 C 353.81 87.99 353.91 80.09 353.87 72.18 C 349.52 77.71 345.39 83.39 340.91 88.81 C 336.40 83.46 332.33 77.77 327.98 72.30 C 327.91 80.15 328.06 88.01 327.88 95.86 C 325.41 95.96 322.94 96.02 320.48 96.07 C 320.03 85.72 320.39 75.36 320.27 65.00 Z" />
<path fill="#c535da" opacity="1.00" d=" M 370.12 53.34 C 378.37 53.34 386.65 53.01 394.89 53.45 C 395.36 55.63 395.27 57.91 395.30 60.13 C 389.47 60.24 383.64 60.20 377.81 60.20 C 377.80 65.23 377.80 70.27 377.81 75.30 C 382.84 75.31 387.88 75.26 392.92 75.38 C 393.01 77.53 392.92 79.67 392.98 81.82 C 387.92 81.98 382.86 81.93 377.81 81.93 C 377.80 84.31 377.80 86.69 377.81 89.07 C 383.60 89.08 389.40 89.02 395.20 89.15 C 395.23 91.41 395.24 93.67 395.21 95.93 C 386.84 96.04 378.47 96.06 370.10 95.91 C 369.93 81.73 369.89 67.53 370.12 53.34 Z" />
<path fill="#c535da" opacity="1.00" d=" M 24.32 84.48 C 32.28 84.41 40.30 83.82 48.18 85.24 C 49.96 89.96 53.36 93.79 57.16 97.00 C 53.46 103.84 50.71 111.21 49.12 118.82 C 35.92 112.23 26.74 98.93 24.32 84.48 Z" />
</g>
<g id="#fe6c82ff">
<path fill="#fe6c82" opacity="1.00" d=" M 80.82 56.34 C 91.00 56.99 101.22 56.41 111.42 56.60 C 114.39 63.19 116.10 70.24 117.11 77.37 C 122.32 74.08 127.36 70.54 132.42 67.01 C 132.43 78.29 132.45 89.58 132.43 100.87 C 125.02 105.95 117.61 111.04 110.36 116.36 C 100.80 123.34 90.85 129.77 81.56 137.11 C 70.16 137.16 58.75 137.12 47.35 137.13 C 47.49 132.71 47.74 128.30 48.03 123.89 L 48.35 123.68 C 55.52 119.19 62.50 114.37 69.17 109.15 C 69.36 106.70 69.54 104.24 69.75 101.79 C 70.10 109.58 70.00 117.37 69.93 125.16 C 76.11 124.55 82.37 123.72 88.09 121.15 C 100.77 115.98 110.62 104.60 114.07 91.37 C 105.80 91.53 97.53 91.31 89.28 90.68 C 94.21 82.57 94.97 71.47 89.01 63.67 C 86.62 60.89 83.89 58.37 80.82 56.34 Z" />
</g>
<g id="#ff4d9eff">
<path fill="#ff4d9e" opacity="1.00" d=" M 89.28 90.68 C 97.53 91.31 105.80 91.53 114.07 91.37 C 110.62 104.60 100.77 115.98 88.09 121.15 C 82.37 123.72 76.11 124.55 69.93 125.16 C 70.00 117.37 70.10 109.58 69.75 101.79 C 77.32 100.62 85.07 97.45 89.28 90.68 Z" />
<path fill="#ff4d9e" opacity="1.00" d=" M 110.36 116.36 C 117.61 111.04 125.02 105.95 132.43 100.87 C 132.43 112.95 132.45 125.04 132.44 137.13 C 115.48 137.12 98.52 137.15 81.56 137.11 C 90.85 129.77 100.80 123.34 110.36 116.36 Z" />
<path fill="#ff4d9e" opacity="1.00" d=" M 287.59 115.69 C 288.27 115.48 289.63 115.08 290.31 114.88 C 289.56 115.51 288.81 116.15 288.06 116.79 C 287.97 117.66 287.77 119.41 287.67 120.28 C 288.29 120.25 289.54 120.17 290.16 120.14 C 287.07 121.44 288.02 125.02 287.38 127.64 C 287.07 125.24 286.83 122.84 286.55 120.44 C 286.90 118.86 287.24 117.27 287.59 115.69 Z" />
<path fill="#ff4d9e" opacity="1.00" d=" M 313.46 114.34 C 314.11 118.77 314.11 123.29 313.54 127.72 C 312.85 123.30 312.90 118.78 313.46 114.34 Z" />
<path fill="#ff4d9e" opacity="1.00" d=" M 201.93 126.81 C 196.47 126.46 196.66 116.59 202.16 116.41 C 204.73 115.84 206.35 118.18 208.02 119.66 C 205.73 118.80 203.53 116.56 200.93 117.58 C 198.00 118.99 197.78 123.75 200.52 125.45 C 203.11 126.94 205.74 124.69 208.17 123.97 C 206.38 125.41 204.49 127.43 201.93 126.81 Z" />
<path fill="#ff4d9e" opacity="1.00" d=" M 296.21 116.12 C 297.83 116.38 299.48 116.55 301.06 116.99 C 301.64 118.26 301.77 119.69 301.91 121.07 C 302.27 122.69 302.95 124.51 302.09 126.10 C 300.15 126.73 298.10 126.88 296.10 127.20 C 296.10 123.51 296.17 119.82 296.21 116.12 M 296.91 116.98 C 296.99 118.05 297.16 120.19 297.24 121.26 C 298.99 120.61 301.96 120.59 300.87 117.89 C 299.56 117.54 298.24 117.24 296.91 116.98 M 296.93 121.69 C 296.90 123.22 296.88 124.75 296.86 126.29 C 298.51 126.02 300.17 125.74 301.83 125.45 C 301.69 124.18 301.54 122.91 301.40 121.65 C 299.91 121.66 298.42 121.67 296.93 121.69 Z" />
<path fill="#ff4d9e" opacity="1.00" d=" M 258.33 118.22 C 258.83 118.76 258.83 118.76 258.33 118.22 Z" />
<path fill="#ff4d9e" opacity="1.00" d=" M 261.17 120.99 C 261.80 119.79 262.47 118.60 263.15 117.42 C 263.30 119.54 265.09 120.18 266.81 120.78 C 267.48 121.81 268.14 122.84 268.86 123.86 C 270.26 122.67 271.13 121.01 272.26 119.59 C 270.70 123.76 269.03 127.94 266.52 131.65 C 267.06 128.97 269.34 126.10 267.61 123.43 C 267.02 121.62 265.34 120.81 263.78 120.01 C 263.58 122.56 263.37 125.12 263.15 127.67 C 262.72 125.57 262.78 123.42 262.48 121.31 C 262.15 121.23 261.50 121.07 261.17 120.99 Z" />
<path fill="#ff4d9e" opacity="1.00" d=" M 210.47 120.68 C 212.85 119.10 216.68 120.94 215.82 124.05 C 215.93 127.38 210.38 127.90 209.41 124.96 C 208.92 123.53 209.11 121.57 210.47 120.68 M 210.31 121.30 C 210.29 122.76 210.28 124.22 210.29 125.69 C 211.77 125.72 213.25 125.77 214.73 125.78 C 214.76 124.28 214.78 122.78 214.78 121.28 C 213.29 121.26 211.80 121.28 210.31 121.30 Z" />
<path fill="#ff4d9e" opacity="1.00" d=" M 218.09 120.37 C 221.29 120.44 224.49 120.44 227.70 120.42 C 227.76 122.85 227.83 125.28 227.62 127.71 C 227.18 125.49 226.88 123.26 226.60 121.03 C 225.64 121.18 224.69 121.33 223.74 121.48 C 223.63 123.52 223.54 125.57 223.36 127.62 C 222.95 125.38 222.60 123.13 222.27 120.88 C 221.60 121.04 220.25 121.37 219.58 121.53 C 219.33 123.57 219.07 125.60 218.76 127.64 C 218.46 125.22 218.29 122.79 218.09 120.37 Z" />
<path fill="#ff4d9e" opacity="1.00" d=" M 230.08 120.25 C 231.82 120.36 233.57 120.42 235.31 120.55 C 236.70 120.46 238.09 120.40 239.48 120.36 C 239.55 122.79 239.59 125.22 239.53 127.65 C 238.68 125.09 239.57 120.39 235.49 121.02 C 235.46 122.97 235.45 124.92 235.44 126.87 C 235.22 126.89 234.79 126.92 234.57 126.94 C 234.53 124.95 234.43 122.96 234.36 120.97 C 233.65 121.08 232.23 121.29 231.52 121.39 C 231.11 123.50 230.75 125.61 230.23 127.69 C 230.11 125.21 230.11 122.73 230.08 120.25 Z" />
<path fill="#ff4d9e" opacity="1.00" d=" M 241.92 120.03 L 242.70 120.06 C 242.88 122.04 243.08 124.02 243.29 126.00 C 244.31 125.88 245.34 125.75 246.37 125.62 C 246.65 123.52 246.92 121.42 247.27 119.33 C 247.54 121.75 247.68 124.18 247.87 126.61 C 246.06 126.64 244.25 126.65 242.44 126.67 C 242.25 124.46 242.09 122.24 241.92 120.03 Z" />
<path fill="#ff4d9e" opacity="1.00" d=" M 250.12 120.34 C 251.93 120.39 253.73 120.45 255.54 120.51 C 255.56 122.91 255.56 125.31 255.39 127.70 C 254.98 125.55 254.72 123.37 254.43 121.20 C 253.42 121.24 252.41 121.29 251.40 121.34 C 251.18 123.23 250.97 125.13 250.78 127.02 L 250.11 127.00 C 250.14 124.78 250.14 122.56 250.12 120.34 Z" />
<path fill="#ff4d9e" opacity="1.00" d=" M 258.47 120.34 C 259.84 121.64 259.39 124.89 258.74 126.70 C 257.30 125.40 257.79 122.14 258.47 120.34 Z" />
<path fill="#ff4d9e" opacity="1.00" d=" M 279.37 120.38 C 280.90 119.95 283.68 120.05 283.72 122.18 C 283.72 123.49 284.15 125.16 283.14 126.21 C 281.61 127.12 279.39 127.12 278.06 125.86 C 276.89 124.15 277.12 121.06 279.37 120.38 M 278.43 121.45 C 278.43 122.90 278.43 124.35 278.46 125.80 C 279.87 125.78 281.30 125.78 282.71 125.63 C 282.90 124.14 282.95 122.64 283.03 121.15 C 281.49 121.24 279.95 121.32 278.43 121.45 Z" />
<path fill="#ff4d9e" opacity="1.00" d=" M 304.89 126.17 C 303.28 124.30 303.87 119.99 306.94 120.19 C 309.22 119.71 310.18 122.22 311.51 123.55 C 309.03 123.75 306.55 123.84 304.08 124.06 C 305.88 126.07 308.56 125.76 310.98 125.72 C 309.05 126.32 306.80 127.44 304.89 126.17 M 305.30 122.21 C 305.80 123.65 308.60 123.55 309.12 122.16 C 308.62 120.66 305.80 120.73 305.30 122.21 Z" />
<path fill="#ff4d9e" opacity="1.00" d=" M 316.66 120.36 C 317.98 121.43 317.98 125.59 316.66 126.69 C 315.90 124.75 315.92 122.30 316.66 120.36 Z" />
<path fill="#ff4d9e" opacity="1.00" d=" M 320.37 125.66 C 318.44 123.70 320.22 119.88 322.97 120.17 C 325.13 119.93 325.99 122.28 327.32 123.51 C 324.76 123.72 322.20 123.85 319.64 124.04 C 321.60 125.98 324.27 125.79 326.80 125.73 C 324.76 126.21 321.96 127.86 320.37 125.66 M 322.08 121.26 C 319.44 122.53 323.61 124.12 324.70 122.68 C 325.58 121.26 322.97 120.79 322.08 121.26 Z" />
<path fill="#ff4d9e" opacity="1.00" d=" M 327.58 119.35 C 328.64 121.18 329.61 123.05 330.50 124.96 C 331.46 123.08 332.49 121.23 333.60 119.43 C 332.79 122.14 331.72 124.77 330.65 127.39 C 329.47 124.78 328.33 122.13 327.58 119.35 Z" />
<path fill="#ff4d9e" opacity="1.00" d=" M 335.86 126.17 C 334.32 124.24 334.87 119.98 337.96 120.19 C 340.25 119.71 341.18 122.24 342.51 123.56 C 340.04 123.71 337.58 123.87 335.12 124.03 C 336.83 126.19 339.61 125.67 342.00 125.72 C 340.04 126.31 337.79 127.45 335.86 126.17 M 337.29 121.27 C 334.59 122.53 338.78 124.12 339.88 122.68 C 340.81 121.27 338.16 120.79 337.29 121.27 Z" />
<path fill="#ff4d9e" opacity="1.00" d=" M 343.53 120.51 C 344.93 120.44 346.34 120.37 347.76 120.30 C 346.80 120.84 345.85 121.38 344.91 121.92 C 344.68 123.84 344.45 125.75 344.18 127.66 C 343.87 125.29 343.71 122.89 343.53 120.51 Z" />
<path fill="#ff4d9e" opacity="1.00" d=" M 348.36 120.29 C 350.16 120.23 351.92 120.68 353.61 121.29 C 351.89 121.27 350.17 121.16 348.47 121.07 C 350.59 122.56 352.69 124.24 353.31 126.90 C 351.14 126.70 348.97 126.43 346.93 125.62 C 348.85 125.71 350.76 125.91 352.67 126.12 C 351.09 124.32 347.44 123.26 348.36 120.29 Z" />
</g>
</svg>
