<?xml version="1.0" encoding="UTF-8" ?>
<!DOCTYPE svg PUBLIC "-//W3C//DTD SVG 1.1//EN" "http://www.w3.org/Graphics/SVG/1.1/DTD/svg11.dtd">
<svg width="1001pt" height="650pt" viewBox="0 0 1001 650" version="1.1" xmlns="http://www.w3.org/2000/svg">
<g id="#fcd9ebff">
<path fill="#fcd9eb" opacity="1.00" d=" M 0.00 0.00 L 11.24 0.00 C 11.27 21.34 11.20 42.68 11.27 64.02 C 11.79 75.10 12.18 86.30 15.01 97.09 C 18.82 112.80 26.89 127.37 37.89 139.18 C 46.48 148.63 57.19 155.77 66.18 164.78 C 72.38 170.76 77.91 177.49 82.18 184.99 C 88.55 196.02 92.12 208.41 94.38 220.88 C 62.92 215.56 31.44 210.34 0.00 204.88 L 0.00 0.00 Z" />
<path fill="#fcd9eb" opacity="1.00" d=" M 232.78 0.00 L 1001.00 0.00 L 1001.00 650.00 L 973.73 650.00 C 974.14 641.66 974.41 633.32 974.33 624.98 C 975.95 625.16 977.60 625.38 979.24 625.59 C 979.37 623.59 979.53 621.60 979.78 619.62 C 981.15 616.99 981.41 614.00 981.86 611.12 C 979.36 610.36 976.86 609.62 974.35 608.93 C 974.48 602.12 974.15 595.32 974.23 588.52 C 974.85 588.52 976.09 588.53 976.71 588.53 C 976.43 585.86 976.14 583.20 975.87 580.53 L 976.95 580.69 C 977.19 578.08 977.45 575.47 977.71 572.87 C 961.04 570.30 944.27 568.42 927.56 566.12 C 917.70 564.95 907.90 563.31 898.01 562.43 C 897.74 565.09 897.42 567.77 897.32 570.45 C 897.73 570.52 898.55 570.66 898.96 570.73 C 898.56 574.26 897.98 577.77 897.27 581.26 C 895.95 581.27 894.64 581.29 893.34 581.32 C 893.82 584.16 893.38 587.49 895.50 589.77 C 895.16 591.78 894.97 593.82 894.85 595.88 C 894.75 599.75 894.25 603.61 893.13 607.32 C 892.60 607.29 891.55 607.21 891.02 607.17 C 890.96 610.10 891.04 613.04 891.21 615.98 C 891.43 620.38 890.10 624.63 889.39 628.93 C 888.21 635.94 886.87 642.94 885.97 650.00 L 769.75 650.00 C 770.92 616.35 771.61 582.69 772.84 549.05 C 777.22 547.72 781.56 546.30 785.89 544.82 C 786.44 544.76 787.53 544.65 788.08 544.59 C 788.56 550.17 788.97 555.76 789.68 561.33 C 792.81 561.17 795.94 560.96 799.08 560.71 C 798.96 557.75 798.81 554.79 798.63 551.84 C 800.38 551.79 802.14 551.76 803.91 551.72 C 803.98 547.43 803.94 543.14 804.23 538.86 C 814.56 536.99 818.22 523.51 813.36 515.16 C 816.66 510.45 820.18 505.14 819.49 499.09 C 819.42 496.01 817.67 493.44 816.40 490.77 C 817.96 488.05 819.32 485.17 819.11 481.95 C 831.49 473.11 840.65 460.80 849.98 448.99 C 854.19 443.93 857.49 438.14 862.19 433.48 C 866.58 449.36 870.46 465.43 876.11 480.93 C 879.22 489.30 883.77 497.04 888.56 504.55 C 892.47 510.48 899.27 514.31 901.67 521.24 C 902.97 526.59 902.04 532.15 901.93 537.58 C 900.37 537.53 898.83 537.48 897.29 537.44 C 897.25 540.20 897.24 542.96 897.26 545.72 C 898.62 545.72 899.98 545.72 901.36 545.73 C 901.31 547.81 901.27 549.90 901.24 551.99 C 899.83 551.98 898.44 551.99 897.06 552.00 C 897.27 554.72 897.39 557.44 897.54 560.17 L 897.62 561.34 C 904.31 563.05 911.24 563.49 918.06 564.46 C 934.75 566.70 951.47 568.74 968.16 571.00 C 971.07 571.43 974.02 571.57 976.97 571.60 C 977.20 569.02 977.47 566.45 977.75 563.88 C 976.34 563.63 974.93 563.38 973.54 563.19 C 973.43 561.88 973.34 560.57 973.25 559.28 C 975.60 559.27 977.95 559.24 980.31 559.22 C 980.02 556.56 979.74 553.91 979.46 551.26 C 977.53 551.25 975.60 551.24 973.69 551.30 C 973.51 550.20 973.34 549.11 973.18 548.03 C 974.72 547.81 976.28 547.60 977.84 547.40 C 977.78 544.76 977.72 542.13 977.62 539.51 C 976.11 539.50 974.60 539.49 973.12 539.48 C 972.93 531.31 972.97 523.13 972.99 514.95 C 972.95 510.84 975.75 507.50 976.59 503.59 C 979.10 493.07 976.78 482.27 974.72 471.89 C 973.34 466.26 975.71 460.73 975.86 455.11 C 976.22 447.85 976.40 439.96 972.38 433.58 C 970.18 429.95 965.46 427.86 961.39 429.48 C 957.60 431.26 955.63 435.22 954.39 439.01 C 953.56 434.06 952.35 427.97 946.81 426.33 C 941.66 424.10 936.87 427.74 933.72 431.50 C 932.04 417.31 932.93 402.75 929.13 388.86 C 928.06 385.47 926.38 381.45 922.59 380.48 C 918.71 379.98 915.80 383.83 915.46 387.37 C 913.80 400.89 915.43 414.56 914.57 428.12 C 912.32 415.07 910.58 401.76 905.58 389.41 C 904.23 385.85 901.74 382.69 897.98 381.58 C 900.57 377.94 902.72 374.01 904.93 370.13 C 898.87 369.70 892.67 370.97 886.75 369.25 C 909.17 369.02 931.58 369.63 954.00 369.49 C 954.00 365.51 954.00 361.54 954.00 357.56 C 944.30 357.34 934.58 357.85 924.90 357.28 C 934.58 357.53 944.27 357.27 953.96 357.41 C 953.99 353.37 954.18 349.34 954.33 345.31 C 944.55 345.15 934.76 345.48 924.99 345.12 C 934.74 345.23 944.49 345.09 954.24 345.19 C 954.24 341.25 954.24 337.31 954.28 333.38 C 944.49 333.16 934.69 333.59 924.92 333.14 C 934.69 333.27 944.48 333.10 954.26 333.22 C 954.24 329.24 954.24 325.25 954.27 321.27 C 944.18 321.15 934.08 321.45 924.00 321.10 C 934.08 321.21 944.15 321.10 954.23 321.15 C 954.19 317.22 954.26 313.29 954.52 309.37 C 944.33 309.29 934.13 309.64 923.95 309.21 C 934.12 309.38 944.31 309.20 954.49 309.27 C 954.50 305.33 954.50 301.39 954.51 297.46 C 944.30 297.24 934.07 297.73 923.87 297.20 C 934.08 297.37 944.30 297.14 954.51 297.32 C 954.49 293.30 954.50 289.28 954.49 285.26 C 954.47 281.25 954.44 277.25 954.34 273.24 L 955.03 273.27 C 955.28 276.15 955.33 279.04 955.41 281.93 C 959.48 274.89 962.14 267.17 965.99 260.03 C 968.63 255.18 970.52 249.99 972.87 245.00 C 980.95 227.84 985.46 208.99 986.04 190.05 C 985.18 178.41 983.73 166.40 978.05 156.00 C 974.88 148.94 969.88 142.96 964.81 137.22 C 958.80 132.12 952.89 126.78 946.00 122.88 C 936.73 116.94 925.97 114.05 915.36 111.58 C 905.70 109.57 895.80 109.94 886.01 110.01 C 867.41 111.12 849.35 116.01 831.67 121.61 C 817.75 126.69 803.89 132.05 790.61 138.64 C 782.14 142.18 773.97 146.38 766.03 150.96 C 751.73 158.01 738.11 166.35 724.30 174.31 C 720.08 176.90 715.74 179.28 711.73 182.19 C 663.57 186.44 615.40 190.65 567.23 194.87 C 566.86 190.02 568.69 185.48 569.78 180.85 C 572.25 170.65 575.38 160.50 575.98 149.96 C 575.90 143.02 576.60 135.93 574.69 129.16 C 572.98 122.58 570.79 115.93 566.64 110.45 C 561.61 104.38 555.53 99.02 548.32 95.70 C 538.19 91.20 527.08 88.92 516.00 88.96 C 494.38 88.48 473.23 94.93 453.71 103.78 C 417.31 120.36 386.40 146.95 349.38 162.37 C 331.66 170.29 312.36 174.53 292.98 175.07 C 284.99 175.32 277.23 173.32 269.42 172.00 C 266.59 156.28 259.51 141.83 252.57 127.59 C 246.01 114.13 240.50 99.92 238.79 84.93 C 236.58 68.27 239.69 51.48 238.32 34.78 C 237.58 23.03 235.06 11.52 232.78 0.00 Z" />
<path fill="#fcd9eb" opacity="1.00" d=" M 0.00 252.48 C 2.97 258.00 4.83 264.00 7.35 269.72 C 7.73 270.99 8.63 272.29 8.42 273.63 C 5.83 277.08 2.68 280.08 0.00 283.46 L 0.00 252.48 Z" />
<path fill="#fcd9eb" opacity="1.00" d=" M 0.00 335.81 C 20.80 338.82 41.44 342.84 62.19 346.13 C 63.74 355.80 66.59 365.54 72.63 373.42 C 75.84 377.47 78.65 382.02 83.06 384.89 C 89.36 389.79 96.85 393.60 104.95 393.99 C 115.02 394.82 124.76 391.64 134.55 389.87 C 131.47 407.26 128.15 424.61 124.96 441.99 C 124.45 445.25 123.89 448.51 122.76 451.63 C 116.79 445.73 112.99 437.83 106.15 432.81 C 102.27 429.75 95.73 429.30 92.43 433.43 C 89.74 437.00 90.21 441.93 91.19 446.03 C 92.87 451.78 95.03 457.42 97.82 462.73 C 87.24 463.04 76.66 463.06 66.08 462.97 C 64.07 462.86 62.10 463.22 60.27 464.04 C 54.88 465.46 49.04 468.31 47.29 474.05 C 45.68 478.18 48.07 482.21 49.88 485.80 C 47.50 489.77 45.19 494.13 45.51 498.92 C 45.59 501.46 46.96 503.67 48.09 505.86 C 46.29 508.96 44.69 512.36 44.98 516.05 C 44.92 521.40 48.27 525.82 51.04 530.10 C 48.02 536.24 48.46 543.91 52.63 549.42 C 54.56 552.10 57.84 553.13 60.82 554.17 C 71.15 557.46 81.46 560.84 91.76 564.22 C 92.62 592.81 93.56 621.41 94.21 650.00 L 0.00 650.00 L 0.00 335.81 Z" />
<path fill="#fcd9eb" opacity="1.00" d=" M 648.37 363.28 C 654.57 360.67 661.21 358.73 668.00 358.88 C 674.19 358.89 680.56 361.70 684.05 366.96 C 690.78 376.10 690.60 388.04 691.35 398.85 C 692.69 405.85 691.46 412.97 692.25 420.00 C 693.17 426.30 692.94 432.71 694.20 438.97 C 696.68 455.17 702.70 471.73 714.85 483.19 C 711.14 490.90 711.25 499.61 710.58 507.95 C 706.69 549.92 702.81 591.88 698.91 633.84 C 698.44 639.22 697.77 644.59 697.69 650.00 L 666.13 650.00 C 665.47 633.15 664.98 616.30 664.46 599.46 C 663.50 578.55 663.00 557.26 656.76 537.10 C 652.35 521.52 645.35 506.84 640.53 491.40 C 633.97 467.22 642.83 441.87 636.50 417.66 C 635.24 413.22 633.75 408.72 631.00 404.96 C 629.33 402.49 625.97 401.28 623.16 402.34 C 620.75 403.37 620.57 406.30 619.79 408.44 C 613.60 400.61 605.96 394.10 597.69 388.56 C 613.77 378.63 630.73 370.11 648.37 363.28 Z" />
<path fill="#fcd9eb" opacity="1.00" d=" M 214.35 378.13 C 219.38 377.82 224.44 378.17 229.46 377.62 C 244.80 386.83 259.13 397.65 272.70 409.30 C 275.64 411.83 277.95 415.11 281.43 416.98 C 281.99 417.61 282.57 418.25 283.14 418.89 C 278.53 422.24 272.73 423.73 268.66 427.83 C 265.74 422.08 262.59 416.41 258.79 411.19 C 256.54 407.26 253.66 403.35 249.33 401.57 C 244.60 399.49 238.24 399.44 234.56 403.53 C 231.34 407.11 231.29 412.21 231.19 416.74 C 224.09 415.97 217.97 422.19 218.00 429.15 C 213.45 428.03 208.04 426.86 204.01 430.00 C 199.68 433.43 199.46 439.47 199.59 444.54 C 193.94 443.86 188.34 447.55 186.86 453.04 C 185.63 457.68 188.24 462.08 190.57 465.89 C 191.31 467.80 192.17 469.68 193.15 471.49 C 193.85 487.44 194.26 503.68 198.90 519.08 C 200.44 524.84 204.63 529.85 204.31 536.05 C 203.80 563.70 203.66 591.37 203.01 619.03 C 203.11 629.35 202.30 639.68 202.92 650.00 L 165.79 650.00 C 161.50 603.31 156.98 556.63 152.95 509.92 C 152.22 500.86 146.81 493.28 143.92 484.89 C 140.27 476.54 138.53 466.93 131.82 460.30 C 136.22 435.53 140.91 410.81 145.52 386.08 C 152.80 385.50 159.64 382.42 166.95 381.99 C 182.51 381.80 198.09 382.24 213.65 381.80 C 213.88 380.57 214.11 379.35 214.35 378.13 Z" />
<path fill="#fcd9eb" opacity="1.00" d=" M 868.41 424.43 C 876.26 413.21 884.25 402.10 891.95 390.78 C 891.26 396.15 891.15 401.59 891.47 407.00 C 892.16 418.69 893.05 430.37 894.33 442.01 C 894.95 450.01 895.76 458.07 894.95 466.10 C 890.79 462.26 888.08 457.17 885.97 451.99 C 884.17 447.27 883.06 442.14 879.80 438.13 C 875.98 433.26 870.55 428.86 864.09 428.70 C 865.66 427.43 867.28 426.15 868.41 424.43 Z" />
<path fill="#fcd9eb" opacity="1.00" d=" M 572.41 404.29 C 578.58 407.59 584.36 411.89 588.27 417.79 C 594.26 426.61 597.86 436.93 600.02 447.31 C 595.72 440.67 591.81 433.50 585.56 428.45 C 580.82 424.63 574.74 423.25 568.94 421.93 C 563.92 420.88 558.92 419.71 553.81 419.16 C 557.16 416.35 560.62 413.68 564.13 411.08 C 566.98 408.94 570.33 407.30 572.41 404.29 Z" />
<path fill="#fcd9eb" opacity="1.00" d=" M 525.11 439.15 C 534.72 442.05 544.36 437.28 554.07 438.35 C 565.25 439.16 575.80 446.93 579.35 457.65 C 582.09 465.78 581.42 474.50 581.41 482.94 C 581.41 487.76 579.01 492.25 575.74 495.66 C 568.82 502.81 560.44 508.97 550.68 511.48 C 543.02 513.73 534.68 512.92 527.30 516.23 C 523.54 517.91 519.83 520.09 517.29 523.41 C 515.81 525.18 515.45 528.07 517.08 529.88 C 520.45 533.89 525.95 535.24 530.99 535.32 C 539.67 535.73 548.48 532.37 557.03 534.96 C 567.68 538.30 575.75 546.51 585.60 551.43 C 590.12 554.13 595.83 554.64 599.65 558.49 C 601.76 564.28 601.17 570.54 601.55 576.58 C 602.55 601.03 602.79 625.55 602.13 650.00 L 415.04 650.00 C 414.30 624.99 415.06 599.98 415.76 574.98 C 416.18 569.45 415.73 563.69 417.76 558.42 C 420.22 555.87 423.64 554.85 426.88 553.71 C 438.39 549.35 447.12 539.90 458.60 535.50 C 468.14 531.84 478.23 536.07 488.02 535.22 C 492.68 535.08 497.55 533.39 500.50 529.63 C 502.22 527.46 501.11 524.40 499.40 522.60 C 496.03 519.00 491.59 516.53 486.92 515.08 C 480.54 513.05 473.70 513.46 467.27 511.64 C 459.63 509.78 452.71 505.69 446.83 500.54 C 454.35 496.86 460.78 491.40 467.68 486.73 C 467.99 487.18 468.62 488.09 468.93 488.54 C 494.04 488.30 519.17 488.61 544.28 488.38 C 547.52 485.88 548.73 481.38 550.83 477.93 C 526.91 477.02 502.95 477.72 479.02 477.52 C 473.90 477.81 468.43 476.55 463.62 478.82 C 463.47 478.44 463.19 477.67 463.04 477.29 C 483.02 477.46 503.01 477.36 522.99 477.41 C 532.53 477.34 542.08 477.65 551.60 476.93 C 551.81 473.35 552.47 469.82 552.64 466.24 C 552.42 462.65 551.62 459.08 550.01 455.85 C 549.69 455.65 549.06 455.26 548.75 455.06 L 549.13 455.03 C 547.43 450.31 543.01 447.13 538.43 445.52 C 532.01 443.45 525.12 445.04 519.12 447.64 C 520.30 444.56 523.40 443.06 525.73 440.99 C 525.58 440.53 525.27 439.61 525.11 439.15 M 469.58 488.70 C 471.35 492.33 474.60 494.90 477.37 497.75 C 478.71 499.49 481.04 499.13 482.98 499.35 C 494.63 499.53 506.28 499.36 517.94 499.43 C 523.60 499.36 529.30 499.73 534.94 498.99 C 538.31 495.85 541.76 492.71 544.23 488.78 C 519.37 488.50 494.46 488.72 469.58 488.70 M 480.43 501.04 C 485.01 503.48 488.30 507.71 492.72 510.38 C 497.34 514.32 501.84 518.64 507.02 521.80 C 511.95 518.28 516.45 514.15 521.18 510.36 C 525.36 507.37 528.85 503.42 533.42 501.00 C 532.84 500.46 532.24 499.98 531.60 499.56 C 515.74 499.49 499.88 499.61 484.02 499.49 C 482.44 498.90 481.50 500.27 480.43 501.04 Z" />
<path fill="#fcd9eb" opacity="1.00" d=" M 284.60 533.58 C 287.82 527.41 291.10 521.28 294.56 515.24 C 295.86 517.32 297.67 518.98 299.70 520.34 C 317.06 533.39 339.68 537.14 360.93 535.90 C 356.59 549.89 354.81 564.50 353.88 579.07 C 352.68 602.70 352.23 626.37 351.10 650.00 L 282.99 650.00 C 283.36 618.97 283.69 587.89 282.19 556.89 C 281.89 552.51 281.48 548.15 281.24 543.77 C 281.58 540.17 282.93 536.76 284.60 533.58 Z" />
</g>
<g id="#ef3f3fff">
<path fill="#ef3f3f" opacity="1.00" d=" M 11.24 0.00 L 33.94 0.00 C 34.97 18.85 35.14 37.93 39.54 56.40 C 42.18 68.25 46.49 79.78 52.83 90.16 C 57.40 97.72 63.01 104.59 68.78 111.26 C 79.71 123.32 90.25 136.12 96.82 151.15 C 107.25 174.45 108.14 200.48 115.93 224.57 C 108.75 223.30 101.55 222.18 94.38 220.88 C 92.12 208.41 88.55 196.02 82.18 184.99 C 77.91 177.49 72.38 170.76 66.18 164.78 C 57.19 155.77 46.48 148.63 37.89 139.18 C 26.89 127.37 18.82 112.80 15.01 97.09 C 12.18 86.30 11.79 75.10 11.27 64.02 C 11.20 42.68 11.27 21.34 11.24 0.00 Z" />
<path fill="#ef3f3f" opacity="1.00" d=" M 165.34 278.76 C 168.91 283.00 172.03 287.62 174.39 292.64 C 178.75 301.36 180.43 311.04 183.14 320.32 C 176.96 326.12 170.63 331.80 165.32 338.44 C 162.83 332.18 160.37 325.91 157.84 319.66 C 160.17 306.00 162.85 292.39 165.34 278.76 Z" />
<path fill="#ef3f3f" opacity="1.00" d=" M 320.82 383.42 C 322.77 385.78 324.63 388.21 326.34 390.75 C 313.45 401.66 300.76 412.82 288.06 423.96 C 286.45 422.24 284.72 420.64 283.14 418.89 C 282.57 418.25 281.99 417.61 281.43 416.98 C 294.56 405.79 307.79 394.72 320.82 383.42 Z" />
<path fill="#ef3f3f" opacity="1.00" d=" M 327.31 392.12 C 335.12 402.46 343.21 412.60 351.75 422.36 C 356.47 427.21 358.29 434.32 356.86 440.91 C 355.55 448.13 349.44 452.75 344.09 457.07 C 336.88 462.92 325.35 462.90 318.44 456.58 C 315.12 453.37 312.35 449.66 309.34 446.18 C 304.47 440.69 299.71 435.04 294.25 430.12 C 292.65 428.52 291.09 426.88 289.40 425.39 C 302.08 414.37 315.08 403.64 327.31 392.12 Z" />
<path fill="#ef3f3f" opacity="1.00" d=" M 464.02 454.63 C 467.27 449.83 472.03 445.63 477.98 444.88 C 487.47 443.50 497.50 447.66 503.68 454.91 C 494.13 455.21 484.57 454.97 475.02 455.18 C 471.35 455.14 467.59 455.69 464.02 454.63 Z" />
<path fill="#ef3f3f" opacity="1.00" d=" M 519.12 447.64 C 525.12 445.04 532.01 443.45 538.43 445.52 C 543.01 447.13 547.43 450.31 549.13 455.03 L 548.75 455.06 C 536.60 455.92 524.41 455.01 512.26 455.64 C 511.62 455.02 510.99 454.41 510.37 453.80 C 513.17 451.59 516.02 449.42 519.12 447.64 Z" />
<path fill="#ef3f3f" opacity="1.00" d=" M 897.29 537.44 C 898.83 537.48 900.37 537.53 901.93 537.58 C 925.66 538.22 949.39 538.92 973.12 539.48 C 974.60 539.49 976.11 539.50 977.62 539.51 C 977.72 542.13 977.78 544.76 977.84 547.40 C 952.34 547.22 926.85 546.20 901.36 545.73 C 899.98 545.72 898.62 545.72 897.26 545.72 C 897.24 542.96 897.25 540.20 897.29 537.44 Z" />
</g>
<g id="#f77a34ff">
<path fill="#f77a34" opacity="1.00" d=" M 33.94 0.00 L 54.81 0.00 C 57.90 19.16 63.07 38.14 71.48 55.69 C 81.66 77.21 98.56 94.72 108.58 116.34 C 120.50 141.69 122.80 170.29 134.15 195.86 C 139.27 207.08 146.58 217.16 154.75 226.34 C 156.21 227.94 157.30 229.81 158.31 231.71 C 144.18 229.34 130.06 226.91 115.93 224.57 C 108.14 200.48 107.25 174.45 96.82 151.15 C 90.25 136.12 79.71 123.32 68.78 111.26 C 63.01 104.59 57.40 97.72 52.83 90.16 C 46.49 79.78 42.18 68.25 39.54 56.40 C 35.14 37.93 34.97 18.85 33.94 0.00 Z" />
<path fill="#f77a34" opacity="1.00" d=" M 171.25 246.90 C 183.72 264.45 194.13 283.45 202.56 303.26 C 196.04 308.90 189.51 314.53 183.14 320.32 C 180.43 311.04 178.75 301.36 174.39 292.64 C 172.03 287.62 168.91 283.00 165.34 278.76 C 167.29 268.13 169.21 257.50 171.25 246.90 Z" />
<path fill="#f77a34" opacity="1.00" d=" M 460.95 466.23 C 461.16 462.40 462.32 458.72 463.83 455.22 C 477.24 455.49 490.65 455.12 504.07 455.12 C 504.95 456.71 505.84 458.30 506.72 459.91 C 507.50 458.57 508.28 457.23 509.06 455.89 C 522.70 455.43 536.37 455.28 550.01 455.85 C 551.62 459.08 552.42 462.65 552.64 466.24 C 522.07 466.39 491.51 466.35 460.95 466.23 Z" />
<path fill="#f77a34" opacity="1.00" d=" M 901.24 551.99 C 925.39 551.68 949.55 551.76 973.69 551.30 C 975.60 551.24 977.53 551.25 979.46 551.26 C 979.74 553.91 980.02 556.56 980.31 559.22 C 977.95 559.24 975.60 559.27 973.25 559.28 C 963.44 559.45 953.63 559.37 943.82 559.58 C 928.39 559.78 912.96 559.95 897.54 560.17 C 897.39 557.44 897.27 554.72 897.06 552.00 C 898.44 551.99 899.83 551.98 901.24 551.99 Z" />
</g>
<g id="#ffcd50ff">
<path fill="#ffcd50" opacity="1.00" d=" M 54.81 0.00 L 83.82 0.00 C 88.85 16.22 94.95 32.14 102.66 47.28 C 110.86 63.21 121.46 77.85 128.49 94.39 C 138.35 118.09 141.77 143.86 151.24 167.69 C 154.78 176.85 160.14 185.18 166.15 192.90 C 189.18 221.95 204.30 256.29 217.22 290.79 C 212.32 294.94 207.44 299.10 202.56 303.26 C 194.13 283.45 183.72 264.45 171.25 246.90 C 172.50 239.95 173.77 233.01 175.12 226.09 C 177.25 225.94 179.45 226.12 181.50 225.47 C 184.84 223.57 183.77 217.82 179.99 217.25 C 174.72 216.07 169.39 215.11 164.05 214.30 C 161.33 213.71 158.26 216.08 158.94 219.01 C 158.89 222.46 162.65 223.07 165.14 224.08 C 164.74 226.91 164.28 229.74 163.74 232.55 C 161.93 232.28 160.12 232.00 158.31 231.71 C 157.30 229.81 156.21 227.94 154.75 226.34 C 146.58 217.16 139.27 207.08 134.15 195.86 C 122.80 170.29 120.50 141.69 108.58 116.34 C 98.56 94.72 81.66 77.21 71.48 55.69 C 63.07 38.14 57.90 19.16 54.81 0.00 Z" />
<path fill="#ffcd50" opacity="1.00" d=" M 460.95 466.23 C 491.51 466.35 522.07 466.39 552.64 466.24 C 552.47 469.82 551.81 473.35 551.60 476.93 C 542.08 477.65 532.53 477.34 522.99 477.41 C 503.01 477.36 483.02 477.46 463.04 477.29 C 462.79 477.15 462.28 476.87 462.03 476.73 C 461.72 473.22 461.11 469.75 460.95 466.23 Z" />
<path fill="#ffcd50" opacity="1.00" d=" M 897.54 560.17 C 912.96 559.95 928.39 559.78 943.82 559.58 C 953.77 560.39 963.62 562.12 973.54 563.19 C 974.93 563.38 976.34 563.63 977.75 563.88 C 977.47 566.45 977.20 569.02 976.97 571.60 C 974.02 571.57 971.07 571.43 968.16 571.00 C 951.47 568.74 934.75 566.70 918.06 564.46 C 911.24 563.49 904.31 563.05 897.62 561.34 L 897.54 560.17 Z" />
</g>
<g id="#6ea02dff">
<path fill="#6ea02d" opacity="1.00" d=" M 83.82 0.00 L 115.76 0.00 C 121.13 14.81 127.45 29.29 134.77 43.24 C 150.55 73.30 168.68 102.49 178.86 135.11 C 183.41 149.13 186.71 163.63 193.09 176.99 C 198.42 188.30 205.63 198.57 211.39 209.65 C 222.18 230.32 229.85 252.46 236.25 274.83 C 229.84 280.07 223.53 285.43 217.22 290.79 C 204.30 256.29 189.18 221.95 166.15 192.90 C 160.14 185.18 154.78 176.85 151.24 167.69 C 141.77 143.86 138.35 118.09 128.49 94.39 C 121.46 77.85 110.86 63.21 102.66 47.28 C 94.95 32.14 88.85 16.22 83.82 0.00 Z" />
<path fill="#6ea02d" opacity="1.00" d=" M 463.62 478.82 C 468.43 476.55 473.90 477.81 479.02 477.52 C 502.95 477.72 526.91 477.02 550.83 477.93 C 548.73 481.38 547.52 485.88 544.28 488.38 C 519.17 488.61 494.04 488.30 468.93 488.54 C 468.62 488.09 467.99 487.18 467.68 486.73 C 465.98 484.28 464.54 481.65 463.62 478.82 Z" />
<path fill="#6ea02d" opacity="1.00" d=" M 898.01 562.43 C 907.90 563.31 917.70 564.95 927.56 566.12 C 944.27 568.42 961.04 570.30 977.71 572.87 C 977.45 575.47 977.19 578.08 976.95 580.69 L 975.87 580.53 C 950.21 577.48 924.60 573.95 898.96 570.73 C 898.55 570.66 897.73 570.52 897.32 570.45 C 897.42 567.77 897.74 565.09 898.01 562.43 Z" />
</g>
<g id="#5eadefff">
<path fill="#5eadef" opacity="1.00" d=" M 115.76 0.00 L 167.71 0.00 C 176.42 15.14 185.35 30.31 191.08 46.89 C 204.44 85.85 206.22 127.94 221.73 166.27 C 225.88 176.64 230.59 186.78 234.80 197.12 C 243.07 217.83 249.05 239.37 253.85 261.12 C 247.83 265.49 241.98 270.08 236.25 274.83 C 229.85 252.46 222.18 230.32 211.39 209.65 C 205.63 198.57 198.42 188.30 193.09 176.99 C 186.71 163.63 183.41 149.13 178.86 135.11 C 168.68 102.49 150.55 73.30 134.77 43.24 C 127.45 29.29 121.13 14.81 115.76 0.00 Z" />
<path fill="#5eadef" opacity="1.00" d=" M 469.58 488.70 C 494.46 488.72 519.37 488.50 544.23 488.78 C 541.76 492.71 538.31 495.85 534.94 498.99 C 529.30 499.73 523.60 499.36 517.94 499.43 C 506.28 499.36 494.63 499.53 482.98 499.35 C 481.04 499.13 478.71 499.49 477.37 497.75 C 474.60 494.90 471.35 492.33 469.58 488.70 Z" />
<path fill="#5eadef" opacity="1.00" d=" M 893.34 581.32 C 894.64 581.29 895.95 581.27 897.27 581.26 C 923.47 580.99 949.67 580.72 975.87 580.53 C 976.14 583.20 976.43 585.86 976.71 588.53 C 976.09 588.53 974.85 588.52 974.23 588.52 C 950.99 588.67 927.76 588.86 904.53 589.37 C 901.73 588.65 898.95 587.87 896.17 587.10 C 896.01 587.77 895.67 589.10 895.50 589.77 C 893.38 587.49 893.82 584.16 893.34 581.32 Z" />
</g>
<g id="#615eefff">
<path fill="#615eef" opacity="1.00" d=" M 167.71 0.00 L 213.90 0.00 C 215.89 11.98 219.05 23.79 219.82 35.95 C 220.46 49.96 219.36 63.98 219.90 77.99 C 219.66 94.21 223.99 110.26 231.25 124.69 C 240.63 143.79 247.76 164.02 251.86 184.92 C 256.84 208.37 258.20 232.36 261.83 256.01 C 259.06 257.54 256.43 259.29 253.85 261.12 C 249.05 239.37 243.07 217.83 234.80 197.12 C 230.59 186.78 225.88 176.64 221.73 166.27 C 206.22 127.94 204.44 85.85 191.08 46.89 C 185.35 30.31 176.42 15.14 167.71 0.00 Z" />
<path fill="#615eef" opacity="1.00" d=" M 480.43 501.04 C 481.50 500.27 482.44 498.90 484.02 499.49 C 499.88 499.61 515.74 499.49 531.60 499.56 C 532.24 499.98 532.84 500.46 533.42 501.00 C 528.85 503.42 525.36 507.37 521.18 510.36 C 511.70 510.03 502.20 509.98 492.72 510.38 C 488.30 507.71 485.01 503.48 480.43 501.04 Z" />
<path fill="#615eef" opacity="1.00" d=" M 896.17 587.10 C 898.95 587.87 901.73 588.65 904.53 589.37 C 927.77 595.99 951.07 602.42 974.35 608.93 C 976.86 609.62 979.36 610.36 981.86 611.12 C 981.41 614.00 981.15 616.99 979.78 619.62 C 974.11 617.73 968.37 616.02 962.60 614.51 C 939.96 608.51 917.46 601.99 894.85 595.88 C 894.97 593.82 895.16 591.78 895.50 589.77 C 895.67 589.10 896.01 587.77 896.17 587.10 Z" />
</g>
<g id="#935ceaff">
<path fill="#935cea" opacity="1.00" d=" M 213.90 0.00 L 232.78 0.00 C 235.06 11.52 237.58 23.03 238.32 34.78 C 239.69 51.48 236.58 68.27 238.79 84.93 C 240.50 99.92 246.01 114.13 252.57 127.59 C 259.51 141.83 266.59 156.28 269.42 172.00 C 274.50 199.39 265.27 226.62 265.77 254.05 C 264.43 254.65 263.13 255.32 261.83 256.01 C 258.20 232.36 256.84 208.37 251.86 184.92 C 247.76 164.02 240.63 143.79 231.25 124.69 C 223.99 110.26 219.66 94.21 219.90 77.99 C 219.36 63.98 220.46 49.96 219.82 35.95 C 219.05 23.79 215.89 11.98 213.90 0.00 Z" />
<path fill="#935cea" opacity="1.00" d=" M 492.72 510.38 C 502.20 509.98 511.70 510.03 521.18 510.36 C 516.45 514.15 511.95 518.28 507.02 521.80 C 501.84 518.64 497.34 514.32 492.72 510.38 Z" />
<path fill="#935cea" opacity="1.00" d=" M 891.02 607.17 C 891.55 607.21 892.60 607.29 893.13 607.32 C 911.01 609.33 928.89 611.31 946.78 613.30 C 952.04 613.80 957.28 614.84 962.60 614.51 C 968.37 616.02 974.11 617.73 979.78 619.62 C 979.53 621.60 979.37 623.59 979.24 625.59 C 977.60 625.38 975.95 625.16 974.33 624.98 C 946.62 621.99 918.93 618.85 891.21 615.98 C 891.04 613.04 890.96 610.10 891.02 607.17 Z" />
</g>
<g id="#f9e1eeff">
<path fill="#f9e1ee" opacity="1.00" d=" M 453.71 103.78 C 473.23 94.93 494.38 88.48 516.00 88.96 C 527.08 88.92 538.19 91.20 548.32 95.70 C 555.53 99.02 561.61 104.38 566.64 110.45 C 570.79 115.93 572.98 122.58 574.69 129.16 C 576.60 135.93 575.90 143.02 575.98 149.96 C 575.38 160.50 572.25 170.65 569.78 180.85 C 568.69 185.48 566.86 190.02 567.23 194.87 C 555.80 195.90 544.37 196.87 532.94 197.80 C 528.11 198.15 523.30 198.74 518.47 198.98 C 512.79 199.02 507.22 200.38 501.53 200.09 C 501.59 201.18 501.66 202.26 501.75 203.35 C 502.19 209.53 502.77 215.70 503.27 221.87 C 503.71 228.16 504.39 234.44 504.93 240.72 C 506.89 263.97 508.62 287.25 511.03 310.46 C 511.41 316.77 511.93 323.07 512.58 329.36 C 513.04 335.69 513.61 342.03 514.18 348.36 C 514.22 349.03 514.30 350.36 514.35 351.03 C 519.20 350.29 524.10 350.04 528.99 349.69 C 534.58 348.71 540.27 348.57 545.90 347.97 C 619.63 341.25 693.40 335.01 767.14 328.46 C 767.38 331.32 767.63 334.19 767.84 337.06 C 768.41 337.30 769.56 337.79 770.13 338.03 C 773.23 374.70 776.75 411.33 779.52 448.01 C 775.27 447.99 771.02 447.67 766.78 447.73 C 769.46 442.46 771.61 436.93 773.30 431.27 C 774.45 426.98 774.86 421.79 771.88 418.12 C 768.72 414.60 763.01 414.74 759.28 417.25 C 753.44 421.06 749.80 427.18 745.50 432.49 C 741.13 438.11 734.91 441.93 730.66 447.66 C 726.78 452.38 725.12 458.36 722.96 463.95 C 720.56 470.49 717.89 476.92 714.85 483.19 C 702.70 471.73 696.68 455.17 694.20 438.97 C 692.94 432.71 693.17 426.30 692.25 420.00 C 691.46 412.97 692.69 405.85 691.35 398.85 C 690.60 388.04 690.78 376.10 684.05 366.96 C 680.56 361.70 674.19 358.89 668.00 358.88 C 661.21 358.73 654.57 360.67 648.37 363.28 C 630.73 370.11 613.77 378.63 597.69 388.56 C 594.73 389.03 592.12 390.52 590.84 393.31 L 590.16 394.49 C 584.33 392.02 578.36 389.00 571.90 388.97 C 568.67 388.80 565.74 391.73 566.21 395.00 C 566.01 399.10 569.22 402.25 572.41 404.29 C 570.33 407.30 566.98 408.94 564.13 411.08 C 560.62 413.68 557.16 416.35 553.81 419.16 C 543.37 418.23 534.55 424.64 525.29 428.32 C 522.68 429.18 521.10 431.40 520.03 433.80 C 521.33 435.92 522.86 437.96 525.11 439.15 C 525.27 439.61 525.58 440.53 525.73 440.99 C 523.40 443.06 520.30 444.56 519.12 447.64 C 516.02 449.42 513.17 451.59 510.37 453.80 C 510.99 454.41 511.62 455.02 512.26 455.64 C 524.41 455.01 536.60 455.92 548.75 455.06 C 549.06 455.26 549.69 455.65 550.01 455.85 C 536.37 455.28 522.70 455.43 509.06 455.89 C 508.28 457.23 507.50 458.57 506.72 459.91 C 505.84 458.30 504.95 456.71 504.07 455.12 C 490.65 455.12 477.24 455.49 463.83 455.22 C 462.32 458.72 461.16 462.40 460.95 466.23 C 461.11 469.75 461.72 473.22 462.03 476.73 C 462.28 476.87 462.79 477.15 463.04 477.29 C 463.19 477.67 463.47 478.44 463.62 478.82 C 464.54 481.65 465.98 484.28 467.68 486.73 C 460.78 491.40 454.35 496.86 446.83 500.54 C 441.50 496.05 435.92 490.43 435.84 482.97 C 435.63 473.39 435.24 463.24 439.35 454.33 C 443.91 445.10 453.69 438.86 463.93 438.30 C 472.90 437.55 481.76 441.58 490.69 439.53 C 493.81 438.76 497.55 436.04 496.59 432.39 C 495.52 429.47 492.29 428.43 489.72 427.25 C 482.91 424.47 476.49 420.29 469.07 419.34 C 461.91 418.65 454.90 420.60 447.96 422.02 C 442.41 423.19 436.73 424.73 432.17 428.24 C 425.61 433.50 421.23 440.82 417.18 448.06 C 418.01 441.92 420.30 436.12 422.43 430.34 C 426.16 420.73 432.32 411.63 441.42 406.42 C 445.23 404.11 449.87 401.70 450.93 396.95 C 451.94 393.85 450.35 389.89 446.99 389.16 C 441.60 388.23 436.51 390.74 431.61 392.60 C 430.12 393.09 428.55 393.95 426.95 393.37 C 425.23 392.04 424.38 389.48 422.01 389.13 C 419.77 388.50 417.74 389.79 416.06 391.08 C 409.35 396.14 402.54 401.43 397.95 408.60 L 397.06 409.24 C 396.88 406.53 396.76 402.23 393.14 402.02 C 388.57 401.11 385.64 405.46 383.99 409.03 C 377.64 422.39 378.25 437.57 378.82 451.98 C 379.63 464.68 380.09 477.61 377.20 490.10 C 372.52 505.62 365.54 520.34 360.93 535.90 C 339.68 537.14 317.06 533.39 299.70 520.34 C 297.67 518.98 295.86 517.32 294.56 515.24 C 297.70 509.52 301.65 504.20 304.06 498.09 C 305.85 493.62 305.09 488.46 302.54 484.43 C 296.93 475.36 291.42 466.21 286.53 456.72 C 290.61 454.54 295.13 453.18 298.89 450.43 C 298.93 450.55 299.00 450.78 299.04 450.90 C 302.50 449.39 305.88 447.71 309.34 446.18 C 312.35 449.66 315.12 453.37 318.44 456.58 C 325.35 462.90 336.88 462.92 344.09 457.07 C 349.44 452.75 355.55 448.13 356.86 440.91 C 358.29 434.32 356.47 427.21 351.75 422.36 C 343.21 412.60 335.12 402.46 327.31 392.12 C 327.07 391.78 326.58 391.09 326.34 390.75 C 324.63 388.21 322.77 385.78 320.82 383.42 C 305.51 360.84 292.22 336.74 283.18 310.93 C 279.10 297.54 275.59 283.90 274.16 269.95 C 273.90 265.33 273.44 260.72 272.68 256.16 C 272.31 255.82 271.56 255.16 271.18 254.83 C 269.64 253.47 267.64 253.65 265.77 254.05 C 265.27 226.62 274.50 199.39 269.42 172.00 C 277.23 173.32 284.99 175.32 292.98 175.07 C 312.36 174.53 331.66 170.29 349.38 162.37 C 386.40 146.95 417.31 120.36 453.71 103.78 M 464.02 454.63 C 467.59 455.69 471.35 455.14 475.02 455.18 C 484.57 454.97 494.13 455.21 503.68 454.91 C 497.50 447.66 487.47 443.50 477.98 444.88 C 472.03 445.63 467.27 449.83 464.02 454.63 Z" />
<path fill="#f9e1ee" opacity="1.00" d=" M 831.67 121.61 C 849.35 116.01 867.41 111.12 886.01 110.01 C 895.80 109.94 905.70 109.57 915.36 111.58 C 925.97 114.05 936.73 116.94 946.00 122.88 C 952.89 126.78 958.80 132.12 964.81 137.22 C 969.88 142.96 974.88 148.94 978.05 156.00 C 983.73 166.40 985.18 178.41 986.04 190.05 C 985.46 208.99 980.95 227.84 972.87 245.00 C 970.52 249.99 968.63 255.18 965.99 260.03 C 962.14 267.17 959.48 274.89 955.41 281.93 C 955.33 279.04 955.28 276.15 955.03 273.27 L 954.34 273.24 C 932.89 273.45 911.46 272.80 890.01 273.01 C 876.36 272.51 862.71 272.84 849.06 272.72 C 834.44 272.13 819.80 272.75 805.17 272.33 C 805.20 270.69 805.24 269.06 805.29 267.43 C 806.61 267.06 807.99 266.77 809.29 266.25 C 811.78 264.88 811.00 260.22 808.00 260.16 C 803.63 259.81 799.23 259.85 794.87 260.12 C 791.90 259.97 791.03 264.35 793.07 265.99 C 794.53 266.72 796.21 266.87 797.80 267.27 C 797.50 272.91 797.13 278.57 797.54 284.22 C 797.66 288.17 797.60 292.12 797.57 296.08 C 797.53 300.10 797.59 304.13 797.49 308.16 C 797.36 312.18 797.34 316.21 797.40 320.24 C 797.40 328.24 797.54 336.24 797.41 344.25 C 797.01 352.34 797.20 360.45 797.22 368.55 C 797.20 395.02 796.82 421.49 797.03 447.96 C 794.47 447.99 791.93 448.00 789.39 447.99 C 786.49 412.76 783.34 377.54 780.23 342.32 C 779.78 337.41 779.34 332.49 779.01 327.57 C 778.13 316.71 777.14 305.86 776.16 295.01 C 775.67 289.11 775.10 283.22 774.64 277.32 C 774.06 270.90 773.49 264.49 772.97 258.07 C 772.78 250.39 771.42 242.78 770.92 235.11 C 770.10 224.22 769.10 213.35 768.10 202.48 C 767.44 194.16 766.53 185.86 766.01 177.53 C 766.01 176.97 766.00 175.86 766.00 175.30 C 767.30 174.23 769.07 173.43 769.63 171.71 C 769.48 170.19 768.71 168.24 766.96 168.14 C 762.29 167.97 757.57 168.34 753.01 169.30 C 750.79 169.67 750.56 172.84 751.71 174.35 C 753.43 175.64 756.02 175.83 756.68 178.24 C 741.70 179.60 726.71 180.89 711.73 182.19 C 715.74 179.28 720.08 176.90 724.30 174.31 C 738.11 166.35 751.73 158.01 766.03 150.96 C 773.97 146.38 782.14 142.18 790.61 138.64 C 803.89 132.05 817.75 126.69 831.67 121.61 Z" />
<path fill="#f9e1ee" opacity="1.00" d=" M 152.19 350.03 C 153.34 339.78 156.20 329.84 157.84 319.66 C 160.37 325.91 162.83 332.18 165.32 338.44 C 163.80 340.51 162.12 343.04 163.55 345.64 C 164.71 347.49 166.43 348.89 168.59 349.40 C 189.86 356.49 210.39 365.80 229.46 377.62 C 224.44 378.17 219.38 377.82 214.35 378.13 C 214.11 379.35 213.88 380.57 213.65 381.80 C 198.09 382.24 182.51 381.80 166.95 381.99 C 159.64 382.42 152.80 385.50 145.52 386.08 C 147.72 374.06 149.89 362.03 152.19 350.03 Z" />
<path fill="#f9e1ee" opacity="1.00" d=" M 62.19 346.13 C 88.21 350.52 114.23 354.96 140.26 359.30 C 138.32 369.48 136.57 379.70 134.55 389.87 C 124.76 391.64 115.02 394.82 104.95 393.99 C 96.85 393.60 89.36 389.79 83.06 384.89 C 78.65 382.02 75.84 377.47 72.63 373.42 C 66.59 365.54 63.74 355.80 62.19 346.13 Z" />
<path fill="#f9e1ee" opacity="1.00" d=" M 804.78 368.50 C 819.84 369.13 834.93 368.39 850.00 368.96 C 862.25 369.22 874.51 368.64 886.75 369.25 C 892.67 370.97 898.87 369.70 904.93 370.13 C 902.72 374.01 900.57 377.94 897.98 381.58 C 895.00 383.94 893.03 387.16 891.95 390.78 C 884.25 402.10 876.26 413.21 868.41 424.43 C 867.28 426.15 865.66 427.43 864.09 428.70 C 862.88 430.02 862.35 431.73 862.19 433.48 C 857.49 438.14 854.19 443.93 849.98 448.99 C 840.65 460.80 831.49 473.11 819.11 481.95 C 818.56 477.91 816.80 474.20 814.62 470.80 C 816.34 467.32 818.69 463.51 817.38 459.48 C 815.84 453.67 810.05 450.46 804.58 449.18 C 804.33 422.29 804.82 395.40 804.78 368.50 Z" />
</g>
<g id="#eaaf7fff">
<path fill="#eaaf7f" opacity="1.00" d=" M 753.01 169.30 C 757.57 168.34 762.29 167.97 766.96 168.14 C 768.71 168.24 769.48 170.19 769.63 171.71 C 769.07 173.43 767.30 174.23 766.00 175.30 C 766.00 175.86 766.01 176.97 766.01 177.53 C 762.89 177.73 759.78 177.97 756.68 178.24 C 756.02 175.83 753.43 175.64 751.71 174.35 C 750.56 172.84 750.79 169.67 753.01 169.30 Z" />
<path fill="#eaaf7f" opacity="1.00" d=" M 158.94 219.01 C 158.26 216.08 161.33 213.71 164.05 214.30 C 169.39 215.11 174.72 216.07 179.99 217.25 C 183.77 217.82 184.84 223.57 181.50 225.47 C 179.45 226.12 177.25 225.94 175.12 226.09 C 173.77 233.01 172.50 239.95 171.25 246.90 C 169.21 257.50 167.29 268.13 165.34 278.76 C 162.85 292.39 160.17 306.00 157.84 319.66 C 156.20 329.84 153.34 339.78 152.19 350.03 C 149.89 362.03 147.72 374.06 145.52 386.08 C 140.91 410.81 136.22 435.53 131.82 460.30 C 130.20 467.74 129.05 475.26 127.58 482.73 C 126.73 487.02 126.32 491.45 124.59 495.51 C 123.55 491.14 120.22 488.03 116.60 485.67 C 118.65 484.09 120.95 482.48 121.79 479.90 C 123.32 476.28 121.88 472.30 119.82 469.23 C 120.81 463.36 122.59 457.61 122.76 451.63 C 123.89 448.51 124.45 445.25 124.96 441.99 C 128.15 424.61 131.47 407.26 134.55 389.87 C 136.57 379.70 138.32 369.48 140.26 359.30 C 148.13 317.06 155.86 274.79 163.74 232.55 C 164.28 229.74 164.74 226.91 165.14 224.08 C 162.65 223.07 158.89 222.46 158.94 219.01 Z" />
<path fill="#eaaf7f" opacity="1.00" d=" M 793.07 265.99 C 791.03 264.35 791.90 259.97 794.87 260.12 C 799.23 259.85 803.63 259.81 808.00 260.16 C 811.00 260.22 811.78 264.88 809.29 266.25 C 807.99 266.77 806.61 267.06 805.29 267.43 C 805.24 269.06 805.20 270.69 805.17 272.33 C 802.77 272.26 800.37 272.26 797.97 272.27 C 797.77 276.25 797.71 280.24 797.54 284.22 C 797.13 278.57 797.50 272.91 797.80 267.27 C 796.21 266.87 794.53 266.72 793.07 265.99 Z" />
<path fill="#eaaf7f" opacity="1.00" d=" M 770.13 338.03 C 773.48 339.48 776.83 340.97 780.23 342.32 C 783.34 377.54 786.49 412.76 789.39 447.99 C 786.09 447.98 782.81 448.02 779.52 448.01 C 776.75 411.33 773.23 374.70 770.13 338.03 Z" />
<path fill="#eaaf7f" opacity="1.00" d=" M 797.22 368.55 C 799.73 368.51 802.25 368.46 804.78 368.50 C 804.82 395.40 804.33 422.29 804.58 449.18 C 804.45 449.14 804.18 449.06 804.04 449.02 C 801.85 447.91 799.40 447.90 797.03 447.96 C 796.82 421.49 797.20 395.02 797.22 368.55 Z" />
<path fill="#eaaf7f" opacity="1.00" d=" M 123.49 502.57 C 123.28 506.58 122.73 510.59 121.41 514.41 C 120.14 512.31 118.44 510.54 116.61 508.92 C 119.32 507.29 121.74 505.21 123.49 502.57 Z" />
<path fill="#eaaf7f" opacity="1.00" d=" M 112.15 529.62 C 114.41 528.78 116.63 527.77 118.55 526.29 C 119.45 532.05 117.16 537.66 116.41 543.33 C 115.33 550.87 112.96 558.25 112.93 565.91 C 109.47 566.92 105.83 567.02 102.25 567.23 C 102.17 562.19 104.04 557.38 104.08 552.34 C 109.49 550.40 114.68 545.98 115.23 539.93 C 115.74 536.20 114.25 532.62 112.15 529.62 Z" />
<path fill="#eaaf7f" opacity="1.00" d=" M 801.00 538.05 C 802.06 538.29 803.14 538.57 804.23 538.86 C 803.94 543.14 803.98 547.43 803.91 551.72 C 802.14 551.76 800.38 551.79 798.63 551.84 C 798.81 554.79 798.96 557.75 799.08 560.71 C 795.94 560.96 792.81 561.17 789.68 561.33 C 788.97 555.76 788.56 550.17 788.08 544.59 C 787.53 544.65 786.44 544.76 785.89 544.82 C 786.42 544.61 787.47 544.18 787.99 543.97 C 787.88 542.31 787.78 540.65 787.69 538.99 C 792.11 538.70 796.80 539.85 801.00 538.05 Z" />
</g>
<g id="#ff1d26ff">
<path fill="#ff1d26" opacity="1.00" d=" M 756.68 178.24 C 759.78 177.97 762.89 177.73 766.01 177.53 C 766.53 185.86 767.44 194.16 768.10 202.48 C 715.02 206.71 662.00 211.74 608.93 216.26 C 594.07 217.68 579.18 218.67 564.34 220.33 C 555.27 212.71 546.19 205.10 537.11 197.49 C 535.72 197.58 534.33 197.69 532.94 197.80 C 544.37 196.87 555.80 195.90 567.23 194.87 C 615.40 190.65 663.57 186.44 711.73 182.19 C 726.71 180.89 741.70 179.60 756.68 178.24 Z" />
</g>
<g id="#010101ff">
<path fill="#010101" opacity="1.00" d=" M 518.47 198.98 C 523.30 198.74 528.11 198.15 532.94 197.80 C 534.33 197.69 535.72 197.58 537.11 197.49 C 546.19 205.10 555.27 212.71 564.34 220.33 C 573.42 227.93 582.49 235.55 591.57 243.16 C 600.56 250.71 609.56 258.25 618.57 265.79 C 611.33 275.06 603.50 283.87 596.02 292.95 C 588.52 301.94 580.95 310.86 573.49 319.88 C 566.34 328.29 559.27 336.76 552.22 345.25 C 550.85 347.45 548.26 347.79 545.90 347.97 C 540.27 348.57 534.58 348.71 528.99 349.69 C 530.50 349.10 531.95 348.29 532.99 347.02 C 552.47 323.83 571.92 300.62 591.38 277.42 C 593.67 274.59 596.33 272.02 598.20 268.87 C 598.98 267.20 597.38 265.74 596.28 264.73 C 574.30 246.40 552.41 227.97 530.47 209.59 C 526.47 206.06 522.03 203.00 518.47 198.98 Z" />
</g>
<g id="#603814ff">
<path fill="#603814" opacity="1.00" d=" M 501.53 200.09 C 507.22 200.38 512.79 199.02 518.47 198.98 C 522.03 203.00 526.47 206.06 530.47 209.59 C 552.41 227.97 574.30 246.40 596.28 264.73 C 597.38 265.74 598.98 267.20 598.20 268.87 C 596.33 272.02 593.67 274.59 591.38 277.42 C 571.92 300.62 552.47 323.83 532.99 347.02 C 531.95 348.29 530.50 349.10 528.99 349.69 C 524.10 350.04 519.20 350.29 514.35 351.03 C 514.30 350.36 514.22 349.03 514.18 348.36 C 535.51 322.95 556.82 297.52 578.14 272.11 C 579.99 270.49 579.42 267.81 577.42 266.65 C 552.15 245.61 527.14 224.25 501.75 203.35 C 501.66 202.26 501.59 201.18 501.53 200.09 Z" />
</g>
<g id="#fe931fff">
<path fill="#fe931f" opacity="1.00" d=" M 608.93 216.26 C 662.00 211.74 715.02 206.71 768.10 202.48 C 769.10 213.35 770.10 224.22 770.92 235.11 C 770.63 232.61 770.34 230.11 770.10 227.62 C 747.33 228.99 724.63 231.50 701.90 233.32 C 665.13 236.66 628.31 239.55 591.57 243.16 C 582.49 235.55 573.42 227.93 564.34 220.33 C 579.18 218.67 594.07 217.68 608.93 216.26 Z" />
</g>
<g id="#75d4eaff">
<path fill="#75d4ea" opacity="1.00" d=" M 501.75 203.35 C 527.14 224.25 552.15 245.61 577.42 266.65 C 579.42 267.81 579.99 270.49 578.14 272.11 C 556.82 297.52 535.51 322.95 514.18 348.36 C 513.61 342.03 513.04 335.69 512.58 329.36 C 526.40 313.23 539.92 296.85 553.61 280.60 C 555.87 277.74 558.56 275.18 560.47 272.05 C 561.01 270.12 559.31 268.95 558.10 267.83 C 539.79 252.55 521.55 237.18 503.27 221.87 C 502.77 215.70 502.19 209.53 501.75 203.35 Z" />
</g>
<g id="#f7f7f7ff">
<path fill="#f7f7f7" opacity="1.00" d=" M 0.00 204.88 C 31.44 210.34 62.92 215.56 94.38 220.88 C 101.55 222.18 108.75 223.30 115.93 224.57 C 130.06 226.91 144.18 229.34 158.31 231.71 C 160.12 232.00 161.93 232.28 163.74 232.55 C 155.86 274.79 148.13 317.06 140.26 359.30 C 114.23 354.96 88.21 350.52 62.19 346.13 C 41.44 342.84 20.80 338.82 0.00 335.81 L 0.00 283.46 C 2.68 280.08 5.83 277.08 8.42 273.63 C 8.63 272.29 7.73 270.99 7.35 269.72 C 4.83 264.00 2.97 258.00 0.00 252.48 L 0.00 204.88 M 45.12 235.68 C 43.90 243.70 42.59 251.72 41.25 259.73 C 46.14 260.67 51.04 261.58 56.01 262.04 C 56.34 261.16 56.67 260.27 57.00 259.39 C 53.34 258.31 48.92 258.89 45.67 257.06 C 46.27 249.99 47.77 243.02 48.80 236.00 C 47.58 235.89 46.35 235.78 45.12 235.68 M 64.31 239.44 C 59.79 241.79 58.50 247.24 58.05 251.90 C 57.74 255.61 58.02 260.19 61.39 262.52 C 64.94 264.75 69.98 264.96 73.35 262.28 C 76.30 259.31 77.21 255.00 77.62 250.99 C 77.91 247.98 77.79 244.64 75.90 242.14 C 73.15 238.82 68.23 238.32 64.31 239.44 M 80.15 241.21 C 81.46 249.70 83.12 258.13 84.48 266.61 C 85.98 266.66 88.22 267.90 89.02 265.97 C 93.01 258.74 97.27 251.65 100.90 244.23 C 99.54 244.28 97.46 243.19 96.70 244.87 C 93.36 250.21 91.09 256.23 87.25 261.24 C 85.89 254.62 85.25 247.86 83.66 241.28 C 82.49 241.26 81.32 241.23 80.15 241.21 M 102.98 244.93 C 101.62 252.90 100.30 260.89 99.19 268.91 C 103.46 269.95 107.83 270.48 112.17 271.13 C 113.77 271.69 115.05 270.45 115.20 268.92 C 111.28 267.89 107.24 267.46 103.26 266.74 C 103.62 264.03 103.81 261.28 104.57 258.65 C 108.14 258.03 111.77 259.76 115.41 259.66 C 115.53 259.03 115.75 257.77 115.87 257.15 C 112.29 256.33 108.64 255.90 105.07 255.07 C 105.38 252.76 105.74 250.45 106.13 248.15 C 109.97 248.71 113.80 249.33 117.67 249.75 C 117.73 249.09 117.87 247.77 117.94 247.11 C 112.99 246.17 108.02 245.22 102.98 244.93 M 64.52 269.27 C 63.28 276.86 62.02 284.45 60.96 292.06 C 61.75 292.11 63.31 292.19 64.10 292.23 C 65.16 291.11 64.86 289.31 65.25 287.92 C 66.01 281.22 67.79 274.65 68.13 267.91 C 66.81 267.61 64.67 267.38 64.52 269.27 M 72.46 272.30 C 70.74 275.30 71.86 279.52 75.04 281.05 C 77.76 283.22 83.01 284.30 82.60 288.66 C 82.37 292.47 77.58 292.57 74.96 291.15 C 72.85 290.43 72.65 287.91 71.79 286.18 C 71.05 286.13 69.55 286.03 68.81 285.98 C 68.88 287.71 68.57 289.67 69.73 291.14 C 72.33 294.96 77.58 295.14 81.71 294.53 C 86.20 293.63 87.84 287.35 84.91 284.07 C 82.49 281.33 78.92 280.09 76.23 277.68 C 74.48 276.44 75.37 273.62 77.04 272.81 C 79.10 272.37 81.49 272.54 83.23 273.82 C 83.82 275.03 84.13 276.35 84.54 277.64 C 85.65 277.68 86.76 277.73 87.87 277.78 C 88.65 269.79 77.09 266.83 72.46 272.30 M 36.13 291.98 C 35.01 299.27 33.80 306.54 32.59 313.82 C 32.57 314.68 31.92 316.31 33.25 316.52 C 37.72 317.62 42.33 317.97 46.87 318.74 C 47.25 317.86 47.64 316.97 48.03 316.10 C 44.15 315.29 40.18 314.94 36.35 313.89 C 37.39 306.77 38.77 299.71 39.63 292.58 C 38.47 292.37 37.30 292.18 36.13 291.98 M 57.45 295.48 C 52.62 296.20 50.28 301.11 49.42 305.40 C 48.84 308.89 48.51 312.67 49.83 316.02 C 51.70 320.33 57.13 321.40 61.30 320.49 C 64.75 319.81 66.62 316.43 67.42 313.30 C 68.51 309.07 69.46 304.38 67.71 300.19 C 66.10 296.32 61.26 295.13 57.45 295.48 M 71.12 298.00 C 72.46 306.50 73.98 314.98 75.57 323.45 C 76.88 323.55 78.19 323.65 79.51 323.76 C 83.37 316.08 87.89 308.75 91.89 301.15 C 90.73 300.85 89.58 300.55 88.42 300.26 C 84.73 306.03 81.99 312.34 78.31 318.12 C 76.86 311.49 76.08 304.74 74.75 298.08 C 73.54 298.05 72.33 298.02 71.12 298.00 M 94.22 301.21 C 92.41 309.29 91.22 317.52 90.16 325.74 C 95.13 326.53 100.10 327.35 105.08 328.07 C 105.40 327.14 105.71 326.22 106.02 325.30 C 102.14 324.63 98.25 324.07 94.36 323.47 C 94.69 320.65 94.31 317.36 95.88 314.94 C 99.55 315.17 103.14 316.40 106.85 315.97 C 106.74 315.37 106.52 314.16 106.42 313.55 C 102.95 312.96 99.47 312.41 95.99 311.86 C 96.33 309.52 96.68 307.19 97.06 304.86 C 100.44 305.20 103.77 305.95 107.16 306.23 C 109.09 306.71 108.72 304.71 108.58 303.56 C 103.78 302.86 98.99 302.06 94.22 301.21 Z" />
<path fill="#f7f7f7" opacity="1.00" d=" M 66.21 242.27 C 69.13 240.87 73.32 242.57 73.79 245.96 C 74.36 250.24 73.59 254.78 71.70 258.67 C 70.23 261.84 65.49 262.10 63.29 259.64 C 61.21 256.87 61.54 253.14 62.06 249.92 C 62.56 247.04 63.59 243.90 66.21 242.27 Z" />
<path fill="#f7f7f7" opacity="1.00" d=" M 56.31 299.41 C 58.30 298.03 61.26 298.35 63.17 299.75 C 65.39 302.19 65.21 305.75 64.61 308.78 C 64.00 311.71 63.37 314.98 61.03 317.07 C 57.86 319.35 52.83 316.87 52.77 312.92 C 52.47 308.31 52.91 302.87 56.31 299.41 Z" />
</g>
<g id="#fdafc5ff">
<path fill="#fdafc5" opacity="1.00" d=" M 503.27 221.87 C 521.55 237.18 539.79 252.55 558.10 267.83 C 559.31 268.95 561.01 270.12 560.47 272.05 C 558.56 275.18 555.87 277.74 553.61 280.60 C 539.92 296.85 526.40 313.23 512.58 329.36 C 511.93 323.07 511.41 316.77 511.03 310.46 C 520.90 299.50 530.01 287.85 539.68 276.70 C 541.23 275.09 543.01 272.11 540.53 270.43 C 528.68 260.51 516.98 250.40 504.93 240.72 C 504.39 234.44 503.71 228.16 503.27 221.87 Z" />
</g>
<g id="#ffff00ff">
<path fill="#ffff00" opacity="1.00" d=" M 701.90 233.32 C 724.63 231.50 747.33 228.99 770.10 227.62 C 770.34 230.11 770.63 232.61 770.92 235.11 C 771.42 242.78 772.78 250.39 772.97 258.07 C 772.46 256.08 771.93 254.09 771.21 252.17 C 749.34 254.65 727.35 256.09 705.43 258.18 C 676.48 260.72 647.52 263.25 618.57 265.79 C 609.56 258.25 600.56 250.71 591.57 243.16 C 628.31 239.55 665.13 236.66 701.90 233.32 Z" />
</g>
<g id="#f4bedcff">
<path fill="#f4bedc" opacity="1.00" d=" M 45.12 235.68 C 46.35 235.78 47.58 235.89 48.80 236.00 C 47.77 243.02 46.27 249.99 45.67 257.06 C 48.92 258.89 53.34 258.31 57.00 259.39 C 56.67 260.27 56.34 261.16 56.01 262.04 C 51.04 261.58 46.14 260.67 41.25 259.73 C 42.59 251.72 43.90 243.70 45.12 235.68 Z" />
<path fill="#f4bedc" opacity="1.00" d=" M 64.31 239.44 C 68.23 238.32 73.15 238.82 75.90 242.14 C 77.79 244.64 77.91 247.98 77.62 250.99 C 77.21 255.00 76.30 259.31 73.35 262.28 C 69.98 264.96 64.94 264.75 61.39 262.52 C 58.02 260.19 57.74 255.61 58.05 251.90 C 58.50 247.24 59.79 241.79 64.31 239.44 M 66.21 242.27 C 63.59 243.90 62.56 247.04 62.06 249.92 C 61.54 253.14 61.21 256.87 63.29 259.64 C 65.49 262.10 70.23 261.84 71.70 258.67 C 73.59 254.78 74.36 250.24 73.79 245.96 C 73.32 242.57 69.13 240.87 66.21 242.27 Z" />
<path fill="#f4bedc" opacity="1.00" d=" M 80.15 241.21 C 81.32 241.23 82.49 241.26 83.66 241.28 C 85.25 247.86 85.89 254.62 87.25 261.24 C 91.09 256.23 93.36 250.21 96.70 244.87 C 97.46 243.19 99.54 244.28 100.90 244.23 C 97.27 251.65 93.01 258.74 89.02 265.97 C 88.22 267.90 85.98 266.66 84.48 266.61 C 83.12 258.13 81.46 249.70 80.15 241.21 Z" />
<path fill="#f4bedc" opacity="1.00" d=" M 102.98 244.93 C 108.02 245.22 112.99 246.17 117.94 247.11 C 117.87 247.77 117.73 249.09 117.67 249.75 C 113.80 249.33 109.97 248.71 106.13 248.15 C 105.74 250.45 105.38 252.76 105.07 255.07 C 108.64 255.90 112.29 256.33 115.87 257.15 C 115.75 257.77 115.53 259.03 115.41 259.66 C 111.77 259.76 108.14 258.03 104.57 258.65 C 103.81 261.28 103.62 264.03 103.26 266.74 C 107.24 267.46 111.28 267.89 115.20 268.92 C 115.05 270.45 113.77 271.69 112.17 271.13 C 107.83 270.48 103.46 269.95 99.19 268.91 C 100.30 260.89 101.62 252.90 102.98 244.93 Z" />
<path fill="#f4bedc" opacity="1.00" d=" M 64.52 269.27 C 64.67 267.38 66.81 267.61 68.13 267.91 C 67.79 274.65 66.01 281.22 65.25 287.92 C 64.86 289.31 65.16 291.11 64.10 292.23 C 63.31 292.19 61.75 292.11 60.96 292.06 C 62.02 284.45 63.28 276.86 64.52 269.27 Z" />
<path fill="#f4bedc" opacity="1.00" d=" M 72.46 272.30 C 77.09 266.83 88.65 269.79 87.87 277.78 C 86.76 277.73 85.65 277.68 84.54 277.64 C 84.13 276.35 83.82 275.03 83.23 273.82 C 81.49 272.54 79.10 272.37 77.04 272.81 C 75.37 273.62 74.48 276.44 76.23 277.68 C 78.92 280.09 82.49 281.33 84.91 284.07 C 87.84 287.35 86.20 293.63 81.71 294.53 C 77.58 295.14 72.33 294.96 69.73 291.14 C 68.57 289.67 68.88 287.71 68.81 285.98 C 69.55 286.03 71.05 286.13 71.79 286.18 C 72.65 287.91 72.85 290.43 74.96 291.15 C 77.58 292.57 82.37 292.47 82.60 288.66 C 83.01 284.30 77.76 283.22 75.04 281.05 C 71.86 279.52 70.74 275.30 72.46 272.30 Z" />
<path fill="#f4bedc" opacity="1.00" d=" M 36.13 291.98 C 37.30 292.18 38.47 292.37 39.63 292.58 C 38.77 299.71 37.39 306.77 36.35 313.89 C 40.18 314.94 44.15 315.29 48.03 316.10 C 47.64 316.97 47.25 317.86 46.87 318.74 C 42.33 317.97 37.72 317.62 33.25 316.52 C 31.92 316.31 32.57 314.68 32.59 313.82 C 33.80 306.54 35.01 299.27 36.13 291.98 Z" />
<path fill="#f4bedc" opacity="1.00" d=" M 57.45 295.48 C 61.26 295.13 66.10 296.32 67.71 300.19 C 69.46 304.38 68.51 309.07 67.42 313.30 C 66.62 316.43 64.75 319.81 61.30 320.49 C 57.13 321.40 51.70 320.33 49.83 316.02 C 48.51 312.67 48.84 308.89 49.42 305.40 C 50.28 301.11 52.62 296.20 57.45 295.48 M 56.31 299.41 C 52.91 302.87 52.47 308.31 52.77 312.92 C 52.83 316.87 57.86 319.35 61.03 317.07 C 63.37 314.98 64.00 311.71 64.61 308.78 C 65.21 305.75 65.39 302.19 63.17 299.75 C 61.26 298.35 58.30 298.03 56.31 299.41 Z" />
<path fill="#f4bedc" opacity="1.00" d=" M 71.12 298.00 C 72.33 298.02 73.54 298.05 74.75 298.08 C 76.08 304.74 76.86 311.49 78.31 318.12 C 81.99 312.34 84.73 306.03 88.42 300.26 C 89.58 300.55 90.73 300.85 91.89 301.15 C 87.89 308.75 83.37 316.08 79.51 323.76 C 78.19 323.65 76.88 323.55 75.57 323.45 C 73.98 314.98 72.46 306.50 71.12 298.00 Z" />
<path fill="#f4bedc" opacity="1.00" d=" M 94.22 301.21 C 98.99 302.06 103.78 302.86 108.58 303.56 C 108.72 304.71 109.09 306.71 107.16 306.23 C 103.77 305.95 100.44 305.20 97.06 304.86 C 96.68 307.19 96.33 309.52 95.99 311.86 C 99.47 312.41 102.95 312.96 106.42 313.55 C 106.52 314.16 106.74 315.37 106.85 315.97 C 103.14 316.40 99.55 315.17 95.88 314.94 C 94.31 317.36 94.69 320.65 94.36 323.47 C 98.25 324.07 102.14 324.63 106.02 325.30 C 105.71 326.22 105.40 327.14 105.08 328.07 C 100.10 327.35 95.13 326.53 90.16 325.74 C 91.22 317.52 92.41 309.29 94.22 301.21 Z" />
</g>
<g id="#fbf7f4ff">
<path fill="#fbf7f4" opacity="1.00" d=" M 504.93 240.72 C 516.98 250.40 528.68 260.51 540.53 270.43 C 543.01 272.11 541.23 275.09 539.68 276.70 C 530.01 287.85 520.90 299.50 511.03 310.46 C 508.62 287.25 506.89 263.97 504.93 240.72 Z" />
</g>
<g id="#07bd01ff">
<path fill="#07bd01" opacity="1.00" d=" M 705.43 258.18 C 727.35 256.09 749.34 254.65 771.21 252.17 C 771.93 254.09 772.46 256.08 772.97 258.07 C 773.49 264.49 774.06 270.90 774.64 277.32 C 715.09 282.36 655.55 287.62 596.02 292.95 C 603.50 283.87 611.33 275.06 618.57 265.79 C 647.52 263.25 676.48 260.72 705.43 258.18 Z" />
</g>
<g id="#231f20ff">
<path fill="#231f20" opacity="1.00" d=" M 261.83 256.01 C 263.13 255.32 264.43 254.65 265.77 254.05 C 267.64 253.65 269.64 253.47 271.18 254.83 C 269.91 256.99 268.53 259.09 266.88 261.00 C 256.42 273.04 244.11 283.27 232.69 294.35 C 228.10 292.52 222.86 291.10 218.08 293.16 C 208.86 297.07 201.17 307.61 204.76 317.85 C 197.68 322.66 191.25 328.40 184.19 333.27 C 177.58 337.78 171.24 343.06 163.55 345.64 C 162.12 343.04 163.80 340.51 165.32 338.44 C 170.63 331.80 176.96 326.12 183.14 320.32 C 189.51 314.53 196.04 308.90 202.56 303.26 C 207.44 299.10 212.32 294.94 217.22 290.79 C 223.53 285.43 229.84 280.07 236.25 274.83 C 241.98 270.08 247.83 265.49 253.85 261.12 C 256.43 259.29 259.06 257.54 261.83 256.01 Z" />
<path fill="#231f20" opacity="1.00" d=" M 767.14 328.46 C 771.09 328.08 775.04 327.75 779.01 327.57 C 779.34 332.49 779.78 337.41 780.23 342.32 C 776.83 340.97 773.48 339.48 770.13 338.03 C 769.56 337.79 768.41 337.30 767.84 337.06 C 767.63 334.19 767.38 331.32 767.14 328.46 Z" />
<path fill="#231f20" opacity="1.00" d=" M 288.06 423.96 C 300.76 412.82 313.45 401.66 326.34 390.75 C 326.58 391.09 327.07 391.78 327.31 392.12 C 315.08 403.64 302.08 414.37 289.40 425.39 L 288.32 425.11 C 288.26 424.82 288.13 424.25 288.06 423.96 Z" />
<path fill="#231f20" opacity="1.00" d=" M 423.54 395.52 C 424.49 394.80 425.43 393.58 426.79 394.15 C 427.39 395.39 425.54 396.11 424.91 396.89 C 418.01 402.61 410.45 407.80 404.94 414.98 C 397.31 425.71 395.67 439.25 394.72 452.02 C 394.43 453.72 395.06 456.06 392.95 456.81 C 392.73 448.17 393.99 439.48 395.89 431.06 C 398.03 422.11 402.39 413.50 409.33 407.34 C 413.94 403.25 418.81 399.47 423.54 395.52 Z" />
<path fill="#231f20" opacity="1.00" d=" M 590.16 394.49 L 590.84 393.31 C 598.53 399.49 606.75 405.24 613.12 412.84 C 622.50 425.33 623.90 441.63 624.65 456.71 C 622.19 456.39 623.08 453.58 622.64 451.96 C 621.67 438.88 619.91 424.95 611.80 414.16 C 605.82 406.33 596.93 401.51 590.16 394.49 Z" />
<path fill="#231f20" opacity="1.00" d=" M 389.24 419.05 C 391.37 415.47 393.52 411.63 397.06 409.24 L 397.95 408.60 C 397.15 412.10 394.16 414.37 392.40 417.35 C 385.87 427.65 383.16 439.95 382.61 452.01 C 382.47 453.65 382.70 455.62 381.00 456.58 C 380.40 443.68 383.13 430.47 389.24 419.05 Z" />
<path fill="#231f20" opacity="1.00" d=" M 619.02 409.55 C 620.99 408.56 622.13 410.61 623.25 411.84 C 632.33 423.08 635.91 437.79 636.54 451.98 C 636.27 453.40 637.22 456.20 634.90 456.19 C 634.76 443.13 632.37 429.71 625.61 418.36 C 623.79 415.15 621.18 412.51 619.02 409.55 Z" />
<path fill="#231f20" opacity="1.00" d=" M 259.03 414.96 C 258.19 413.82 258.61 412.45 258.79 411.19 C 262.59 416.41 265.74 422.08 268.66 427.83 C 272.20 434.45 277.71 441.75 274.33 449.61 C 276.99 452.52 279.55 455.52 282.14 458.50 C 285.10 461.96 288.26 465.23 291.34 468.58 C 292.36 469.54 292.62 470.94 293.00 472.23 C 291.68 471.54 290.40 470.74 289.40 469.64 C 281.76 461.57 274.72 452.96 267.32 444.68 C 265.16 442.64 262.62 439.82 259.36 440.32 C 255.89 441.59 255.99 445.94 256.45 448.96 C 258.47 460.66 262.26 472.19 268.77 482.20 C 271.04 486.02 274.26 489.16 276.41 493.06 C 263.31 493.94 250.99 502.00 245.71 514.14 C 249.02 519.78 252.37 525.56 253.93 531.98 C 254.98 535.74 253.19 540.78 248.95 541.47 C 245.25 542.04 242.53 538.53 241.78 535.28 C 240.12 528.46 241.07 521.25 243.34 514.68 C 241.49 511.92 239.55 509.22 237.27 506.81 C 235.28 504.59 232.79 502.69 231.74 499.81 C 233.06 500.12 234.40 500.59 235.33 501.64 C 238.65 504.85 241.49 508.51 244.29 512.17 C 249.68 501.10 260.66 493.02 272.92 491.54 C 267.44 484.74 262.90 477.17 259.73 469.02 C 258.74 466.53 257.95 463.98 257.25 461.40 C 255.50 463.05 253.62 465.02 251.02 464.99 C 246.19 465.36 242.38 462.02 238.92 459.16 C 241.82 464.33 245.36 470.48 242.71 476.49 C 240.04 480.63 234.94 481.52 230.38 480.92 C 228.12 480.02 226.05 478.75 224.09 477.34 C 224.56 478.66 225.03 479.98 225.45 481.33 C 225.90 484.49 226.32 488.29 223.81 490.75 C 220.67 493.80 215.65 492.89 212.27 490.73 C 204.62 485.75 198.53 478.78 193.15 471.49 C 192.17 469.68 191.31 467.80 190.57 465.89 C 192.10 466.43 193.43 467.36 194.19 468.83 C 198.72 476.10 204.63 482.48 211.45 487.66 C 213.38 489.09 215.55 490.42 218.01 490.64 C 220.44 490.99 223.11 489.41 223.64 486.94 C 224.04 484.93 223.61 482.88 223.11 480.94 C 222.91 480.38 222.50 479.25 222.30 478.69 C 218.57 469.64 212.41 461.94 207.16 453.77 C 206.34 452.55 205.95 451.11 205.52 449.73 C 209.16 451.19 210.55 455.18 212.85 458.05 C 217.71 464.50 220.68 472.69 227.62 477.32 C 231.89 480.24 239.32 479.64 241.31 474.25 C 242.64 468.83 238.96 463.92 236.61 459.33 C 232.94 451.84 225.27 446.87 222.64 438.82 L 223.93 438.44 C 229.79 447.19 236.49 455.71 245.47 461.45 C 248.06 463.09 252.05 463.94 254.33 461.35 C 256.43 458.88 255.26 455.46 254.65 452.66 L 254.43 451.82 C 250.45 440.98 242.00 432.63 237.19 422.28 C 237.78 422.54 238.95 423.07 239.54 423.33 C 244.96 429.95 248.96 437.58 253.93 444.52 C 254.89 442.42 255.48 439.76 257.79 438.71 C 260.02 437.60 262.56 438.49 264.66 439.48 C 266.66 441.06 268.49 442.86 270.24 444.72 C 271.14 445.70 272.05 446.68 272.98 447.65 C 273.99 443.88 272.91 440.05 271.12 436.71 C 267.24 429.38 262.96 422.26 259.03 414.96 M 244.72 516.97 C 243.03 522.61 242.29 528.70 243.70 534.48 C 244.37 536.60 245.50 539.15 247.96 539.59 C 251.52 539.24 252.95 534.87 251.81 531.88 C 250.21 526.61 247.86 521.50 244.72 516.97 Z" />
<path fill="#231f20" opacity="1.00" d=" M 294.25 430.12 C 299.71 435.04 304.47 440.69 309.34 446.18 C 305.88 447.71 302.50 449.39 299.04 450.90 C 299.00 450.78 298.93 450.55 298.89 450.43 C 297.16 443.70 295.79 436.89 294.25 430.12 Z" />
<path fill="#231f20" opacity="1.00" d=" M 914.68 432.69 C 914.98 432.46 915.56 432.01 915.85 431.78 C 916.73 436.81 918.02 442.17 916.91 447.22 C 916.20 446.28 915.59 445.25 915.63 444.04 C 915.34 440.25 914.67 436.49 914.68 432.69 Z" />
<path fill="#231f20" opacity="1.00" d=" M 933.28 435.41 C 933.64 435.32 934.35 435.12 934.70 435.03 C 935.14 446.34 934.93 457.67 935.04 469.00 C 935.18 472.60 935.74 477.67 939.90 478.80 C 942.57 479.94 944.41 477.02 945.12 474.89 C 948.20 465.33 950.00 455.42 951.73 445.55 C 952.11 445.29 952.88 444.75 953.26 444.48 C 952.55 453.39 953.91 462.27 955.40 471.04 C 955.99 474.06 957.51 477.68 960.97 478.19 C 962.99 478.70 964.37 476.59 964.94 474.95 C 968.38 465.51 970.15 455.53 970.99 445.55 L 972.67 445.65 C 972.06 455.60 970.14 465.50 966.90 474.93 C 966.11 477.54 964.07 480.49 960.95 480.04 C 957.08 479.86 954.96 476.01 953.81 472.77 C 946.35 480.35 939.22 488.77 935.72 498.98 C 938.24 502.59 941.28 505.95 942.96 510.07 C 944.05 512.68 943.43 516.25 940.91 517.82 C 938.12 519.30 934.44 517.71 933.30 514.85 C 931.36 509.99 932.40 504.56 933.69 499.68 C 924.42 487.44 912.28 477.52 898.97 469.96 C 898.06 469.51 895.95 468.23 897.84 467.36 C 911.91 474.56 924.21 485.02 934.25 497.18 C 938.40 486.78 945.85 478.28 953.43 470.24 C 952.71 465.79 952.17 461.32 951.50 456.87 C 950.25 462.94 948.85 469.00 947.03 474.93 C 946.20 477.69 944.22 481.02 940.92 480.79 C 936.27 480.99 933.81 475.98 933.49 472.00 C 932.96 465.03 933.37 458.02 933.25 451.04 C 933.58 445.83 932.52 440.58 933.28 435.41 M 935.05 501.50 C 934.08 506.26 932.43 512.93 937.09 516.24 C 940.25 517.89 942.59 513.77 941.41 511.11 C 939.99 507.50 937.52 504.43 935.05 501.50 Z" />
<path fill="#231f20" opacity="1.00" d=" M 748.33 451.37 C 753.86 448.11 760.52 447.82 766.78 447.73 C 771.02 447.67 775.27 447.99 779.52 448.01 C 782.81 448.02 786.09 447.98 789.39 447.99 C 791.93 448.00 794.47 447.99 797.03 447.96 C 799.40 447.90 801.85 447.91 804.04 449.02 C 797.47 450.48 790.69 449.44 784.03 449.74 C 773.46 450.10 762.53 447.98 752.29 451.48 C 748.34 452.72 744.90 455.86 744.10 460.03 C 743.02 465.12 747.91 470.02 752.94 469.72 C 767.62 469.77 782.31 469.71 797.00 469.71 C 798.55 469.85 800.57 469.50 801.50 471.18 C 785.35 471.87 769.16 471.22 753.00 471.51 C 748.21 471.86 743.53 475.35 742.16 480.01 C 740.62 486.01 745.89 492.42 751.94 492.68 C 770.20 492.96 788.49 492.38 806.75 492.97 C 804.44 495.71 800.20 494.05 797.06 494.48 C 782.71 494.43 768.35 494.50 754.00 494.44 C 748.21 493.94 742.67 500.28 744.90 505.94 C 746.54 510.90 752.05 513.35 756.99 513.01 C 772.48 513.10 787.97 512.80 803.45 513.14 C 802.98 514.29 802.16 514.81 800.98 514.72 C 786.64 514.80 772.30 514.67 757.96 514.76 C 753.85 514.21 751.64 518.56 751.11 521.99 C 750.21 527.55 754.44 532.59 759.28 534.74 C 767.37 538.34 776.44 537.03 785.03 537.27 C 790.35 537.45 795.79 536.60 801.00 538.05 C 796.80 539.85 792.11 538.70 787.69 538.99 C 778.24 538.66 768.39 540.23 759.35 536.73 C 754.07 534.79 749.43 529.91 749.25 524.08 C 748.95 520.64 750.68 517.55 752.00 514.52 C 747.77 512.82 743.26 509.88 742.75 504.93 C 741.70 500.44 744.67 496.54 747.87 493.80 C 743.57 491.40 739.78 487.17 740.10 481.94 C 739.97 476.86 744.07 473.29 747.87 470.62 C 745.43 468.70 742.62 466.51 742.32 463.18 C 741.47 458.42 744.26 453.70 748.33 451.37 Z" />
<path fill="#231f20" opacity="1.00" d=" M 60.27 464.04 C 62.10 463.22 64.07 462.86 66.08 462.97 C 76.66 463.06 87.24 463.04 97.82 462.73 C 105.47 462.80 114.15 463.40 119.82 469.23 C 121.88 472.30 123.32 476.28 121.79 479.90 C 120.95 482.48 118.65 484.09 116.60 485.67 C 120.22 488.03 123.55 491.14 124.59 495.51 C 124.42 497.88 123.98 500.23 123.49 502.57 C 121.74 505.21 119.32 507.29 116.61 508.92 C 118.44 510.54 120.14 512.31 121.41 514.41 C 122.82 518.62 121.52 523.11 118.55 526.29 C 116.63 527.77 114.41 528.78 112.15 529.62 C 114.25 532.62 115.74 536.20 115.23 539.93 C 114.68 545.98 109.49 550.40 104.08 552.34 C 97.60 554.23 90.78 554.49 84.07 554.13 C 77.38 553.79 70.68 554.15 63.99 554.03 C 65.74 551.36 69.34 552.54 72.00 552.22 C 82.75 551.81 93.92 554.04 104.28 550.24 C 109.60 548.35 114.32 543.09 113.44 537.14 C 113.01 533.83 111.00 529.54 107.05 529.79 C 96.36 529.66 85.66 529.81 74.97 529.75 C 70.21 529.68 65.42 530.06 60.69 529.32 C 61.23 529.02 62.31 528.40 62.85 528.10 C 78.58 527.79 94.34 528.19 110.07 527.92 C 116.15 527.81 122.18 521.32 119.59 515.22 C 117.69 510.73 112.64 508.80 108.03 509.46 C 92.70 509.57 77.36 509.44 62.03 509.54 C 60.40 509.45 58.35 509.85 57.51 508.01 C 75.66 507.39 93.84 507.95 112.01 507.74 C 117.36 507.88 122.10 503.24 122.70 498.04 C 123.05 493.61 119.91 489.65 116.05 487.84 C 112.97 486.10 109.34 486.51 105.95 486.48 C 92.98 486.55 80.02 486.45 67.05 486.54 C 65.48 486.63 63.91 486.32 62.69 485.27 C 79.71 483.94 96.88 485.35 113.94 484.56 C 117.91 483.54 121.42 479.41 120.51 475.15 C 119.82 470.98 116.28 467.95 112.48 466.58 C 106.26 464.32 99.52 464.37 93.00 464.56 C 84.69 464.95 76.38 464.64 68.07 464.79 C 65.45 464.87 62.83 464.62 60.27 464.04 Z" />
<path fill="#231f20" opacity="1.00" d=" M 149.77 526.73 C 151.33 524.59 150.75 521.22 153.02 519.66 C 153.86 525.30 150.27 530.54 146.04 533.91 C 144.26 535.09 142.19 537.00 139.95 535.81 C 143.59 533.22 147.80 530.99 149.77 526.73 Z" />
<path fill="#231f20" opacity="1.00" d=" M 734.49 534.32 C 734.80 533.98 735.40 533.31 735.70 532.97 C 737.64 539.07 740.90 545.11 746.62 548.40 C 751.18 551.47 756.78 551.93 762.11 552.21 C 761.97 552.56 761.69 553.26 761.55 553.61 C 749.34 555.19 736.97 546.37 734.49 534.32 Z" />
<path fill="#231f20" opacity="1.00" d=" M 249.79 559.09 C 259.91 553.30 270.79 548.94 281.24 543.77 C 281.48 548.15 281.89 552.51 282.19 556.89 C 282.23 557.47 282.29 558.64 282.33 559.22 C 271.48 559.19 260.63 559.43 249.79 559.09 Z" />
<path fill="#231f20" opacity="1.00" d=" M 112.93 565.91 C 121.27 563.34 126.60 555.76 129.14 547.79 C 130.90 550.61 128.56 553.79 127.36 556.38 C 122.52 564.96 112.39 569.86 102.64 568.63 C 102.55 568.28 102.35 567.58 102.25 567.23 C 105.83 567.02 109.47 566.92 112.93 565.91 Z" />
<path fill="#231f20" opacity="1.00" d=" M 391.76 558.54 C 400.43 558.39 409.10 558.62 417.76 558.42 C 415.73 563.69 416.18 569.45 415.76 574.98 C 407.77 569.49 399.49 564.40 391.76 558.54 Z" />
<path fill="#231f20" opacity="1.00" d=" M 599.65 558.49 C 608.41 558.49 617.16 558.52 625.92 558.47 C 617.85 564.57 609.89 570.85 601.55 576.58 C 601.17 570.54 601.76 564.28 599.65 558.49 Z" />
</g>
<g id="#f0f0f0ff">
<path fill="#f0f0f0" opacity="1.00" d=" M 271.18 254.83 C 271.56 255.16 272.31 255.82 272.68 256.16 C 273.44 260.72 273.90 265.33 274.16 269.95 C 275.59 283.90 279.10 297.54 283.18 310.93 C 292.22 336.74 305.51 360.84 320.82 383.42 C 307.79 394.72 294.56 405.79 281.43 416.98 C 277.95 415.11 275.64 411.83 272.70 409.30 C 259.13 397.65 244.80 386.83 229.46 377.62 C 210.39 365.80 189.86 356.49 168.59 349.40 C 166.43 348.89 164.71 347.49 163.55 345.64 C 171.24 343.06 177.58 337.78 184.19 333.27 C 191.25 328.40 197.68 322.66 204.76 317.85 C 210.16 314.75 214.51 310.20 219.39 306.39 C 223.84 302.39 228.71 298.84 232.69 294.35 C 244.11 283.27 256.42 273.04 266.88 261.00 C 268.53 259.09 269.91 256.99 271.18 254.83 Z" />
<path fill="#f0f0f0" opacity="1.00" d=" M 268.66 427.83 C 272.73 423.73 278.53 422.24 283.14 418.89 C 284.72 420.64 286.45 422.24 288.06 423.96 C 288.13 424.25 288.26 424.82 288.32 425.11 L 289.40 425.39 C 291.09 426.88 292.65 428.52 294.25 430.12 C 295.79 436.89 297.16 443.70 298.89 450.43 C 295.13 453.18 290.61 454.54 286.53 456.72 C 285.09 457.37 283.61 457.93 282.14 458.50 C 279.55 455.52 276.99 452.52 274.33 449.61 C 277.71 441.75 272.20 434.45 268.66 427.83 Z" />
<path fill="#f0f0f0" opacity="1.00" d=" M 238.92 459.16 C 242.38 462.02 246.19 465.36 251.02 464.99 C 253.62 465.02 255.50 463.05 257.25 461.40 C 257.95 463.98 258.74 466.53 259.73 469.02 C 254.03 471.46 248.56 474.41 242.71 476.49 C 245.36 470.48 241.82 464.33 238.92 459.16 Z" />
<path fill="#f0f0f0" opacity="1.00" d=" M 224.09 477.34 C 226.05 478.75 228.12 480.02 230.38 480.92 C 228.73 481.02 227.09 481.16 225.45 481.33 C 225.03 479.98 224.56 478.66 224.09 477.34 Z" />
</g>
<g id="#f370b2ff">
<path fill="#f370b2" opacity="1.00" d=" M 797.97 272.27 C 800.37 272.26 802.77 272.26 805.17 272.33 C 819.80 272.75 834.44 272.13 849.06 272.72 C 862.71 272.84 876.36 272.51 890.01 273.01 C 911.46 272.80 932.89 273.45 954.34 273.24 C 954.44 277.25 954.47 281.25 954.49 285.26 C 942.98 285.29 931.47 285.54 919.98 285.03 C 907.33 284.85 894.67 285.25 882.03 284.79 C 853.87 284.60 825.69 284.83 797.54 284.22 C 797.71 280.24 797.77 276.25 797.97 272.27 Z" />
<path fill="#f370b2" opacity="1.00" d=" M 797.69 356.40 C 814.18 356.56 830.67 356.21 847.16 356.57 C 830.67 356.50 814.17 356.93 797.69 356.40 Z" />
</g>
<g id="#011899ff">
<path fill="#011899" opacity="1.00" d=" M 596.02 292.95 C 655.55 287.62 715.09 282.36 774.64 277.32 C 775.10 283.22 775.67 289.11 776.16 295.01 C 776.31 297.33 776.39 299.66 776.48 301.99 C 708.85 308.23 641.16 313.97 573.49 319.88 C 580.95 310.86 588.52 301.94 596.02 292.95 Z" />
</g>
<g id="#f61114ff">
<path fill="#f61114" opacity="1.00" d=" M 797.54 284.22 C 825.69 284.83 853.87 284.60 882.03 284.79 C 894.67 285.25 907.33 284.85 919.98 285.03 C 931.47 285.54 942.98 285.29 954.49 285.26 C 954.50 289.28 954.49 293.30 954.51 297.32 C 944.30 297.14 934.08 297.37 923.87 297.20 C 911.58 296.72 899.28 297.20 886.99 296.93 C 871.66 296.32 856.30 297.25 840.98 296.30 C 826.51 296.29 812.04 296.34 797.57 296.08 C 797.60 292.12 797.66 288.17 797.54 284.22 Z" />
</g>
<g id="#e5e2dcff">
<path fill="#e5e2dc" opacity="1.00" d=" M 218.08 293.16 C 222.86 291.10 228.10 292.52 232.69 294.35 C 228.71 298.84 223.84 302.39 219.39 306.39 C 214.51 310.20 210.16 314.75 204.76 317.85 C 201.17 307.61 208.86 297.07 218.08 293.16 Z" />
</g>
<g id="#750087ff">
<path fill="#750087" opacity="1.00" d=" M 776.16 295.01 C 777.14 305.86 778.13 316.71 779.01 327.57 C 775.04 327.75 771.09 328.08 767.14 328.46 C 693.40 335.01 619.63 341.25 545.90 347.97 C 548.26 347.79 550.85 347.45 552.22 345.25 C 559.27 336.76 566.34 328.29 573.49 319.88 C 641.16 313.97 708.85 308.23 776.48 301.99 C 776.39 299.66 776.31 297.33 776.16 295.01 Z" />
</g>
<g id="#f68815ff">
<path fill="#f68815" opacity="1.00" d=" M 797.57 296.08 C 812.04 296.34 826.51 296.29 840.98 296.30 C 856.30 297.25 871.66 296.32 886.99 296.93 C 899.28 297.20 911.58 296.72 923.87 297.20 C 934.07 297.73 944.30 297.24 954.51 297.46 C 954.50 301.39 954.50 305.33 954.49 309.27 C 944.31 309.20 934.12 309.38 923.95 309.21 C 911.99 308.71 900.02 309.18 888.06 308.95 C 872.73 308.33 857.38 309.17 842.05 308.40 C 827.20 308.34 812.34 308.49 797.49 308.16 C 797.59 304.13 797.53 300.10 797.57 296.08 Z" />
</g>
<g id="#f2ef0eff">
<path fill="#f2ef0e" opacity="1.00" d=" M 797.49 308.16 C 812.34 308.49 827.20 308.34 842.05 308.40 C 857.38 309.17 872.73 308.33 888.06 308.95 C 900.02 309.18 911.99 308.71 923.95 309.21 C 934.13 309.64 944.33 309.29 954.52 309.37 C 954.26 313.29 954.19 317.22 954.23 321.15 C 944.15 321.10 934.08 321.21 924.00 321.10 C 881.80 320.81 839.60 320.68 797.40 320.24 C 797.34 316.21 797.36 312.18 797.49 308.16 Z" />
</g>
<g id="#108d0dff">
<path fill="#108d0d" opacity="1.00" d=" M 797.40 320.24 C 839.60 320.68 881.80 320.81 924.00 321.10 C 934.08 321.45 944.18 321.15 954.27 321.27 C 954.24 325.25 954.24 329.24 954.26 333.22 C 944.48 333.10 934.69 333.27 924.92 333.14 C 912.95 332.80 900.98 333.13 889.01 332.97 C 877.01 332.54 864.99 332.82 852.99 332.76 C 834.60 331.95 816.18 332.53 797.77 332.18 C 797.65 336.20 797.65 340.22 797.78 344.25 L 797.41 344.25 C 797.54 336.24 797.40 328.24 797.40 320.24 Z" />
</g>
<g id="#0bbbb8ff">
<path fill="#0bbbb8" opacity="1.00" d=" M 797.77 332.18 C 816.18 332.53 834.60 331.95 852.99 332.76 C 864.99 332.82 877.01 332.54 889.01 332.97 C 900.98 333.13 912.95 332.80 924.92 333.14 C 934.69 333.59 944.49 333.16 954.28 333.38 C 954.24 337.31 954.24 341.25 954.24 345.19 C 944.49 345.09 934.74 345.23 924.99 345.12 C 910.98 344.74 896.96 345.31 882.95 344.77 C 871.05 344.67 859.15 344.83 847.25 344.69 C 830.76 344.32 814.26 344.72 797.78 344.25 C 797.65 340.22 797.65 336.20 797.77 332.18 Z" />
</g>
<g id="#760089ff">
<path fill="#760089" opacity="1.00" d=" M 797.41 344.25 L 797.78 344.25 C 814.26 344.72 830.76 344.32 847.25 344.69 C 830.85 345.63 814.41 344.75 798.00 344.87 C 797.65 348.70 797.54 352.55 797.69 356.40 C 814.17 356.93 830.67 356.50 847.16 356.57 C 860.75 357.01 874.35 356.45 887.95 356.92 C 900.26 357.24 912.59 356.61 924.90 357.28 C 934.58 357.85 944.30 357.34 954.00 357.56 C 954.00 361.54 954.00 365.51 954.00 369.49 C 931.58 369.63 909.17 369.02 886.75 369.25 C 874.51 368.64 862.25 369.22 850.00 368.96 C 834.93 368.39 819.84 369.13 804.78 368.50 C 802.25 368.46 799.73 368.51 797.22 368.55 C 797.20 360.45 797.01 352.34 797.41 344.25 Z" />
</g>
<g id="#3f0199ff">
<path fill="#3f0199" opacity="1.00" d=" M 798.00 344.87 C 814.41 344.75 830.85 345.63 847.25 344.69 C 859.15 344.83 871.05 344.67 882.95 344.77 C 896.96 345.31 910.98 344.74 924.99 345.12 C 934.76 345.48 944.55 345.15 954.33 345.31 C 954.18 349.34 953.99 353.37 953.96 357.41 C 944.27 357.27 934.58 357.53 924.90 357.28 C 912.59 356.61 900.26 357.24 887.95 356.92 C 874.35 356.45 860.75 357.01 847.16 356.57 C 830.67 356.21 814.18 356.56 797.69 356.40 C 797.54 352.55 797.65 348.70 798.00 344.87 Z" />
</g>
<g id="#f4b092ff">
<path fill="#f4b092" opacity="1.00" d=" M 915.46 387.37 C 915.80 383.83 918.71 379.98 922.59 380.48 C 926.38 381.45 928.06 385.47 929.13 388.86 C 932.93 402.75 932.04 417.31 933.72 431.50 C 936.87 427.74 941.66 424.10 946.81 426.33 C 952.35 427.97 953.56 434.06 954.39 439.01 C 955.63 435.22 957.60 431.26 961.39 429.48 C 965.46 427.86 970.18 429.95 972.38 433.58 C 976.40 439.96 976.22 447.85 975.86 455.11 C 975.71 460.73 973.34 466.26 974.72 471.89 C 976.78 482.27 979.10 493.07 976.59 503.59 C 975.75 507.50 972.95 510.84 972.99 514.95 C 972.97 523.13 972.93 531.31 973.12 539.48 C 949.39 538.92 925.66 538.22 901.93 537.58 C 902.04 532.15 902.97 526.59 901.67 521.24 C 899.27 514.31 892.47 510.48 888.56 504.55 C 883.77 497.04 879.22 489.30 876.11 480.93 C 870.46 465.43 866.58 449.36 862.19 433.48 C 862.35 431.73 862.88 430.02 864.09 428.70 C 870.55 428.86 875.98 433.26 879.80 438.13 C 883.06 442.14 884.17 447.27 885.97 451.99 C 888.08 457.17 890.79 462.26 894.95 466.10 C 895.76 458.07 894.95 450.01 894.33 442.01 C 893.05 430.37 892.16 418.69 891.47 407.00 C 891.15 401.59 891.26 396.15 891.95 390.78 C 893.03 387.16 895.00 383.94 897.98 381.58 C 901.74 382.69 904.23 385.85 905.58 389.41 C 910.58 401.76 912.32 415.07 914.57 428.12 C 915.43 414.56 913.80 400.89 915.46 387.37 M 914.68 432.69 C 914.67 436.49 915.34 440.25 915.63 444.04 C 915.59 445.25 916.20 446.28 916.91 447.22 C 918.02 442.17 916.73 436.81 915.85 431.78 C 915.56 432.01 914.98 432.46 914.68 432.69 M 933.28 435.41 C 932.52 440.58 933.58 445.83 933.25 451.04 C 933.37 458.02 932.96 465.03 933.49 472.00 C 933.81 475.98 936.27 480.99 940.92 480.79 C 944.22 481.02 946.20 477.69 947.03 474.93 C 948.85 469.00 950.25 462.94 951.50 456.87 C 952.17 461.32 952.71 465.79 953.43 470.24 C 945.85 478.28 938.40 486.78 934.25 497.18 C 924.21 485.02 911.91 474.56 897.84 467.36 C 895.95 468.23 898.06 469.51 898.97 469.96 C 912.28 477.52 924.42 487.44 933.69 499.68 C 932.40 504.56 931.36 509.99 933.30 514.85 C 934.44 517.71 938.12 519.30 940.91 517.82 C 943.43 516.25 944.05 512.68 942.96 510.07 C 941.28 505.95 938.24 502.59 935.72 498.98 C 939.22 488.77 946.35 480.35 953.81 472.77 C 954.96 476.01 957.08 479.86 960.95 480.04 C 964.07 480.49 966.11 477.54 966.90 474.93 C 970.14 465.50 972.06 455.60 972.67 445.65 L 970.99 445.55 C 970.15 455.53 968.38 465.51 964.94 474.95 C 964.37 476.59 962.99 478.70 960.97 478.19 C 957.51 477.68 955.99 474.06 955.40 471.04 C 953.91 462.27 952.55 453.39 953.26 444.48 C 952.88 444.75 952.11 445.29 951.73 445.55 C 950.00 455.42 948.20 465.33 945.12 474.89 C 944.41 477.02 942.57 479.94 939.90 478.80 C 935.74 477.67 935.18 472.60 935.04 469.00 C 934.93 457.67 935.14 446.34 934.70 435.03 C 934.35 435.12 933.64 435.32 933.28 435.41 Z" />
<path fill="#f4b092" opacity="1.00" d=" M 416.06 391.08 C 417.74 389.79 419.77 388.50 422.01 389.13 C 424.38 389.48 425.23 392.04 426.95 393.37 C 428.55 393.95 430.12 393.09 431.61 392.60 C 436.51 390.74 441.60 388.23 446.99 389.16 C 450.35 389.89 451.94 393.85 450.93 396.95 C 449.87 401.70 445.23 404.11 441.42 406.42 C 432.32 411.63 426.16 420.73 422.43 430.34 C 420.30 436.12 418.01 441.92 417.18 448.06 C 421.23 440.82 425.61 433.50 432.17 428.24 C 436.73 424.73 442.41 423.19 447.96 422.02 C 454.90 420.60 461.91 418.65 469.07 419.34 C 476.49 420.29 482.91 424.47 489.72 427.25 C 492.29 428.43 495.52 429.47 496.59 432.39 C 497.55 436.04 493.81 438.76 490.69 439.53 C 481.76 441.58 472.90 437.55 463.93 438.30 C 453.69 438.86 443.91 445.10 439.35 454.33 C 435.24 463.24 435.63 473.39 435.84 482.97 C 435.92 490.43 441.50 496.05 446.83 500.54 C 452.71 505.69 459.63 509.78 467.27 511.64 C 473.70 513.46 480.54 513.05 486.92 515.08 C 491.59 516.53 496.03 519.00 499.40 522.60 C 501.11 524.40 502.22 527.46 500.50 529.63 C 497.55 533.39 492.68 535.08 488.02 535.22 C 478.23 536.07 468.14 531.84 458.60 535.50 C 447.12 539.90 438.39 549.35 426.88 553.71 C 423.64 554.85 420.22 555.87 417.76 558.42 C 409.10 558.62 400.43 558.39 391.76 558.54 C 399.49 564.40 407.77 569.49 415.76 574.98 C 415.06 599.98 414.30 624.99 415.04 650.00 L 351.10 650.00 C 352.23 626.37 352.68 602.70 353.88 579.07 C 354.81 564.50 356.59 549.89 360.93 535.90 C 365.54 520.34 372.52 505.62 377.20 490.10 C 380.09 477.61 379.63 464.68 378.82 451.98 C 378.25 437.57 377.64 422.39 383.99 409.03 C 385.64 405.46 388.57 401.11 393.14 402.02 C 396.76 402.23 396.88 406.53 397.06 409.24 C 393.52 411.63 391.37 415.47 389.24 419.05 C 383.13 430.47 380.40 443.68 381.00 456.58 C 382.70 455.62 382.47 453.65 382.61 452.01 C 383.16 439.95 385.87 427.65 392.40 417.35 C 394.16 414.37 397.15 412.10 397.95 408.60 C 402.54 401.43 409.35 396.14 416.06 391.08 M 423.54 395.52 C 418.81 399.47 413.94 403.25 409.33 407.34 C 402.39 413.50 398.03 422.11 395.89 431.06 C 393.99 439.48 392.73 448.17 392.95 456.81 C 395.06 456.06 394.43 453.72 394.72 452.02 C 395.67 439.25 397.31 425.71 404.94 414.98 C 410.45 407.80 418.01 402.61 424.91 396.89 C 425.54 396.11 427.39 395.39 426.79 394.15 C 425.43 393.58 424.49 394.80 423.54 395.52 Z" />
<path fill="#f4b092" opacity="1.00" d=" M 566.21 395.00 C 565.74 391.73 568.67 388.80 571.90 388.97 C 578.36 389.00 584.33 392.02 590.16 394.49 C 596.93 401.51 605.82 406.33 611.80 414.16 C 619.91 424.95 621.67 438.88 622.64 451.96 C 623.08 453.58 622.19 456.39 624.65 456.71 C 623.90 441.63 622.50 425.33 613.12 412.84 C 606.75 405.24 598.53 399.49 590.84 393.31 C 592.12 390.52 594.73 389.03 597.69 388.56 C 605.96 394.10 613.60 400.61 619.79 408.44 C 620.57 406.30 620.75 403.37 623.16 402.34 C 625.97 401.28 629.33 402.49 631.00 404.96 C 633.75 408.72 635.24 413.22 636.50 417.66 C 642.83 441.87 633.97 467.22 640.53 491.40 C 645.35 506.84 652.35 521.52 656.76 537.10 C 663.00 557.26 663.50 578.55 664.46 599.46 C 664.98 616.30 665.47 633.15 666.13 650.00 L 602.13 650.00 C 602.79 625.55 602.55 601.03 601.55 576.58 C 609.89 570.85 617.85 564.57 625.92 558.47 C 617.16 558.52 608.41 558.49 599.65 558.49 C 595.83 554.64 590.12 554.13 585.60 551.43 C 575.75 546.51 567.68 538.30 557.03 534.96 C 548.48 532.37 539.67 535.73 530.99 535.32 C 525.95 535.24 520.45 533.89 517.08 529.88 C 515.45 528.07 515.81 525.18 517.29 523.41 C 519.83 520.09 523.54 517.91 527.30 516.23 C 534.68 512.92 543.02 513.73 550.68 511.48 C 560.44 508.97 568.82 502.81 575.74 495.66 C 579.01 492.25 581.41 487.76 581.41 482.94 C 581.42 474.50 582.09 465.78 579.35 457.65 C 575.80 446.93 565.25 439.16 554.07 438.35 C 544.36 437.28 534.72 442.05 525.11 439.15 C 522.86 437.96 521.33 435.92 520.03 433.80 C 521.10 431.40 522.68 429.18 525.29 428.32 C 534.55 424.64 543.37 418.23 553.81 419.16 C 558.92 419.71 563.92 420.88 568.94 421.93 C 574.74 423.25 580.82 424.63 585.56 428.45 C 591.81 433.50 595.72 440.67 600.02 447.31 C 597.86 436.93 594.26 426.61 588.27 417.79 C 584.36 411.89 578.58 407.59 572.41 404.29 C 569.22 402.25 566.01 399.10 566.21 395.00 M 619.02 409.55 C 621.18 412.51 623.79 415.15 625.61 418.36 C 632.37 429.71 634.76 443.13 634.90 456.19 C 637.22 456.20 636.27 453.40 636.54 451.98 C 635.91 437.79 632.33 423.08 623.25 411.84 C 622.13 410.61 620.99 408.56 619.02 409.55 Z" />
<path fill="#f4b092" opacity="1.00" d=" M 935.05 501.50 C 937.52 504.43 939.99 507.50 941.41 511.11 C 942.59 513.77 940.25 517.89 937.09 516.24 C 932.43 512.93 934.08 506.26 935.05 501.50 Z" />
<path fill="#f4b092" opacity="1.00" d=" M 901.36 545.73 C 926.85 546.20 952.34 547.22 977.84 547.40 C 976.28 547.60 974.72 547.81 973.18 548.03 C 973.34 549.11 973.51 550.20 973.69 551.30 C 949.55 551.76 925.39 551.68 901.24 551.99 C 901.27 549.90 901.31 547.81 901.36 545.73 Z" />
<path fill="#f4b092" opacity="1.00" d=" M 943.82 559.58 C 953.63 559.37 963.44 559.45 973.25 559.28 C 973.34 560.57 973.43 561.88 973.54 563.19 C 963.62 562.12 953.77 560.39 943.82 559.58 Z" />
<path fill="#f4b092" opacity="1.00" d=" M 898.96 570.73 C 924.60 573.95 950.21 577.48 975.87 580.53 C 949.67 580.72 923.47 580.99 897.27 581.26 C 897.98 577.77 898.56 574.26 898.96 570.73 Z" />
<path fill="#f4b092" opacity="1.00" d=" M 904.53 589.37 C 927.76 588.86 950.99 588.67 974.23 588.52 C 974.15 595.32 974.48 602.12 974.35 608.93 C 951.07 602.42 927.77 595.99 904.53 589.37 Z" />
<path fill="#f4b092" opacity="1.00" d=" M 894.85 595.88 C 917.46 601.99 939.96 608.51 962.60 614.51 C 957.28 614.84 952.04 613.80 946.78 613.30 C 928.89 611.31 911.01 609.33 893.13 607.32 C 894.25 603.61 894.75 599.75 894.85 595.88 Z" />
<path fill="#f4b092" opacity="1.00" d=" M 891.21 615.98 C 918.93 618.85 946.62 621.99 974.33 624.98 C 974.41 633.32 974.14 641.66 973.73 650.00 L 885.97 650.00 C 886.87 642.94 888.21 635.94 889.39 628.93 C 890.10 624.63 891.43 620.38 891.21 615.98 Z" />
</g>
<g id="#ef9d8fff">
<path fill="#ef9d8f" opacity="1.00" d=" M 234.56 403.53 C 238.24 399.44 244.60 399.49 249.33 401.57 C 253.66 403.35 256.54 407.26 258.79 411.19 C 258.61 412.45 258.19 413.82 259.03 414.96 C 262.96 422.26 267.24 429.38 271.12 436.71 C 272.91 440.05 273.99 443.88 272.98 447.65 C 272.05 446.68 271.14 445.70 270.24 444.72 C 271.21 442.06 270.32 439.43 268.33 437.53 C 267.11 438.18 265.88 438.83 264.66 439.48 C 262.56 438.49 260.02 437.60 257.79 438.71 C 255.48 439.76 254.89 442.42 253.93 444.52 C 248.96 437.58 244.96 429.95 239.54 423.33 C 238.95 423.07 237.78 422.54 237.19 422.28 C 242.00 432.63 250.45 440.98 254.43 451.82 C 253.81 451.57 252.58 451.09 251.96 450.85 C 248.89 452.61 245.96 454.63 243.39 457.06 C 245.37 459.50 248.61 461.17 251.72 459.77 C 254.47 458.58 254.21 455.12 254.65 452.66 C 255.26 455.46 256.43 458.88 254.33 461.35 C 252.05 463.94 248.06 463.09 245.47 461.45 C 236.49 455.71 229.79 447.19 223.93 438.44 L 222.64 438.82 C 225.27 446.87 232.94 451.84 236.61 459.33 C 238.96 463.92 242.64 468.83 241.31 474.25 C 239.32 479.64 231.89 480.24 227.62 477.32 C 220.68 472.69 217.71 464.50 212.85 458.05 C 210.55 455.18 209.16 451.19 205.52 449.73 C 205.95 451.11 206.34 452.55 207.16 453.77 C 212.41 461.94 218.57 469.64 222.30 478.69 C 221.79 478.62 220.77 478.48 220.26 478.41 C 217.45 480.41 214.68 482.47 211.89 484.51 C 213.28 487.77 217.54 489.13 220.63 487.56 C 222.30 485.77 222.69 483.24 223.11 480.94 C 223.61 482.88 224.04 484.93 223.64 486.94 C 223.11 489.41 220.44 490.99 218.01 490.64 C 215.55 490.42 213.38 489.09 211.45 487.66 C 204.63 482.48 198.72 476.10 194.19 468.83 C 193.43 467.36 192.10 466.43 190.57 465.89 C 188.24 462.08 185.63 457.68 186.86 453.04 C 188.34 447.55 193.94 443.86 199.59 444.54 C 199.46 439.47 199.68 433.43 204.01 430.00 C 208.04 426.86 213.45 428.03 218.00 429.15 C 217.97 422.19 224.09 415.97 231.19 416.74 C 231.29 412.21 231.34 407.11 234.56 403.53 M 227.52 472.96 C 229.54 475.17 232.62 476.84 235.64 475.69 C 239.08 473.79 238.64 468.96 236.97 465.99 C 233.48 467.81 230.08 469.91 227.52 472.96 Z" />
<path fill="#ef9d8f" opacity="1.00" d=" M 259.36 440.32 C 262.62 439.82 265.16 442.64 267.32 444.68 C 274.72 452.96 281.76 461.57 289.40 469.64 C 290.40 470.74 291.68 471.54 293.00 472.23 C 292.62 470.94 292.36 469.54 291.34 468.58 C 288.26 465.23 285.10 461.96 282.14 458.50 C 283.61 457.93 285.09 457.37 286.53 456.72 C 291.42 466.21 296.93 475.36 302.54 484.43 C 305.09 488.46 305.85 493.62 304.06 498.09 C 301.65 504.20 297.70 509.52 294.56 515.24 C 291.10 521.28 287.82 527.41 284.60 533.58 C 282.93 536.76 281.58 540.17 281.24 543.77 C 270.79 548.94 259.91 553.30 249.79 559.09 C 260.63 559.43 271.48 559.19 282.33 559.22 C 282.29 558.64 282.23 557.47 282.19 556.89 C 283.69 587.89 283.36 618.97 282.99 650.00 L 202.92 650.00 C 202.30 639.68 203.11 629.35 203.01 619.03 C 203.66 591.37 203.80 563.70 204.31 536.05 C 204.63 529.85 200.44 524.84 198.90 519.08 C 194.26 503.68 193.85 487.44 193.15 471.49 C 198.53 478.78 204.62 485.75 212.27 490.73 C 215.65 492.89 220.67 493.80 223.81 490.75 C 226.32 488.29 225.90 484.49 225.45 481.33 C 227.09 481.16 228.73 481.02 230.38 480.92 C 234.94 481.52 240.04 480.63 242.71 476.49 C 248.56 474.41 254.03 471.46 259.73 469.02 C 262.90 477.17 267.44 484.74 272.92 491.54 C 260.66 493.02 249.68 501.10 244.29 512.17 C 241.49 508.51 238.65 504.85 235.33 501.64 C 234.40 500.59 233.06 500.12 231.74 499.81 C 232.79 502.69 235.28 504.59 237.27 506.81 C 239.55 509.22 241.49 511.92 243.34 514.68 C 241.07 521.25 240.12 528.46 241.78 535.28 C 242.53 538.53 245.25 542.04 248.95 541.47 C 253.19 540.78 254.98 535.74 253.93 531.98 C 252.37 525.56 249.02 519.78 245.71 514.14 C 250.99 502.00 263.31 493.94 276.41 493.06 C 274.26 489.16 271.04 486.02 268.77 482.20 C 262.26 472.19 258.47 460.66 256.45 448.96 C 255.99 445.94 255.89 441.59 259.36 440.32 Z" />
<path fill="#ef9d8f" opacity="1.00" d=" M 244.72 516.97 C 247.86 521.50 250.21 526.61 251.81 531.88 C 252.95 534.87 251.52 539.24 247.96 539.59 C 245.50 539.15 244.37 536.60 243.70 534.48 C 242.29 528.70 243.03 522.61 244.72 516.97 Z" />
</g>
<g id="#963b23ff">
<path fill="#963b23" opacity="1.00" d=" M 759.28 417.25 C 763.01 414.74 768.72 414.60 771.88 418.12 C 774.86 421.79 774.45 426.98 773.30 431.27 C 771.61 436.93 769.46 442.46 766.78 447.73 C 760.52 447.82 753.86 448.11 748.33 451.37 C 744.26 453.70 741.47 458.42 742.32 463.18 C 742.62 466.51 745.43 468.70 747.87 470.62 C 744.07 473.29 739.97 476.86 740.10 481.94 C 739.78 487.17 743.57 491.40 747.87 493.80 C 744.67 496.54 741.70 500.44 742.75 504.93 C 743.26 509.88 747.77 512.82 752.00 514.52 C 750.68 517.55 748.95 520.64 749.25 524.08 C 749.43 529.91 754.07 534.79 759.35 536.73 C 768.39 540.23 778.24 538.66 787.69 538.99 C 787.78 540.65 787.88 542.31 787.99 543.97 C 787.47 544.18 786.42 544.61 785.89 544.82 C 781.56 546.30 777.22 547.72 772.84 549.05 C 771.61 582.69 770.92 616.35 769.75 650.00 L 697.69 650.00 C 697.77 644.59 698.44 639.22 698.91 633.84 C 702.81 591.88 706.69 549.92 710.58 507.95 C 711.25 499.61 711.14 490.90 714.85 483.19 C 717.89 476.92 720.56 470.49 722.96 463.95 C 725.12 458.36 726.78 452.38 730.66 447.66 C 734.91 441.93 741.13 438.11 745.50 432.49 C 749.80 427.18 753.44 421.06 759.28 417.25 M 710.93 504.67 C 711.41 512.08 716.50 520.34 724.36 521.27 C 723.50 518.92 720.80 518.37 719.12 516.79 C 715.46 513.96 713.75 509.56 712.61 505.24 C 712.19 505.10 711.35 504.81 710.93 504.67 M 734.49 534.32 C 736.97 546.37 749.34 555.19 761.55 553.61 C 761.69 553.26 761.97 552.56 762.11 552.21 C 756.78 551.93 751.18 551.47 746.62 548.40 C 740.90 545.11 737.64 539.07 735.70 532.97 C 735.40 533.31 734.80 533.98 734.49 534.32 Z" />
<path fill="#963b23" opacity="1.00" d=" M 752.29 451.48 C 762.53 447.98 773.46 450.10 784.03 449.74 C 790.69 449.44 797.47 450.48 804.04 449.02 C 804.18 449.06 804.45 449.14 804.58 449.18 C 810.05 450.46 815.84 453.67 817.38 459.48 C 818.69 463.51 816.34 467.32 814.62 470.80 C 816.80 474.20 818.56 477.91 819.11 481.95 C 819.32 485.17 817.96 488.05 816.40 490.77 C 817.67 493.44 819.42 496.01 819.49 499.09 C 820.18 505.14 816.66 510.45 813.36 515.16 C 818.22 523.51 814.56 536.99 804.23 538.86 C 803.14 538.57 802.06 538.29 801.00 538.05 C 795.79 536.60 790.35 537.45 785.03 537.27 C 776.44 537.03 767.37 538.34 759.28 534.74 C 754.44 532.59 750.21 527.55 751.11 521.99 C 751.64 518.56 753.85 514.21 757.96 514.76 C 772.30 514.67 786.64 514.80 800.98 514.72 C 802.16 514.81 802.98 514.29 803.45 513.14 C 787.97 512.80 772.48 513.10 756.99 513.01 C 752.05 513.35 746.54 510.90 744.90 505.94 C 742.67 500.28 748.21 493.94 754.00 494.44 C 768.35 494.50 782.71 494.43 797.06 494.48 C 800.20 494.05 804.44 495.71 806.75 492.97 C 788.49 492.38 770.20 492.96 751.94 492.68 C 745.89 492.42 740.62 486.01 742.16 480.01 C 743.53 475.35 748.21 471.86 753.00 471.51 C 769.16 471.22 785.35 471.87 801.50 471.18 C 800.57 469.50 798.55 469.85 797.00 469.71 C 782.31 469.71 767.62 469.77 752.94 469.72 C 747.91 470.02 743.02 465.12 744.10 460.03 C 744.90 455.86 748.34 452.72 752.29 451.48 M 749.26 455.27 C 746.54 456.92 745.16 460.98 747.23 463.67 C 749.01 466.66 752.57 467.57 755.81 467.90 C 756.14 462.96 756.16 458.01 755.73 453.09 C 753.54 453.69 751.26 454.13 749.26 455.27 M 744.34 482.05 C 744.22 486.79 749.46 489.71 753.75 488.98 C 753.81 484.60 753.81 480.22 753.82 475.84 C 749.78 475.12 744.68 477.60 744.34 482.05 M 746.28 503.96 C 746.68 508.66 751.61 510.81 755.78 510.94 C 756.14 506.19 756.03 501.44 755.95 496.69 C 751.62 496.39 746.06 498.97 746.28 503.96 M 754.20 519.18 C 752.53 520.86 752.79 523.55 753.43 525.64 C 755.17 528.92 759.11 530.31 762.66 529.96 C 762.80 525.35 762.83 520.74 762.68 516.13 C 759.61 516.01 756.31 516.80 754.20 519.18 Z" />
</g>
<g id="#e88764ff">
<path fill="#e88764" opacity="1.00" d=" M 92.43 433.43 C 95.73 429.30 102.27 429.75 106.15 432.81 C 112.99 437.83 116.79 445.73 122.76 451.63 C 122.59 457.61 120.81 463.36 119.82 469.23 C 114.15 463.40 105.47 462.80 97.82 462.73 C 95.03 457.42 92.87 451.78 91.19 446.03 C 90.21 441.93 89.74 437.00 92.43 433.43 Z" />
<path fill="#e88764" opacity="1.00" d=" M 127.58 482.73 C 129.05 475.26 130.20 467.74 131.82 460.30 C 138.53 466.93 140.27 476.54 143.92 484.89 C 146.81 493.28 152.22 500.86 152.95 509.92 C 156.98 556.63 161.50 603.31 165.79 650.00 L 94.21 650.00 C 93.56 621.41 92.62 592.81 91.76 564.22 C 81.46 560.84 71.15 557.46 60.82 554.17 C 57.84 553.13 54.56 552.10 52.63 549.42 C 48.46 543.91 48.02 536.24 51.04 530.10 C 48.27 525.82 44.92 521.40 44.98 516.05 C 44.69 512.36 46.29 508.96 48.09 505.86 C 46.96 503.67 45.59 501.46 45.51 498.92 C 45.19 494.13 47.50 489.77 49.88 485.80 C 48.07 482.21 45.68 478.18 47.29 474.05 C 49.04 468.31 54.88 465.46 60.27 464.04 C 62.83 464.62 65.45 464.87 68.07 464.79 C 76.38 464.64 84.69 464.95 93.00 464.56 C 99.52 464.37 106.26 464.32 112.48 466.58 C 116.28 467.95 119.82 470.98 120.51 475.15 C 121.42 479.41 117.91 483.54 113.94 484.56 C 96.88 485.35 79.71 483.94 62.69 485.27 C 63.91 486.32 65.48 486.63 67.05 486.54 C 80.02 486.45 92.98 486.55 105.95 486.48 C 109.34 486.51 112.97 486.10 116.05 487.84 C 119.91 489.65 123.05 493.61 122.70 498.04 C 122.10 503.24 117.36 507.88 112.01 507.74 C 93.84 507.95 75.66 507.39 57.51 508.01 C 58.35 509.85 60.40 509.45 62.03 509.54 C 77.36 509.44 92.70 509.57 108.03 509.46 C 112.64 508.80 117.69 510.73 119.59 515.22 C 122.18 521.32 116.15 527.81 110.07 527.92 C 94.34 528.19 78.58 527.79 62.85 528.10 C 62.31 528.40 61.23 529.02 60.69 529.32 C 65.42 530.06 70.21 529.68 74.97 529.75 C 85.66 529.81 96.36 529.66 107.05 529.79 C 111.00 529.54 113.01 533.83 113.44 537.14 C 114.32 543.09 109.60 548.35 104.28 550.24 C 93.92 554.04 82.75 551.81 72.00 552.22 C 69.34 552.54 65.74 551.36 63.99 554.03 C 70.68 554.15 77.38 553.79 84.07 554.13 C 90.78 554.49 97.60 554.23 104.08 552.34 C 104.04 557.38 102.17 562.19 102.25 567.23 C 102.35 567.58 102.55 568.28 102.64 568.63 C 112.39 569.86 122.52 564.96 127.36 556.38 C 128.56 553.79 130.90 550.61 129.14 547.79 C 126.60 555.76 121.27 563.34 112.93 565.91 C 112.96 558.25 115.33 550.87 116.41 543.33 C 117.16 537.66 119.45 532.05 118.55 526.29 C 121.52 523.11 122.82 518.62 121.41 514.41 C 122.73 510.59 123.28 506.58 123.49 502.57 C 123.98 500.23 124.42 497.88 124.59 495.51 C 126.32 491.45 126.73 487.02 127.58 482.73 M 108.82 468.73 C 108.67 473.47 108.28 478.25 109.06 482.95 C 112.19 482.32 115.65 481.51 117.57 478.71 C 118.54 476.71 118.41 474.26 117.58 472.24 C 115.74 469.30 112.00 468.76 108.82 468.73 M 111.06 490.30 C 110.60 494.92 110.57 499.57 111.04 504.19 C 115.48 504.56 121.11 501.08 119.99 496.07 C 119.12 491.92 114.62 490.90 111.06 490.30 M 108.30 512.05 C 108.58 516.70 107.89 521.43 108.96 526.01 C 113.02 525.82 118.27 523.87 118.30 519.06 C 118.59 513.94 112.66 511.30 108.30 512.05 M 149.77 526.73 C 147.80 530.99 143.59 533.22 139.95 535.81 C 142.19 537.00 144.26 535.09 146.04 533.91 C 150.27 530.54 153.86 525.30 153.02 519.66 C 150.75 521.22 151.33 524.59 149.77 526.73 M 102.04 530.81 C 101.95 535.61 102.01 540.41 102.06 545.21 C 105.20 545.08 108.73 544.48 110.59 541.64 C 112.53 539.35 111.78 536.03 110.13 533.84 C 107.87 531.93 104.98 530.94 102.04 530.81 Z" />
</g>
<g id="#ebaea5ff">
<path fill="#ebaea5" opacity="1.00" d=" M 264.66 439.48 C 265.88 438.83 267.11 438.18 268.33 437.53 C 270.32 439.43 271.21 442.06 270.24 444.72 C 268.49 442.86 266.66 441.06 264.66 439.48 Z" />
</g>
<g id="#f2b5adff">
<path fill="#f2b5ad" opacity="1.00" d=" M 243.39 457.06 C 245.96 454.63 248.89 452.61 251.96 450.85 C 252.58 451.09 253.81 451.57 254.43 451.82 L 254.65 452.66 C 254.21 455.12 254.47 458.58 251.72 459.77 C 248.61 461.17 245.37 459.50 243.39 457.06 Z" />
<path fill="#f2b5ad" opacity="1.00" d=" M 227.52 472.96 C 230.08 469.91 233.48 467.81 236.97 465.99 C 238.64 468.96 239.08 473.79 235.64 475.69 C 232.62 476.84 229.54 475.17 227.52 472.96 Z" />
<path fill="#f2b5ad" opacity="1.00" d=" M 220.26 478.41 C 220.77 478.48 221.79 478.62 222.30 478.69 C 222.50 479.25 222.91 480.38 223.11 480.94 C 222.69 483.24 222.30 485.77 220.63 487.56 C 217.54 489.13 213.28 487.77 211.89 484.51 C 214.68 482.47 217.45 480.41 220.26 478.41 Z" />
</g>
<g id="#66261aff">
<path fill="#66261a" opacity="1.00" d=" M 749.26 455.27 C 751.26 454.13 753.54 453.69 755.73 453.09 C 756.16 458.01 756.14 462.96 755.81 467.90 C 752.57 467.57 749.01 466.66 747.23 463.67 C 745.16 460.98 746.54 456.92 749.26 455.27 Z" />
<path fill="#66261a" opacity="1.00" d=" M 744.34 482.05 C 744.68 477.60 749.78 475.12 753.82 475.84 C 753.81 480.22 753.81 484.60 753.75 488.98 C 749.46 489.71 744.22 486.79 744.34 482.05 Z" />
<path fill="#66261a" opacity="1.00" d=" M 746.28 503.96 C 746.06 498.97 751.62 496.39 755.95 496.69 C 756.03 501.44 756.14 506.19 755.78 510.94 C 751.61 510.81 746.68 508.66 746.28 503.96 Z" />
<path fill="#66261a" opacity="1.00" d=" M 754.20 519.18 C 756.31 516.80 759.61 516.01 762.68 516.13 C 762.83 520.74 762.80 525.35 762.66 529.96 C 759.11 530.31 755.17 528.92 753.43 525.64 C 752.79 523.55 752.53 520.86 754.20 519.18 Z" />
</g>
<g id="#ffa083ff">
<path fill="#ffa083" opacity="1.00" d=" M 108.82 468.73 C 112.00 468.76 115.74 469.30 117.58 472.24 C 118.41 474.26 118.54 476.71 117.57 478.71 C 115.65 481.51 112.19 482.32 109.06 482.95 C 108.28 478.25 108.67 473.47 108.82 468.73 Z" />
<path fill="#ffa083" opacity="1.00" d=" M 111.06 490.30 C 114.62 490.90 119.12 491.92 119.99 496.07 C 121.11 501.08 115.48 504.56 111.04 504.19 C 110.57 499.57 110.60 494.92 111.06 490.30 Z" />
<path fill="#ffa083" opacity="1.00" d=" M 108.30 512.05 C 112.66 511.30 118.59 513.94 118.30 519.06 C 118.27 523.87 113.02 525.82 108.96 526.01 C 107.89 521.43 108.58 516.70 108.30 512.05 Z" />
<path fill="#ffa083" opacity="1.00" d=" M 102.04 530.81 C 104.98 530.94 107.87 531.93 110.13 533.84 C 111.78 536.03 112.53 539.35 110.59 541.64 C 108.73 544.48 105.20 545.08 102.06 545.21 C 102.01 540.41 101.95 535.61 102.04 530.81 Z" />
</g>
<g id="#342320ff">
<path fill="#342320" opacity="1.00" d=" M 710.93 504.67 C 711.35 504.81 712.19 505.10 712.61 505.24 C 713.75 509.56 715.46 513.96 719.12 516.79 C 720.80 518.37 723.50 518.92 724.36 521.27 C 716.50 520.34 711.41 512.08 710.93 504.67 Z" />
</g>
</svg>
